<svg id="svg" version="1.1" xmlns="http://www.w3.org/2000/svg" xmlns:xlink="http://www.w3.org/1999/xlink" width="400" height="400" viewBox="0, 0, 400,400"><g id="svgg"><path id="path0" d="M260.815 67.032 C 260.017 91.513,254.572 101.459,233.826 116.334 C 224.127 123.288,217.777 129.089,211.729 136.523 C 207.992 141.116,208.317 139.352,208.062 156.445 L 207.835 171.680 208.577 169.141 C 214.041 150.441,232.448 135.384,259.721 127.305 C 261.918 126.654,262.418 125.819,264.609 119.136 C 270.936 99.839,269.812 76.715,261.785 61.070 L 261.056 59.649 260.815 67.032 M137.002 64.355 C 129.513 82.006,129.329 104.542,136.527 122.461 C 138.278 126.819,137.896 126.499,143.750 128.507 C 169.433 137.317,185.444 150.674,191.054 167.969 L 192.131 171.289 192.130 164.453 C 192.129 160.693,192.002 153.813,191.848 149.164 L 191.567 140.712 187.819 136.274 C 181.468 128.753,174.008 121.935,165.037 115.451 C 151.547 105.702,146.252 99.345,142.584 88.495 C 140.254 81.600,138.254 67.347,138.896 62.207 C 139.256 59.327,139.023 59.591,137.002 64.355 " stroke="none" fill="#e4bc3b" fill-rule="evenodd"></path><path id="path1" d="M0.000 200.000 L 0.000 400.000 200.000 400.000 L 400.000 400.000 400.000 200.000 L 400.000 0.000 200.000 0.000 L 0.000 0.000 0.000 200.000 M265.218 69.531 C 270.317 85.427,269.809 105.873,263.927 121.486 C 262.099 126.337,261.802 126.769,259.951 127.264 C 234.305 134.123,213.890 150.724,208.696 168.943 L 207.805 172.070 208.020 156.470 L 208.235 140.870 211.217 137.134 C 217.390 129.402,224.737 122.678,234.636 115.700 C 254.102 101.979,259.964 91.032,260.820 66.805 L 261.076 59.570 262.552 62.695 C 263.363 64.414,264.563 67.490,265.218 69.531 M140.014 77.539 C 143.339 95.688,147.873 102.633,164.435 114.953 C 175.396 123.105,182.230 129.400,188.974 137.556 L 191.765 140.931 191.985 153.962 C 192.106 161.128,192.293 168.212,192.401 169.704 C 192.638 172.981,192.413 172.870,191.398 169.207 C 186.551 151.714,170.676 138.114,144.141 128.721 L 138.477 126.717 137.211 124.110 C 128.970 107.132,129.362 80.867,138.146 61.523 L 138.855 59.961 139.113 66.992 C 139.254 70.859,139.660 75.605,140.014 77.539 M204.058 116.895 C 204.793 124.289,205.510 138.972,205.302 142.383 C 205.171 144.531,204.808 154.287,204.494 164.063 C 204.181 173.838,203.812 183.800,203.675 186.200 L 203.426 190.564 201.650 191.333 C 199.940 192.073,199.814 192.076,198.277 191.424 C 196.195 190.539,196.314 191.616,195.454 166.016 C 194.540 138.786,194.613 131.525,195.950 117.090 L 196.195 114.453 200.005 114.453 L 203.815 114.453 204.058 116.895 M154.333 139.412 C 172.786 145.875,186.729 161.618,187.779 177.176 L 187.992 180.329 184.873 181.951 C 166.329 191.599,149.805 177.556,149.805 152.148 C 149.805 146.137,151.095 138.672,152.133 138.672 C 152.182 138.672,153.172 139.005,154.333 139.412 M248.781 141.113 C 252.514 152.532,249.349 169.502,241.964 177.662 C 234.946 185.418,223.934 187.011,214.551 181.629 L 212.500 180.453 212.503 177.824 C 212.518 163.280,226.579 146.606,244.727 139.613 C 247.929 138.379,247.882 138.362,248.781 141.113 M160.352 186.029 C 163.737 187.717,165.337 188.243,168.891 188.836 L 171.680 189.301 172.745 191.233 C 174.116 193.719,174.186 193.546,171.582 194.126 C 169.346 194.624,164.849 196.670,162.782 198.130 L 161.697 198.897 159.597 194.468 C 157.443 189.926,154.688 183.324,154.688 182.704 C 154.688 182.513,155.347 182.876,156.152 183.511 C 156.958 184.146,158.848 185.279,160.352 186.029 M243.932 186.582 C 243.145 188.483,241.533 192.007,240.350 194.413 L 238.199 198.786 236.761 197.878 C 234.129 196.217,230.688 194.645,228.613 194.155 C 226.248 193.598,226.241 193.578,227.546 191.003 C 228.417 189.282,228.672 189.062,229.792 189.057 C 233.108 189.042,240.211 186.404,243.750 183.872 C 245.576 182.566,245.579 182.604,243.932 186.582 M190.359 189.996 C 192.117 191.369,194.298 193.171,195.206 194.000 L 196.858 195.508 197.452 207.234 C 197.779 213.684,198.047 219.640,198.047 220.469 L 198.047 221.978 195.202 221.795 C 189.777 221.447,183.304 217.142,172.765 206.872 L 166.274 200.547 170.583 199.305 C 172.953 198.623,175.149 197.965,175.462 197.845 C 175.836 197.701,176.682 198.453,177.919 200.027 C 179.795 202.415,184.539 206.490,186.811 207.665 L 188.000 208.280 186.938 206.386 C 185.913 204.559,178.906 190.005,178.906 189.703 C 178.906 189.621,179.959 189.348,181.245 189.095 C 182.531 188.842,184.245 188.392,185.053 188.095 C 185.862 187.798,186.667 187.543,186.844 187.528 C 187.020 187.512,188.602 188.623,190.359 189.996 M218.041 188.793 L 221.434 189.656 216.882 198.832 C 214.378 203.879,212.258 208.161,212.171 208.348 C 211.356 210.100,221.393 201.425,223.279 198.748 L 224.023 197.691 228.640 199.003 C 231.179 199.724,233.335 200.392,233.430 200.487 C 233.779 200.837,220.791 213.175,217.383 215.731 C 211.989 219.776,208.405 221.500,204.826 221.771 L 201.885 221.993 202.142 218.516 C 202.283 216.604,202.628 210.607,202.909 205.191 L 203.420 195.343 204.702 194.253 C 210.117 189.653,213.139 187.493,213.867 187.704 C 214.297 187.829,216.175 188.319,218.041 188.793 M95.794 252.405 L 95.898 261.450 106.055 252.407 L 116.211 243.365 121.582 243.362 C 124.536 243.361,126.953 243.434,126.953 243.525 C 126.953 243.615,122.277 247.855,116.562 252.947 C 106.557 261.859,106.198 262.229,106.894 262.886 C 107.292 263.261,111.836 267.215,116.992 271.673 C 122.148 276.131,126.714 280.110,127.138 280.514 C 127.894 281.236,127.795 281.250,121.864 281.239 L 115.820 281.227 111.914 277.668 C 109.766 275.711,105.239 271.577,101.855 268.482 L 95.703 262.854 95.703 272.052 L 95.703 281.250 91.797 281.250 L 87.891 281.250 87.891 262.305 L 87.891 243.359 91.790 243.359 L 95.689 243.359 95.794 252.405 M140.699 256.543 C 140.830 270.775,140.849 270.909,143.029 272.912 C 144.569 274.327,146.645 274.683,152.539 274.544 C 162.660 274.304,162.500 274.590,162.500 256.731 L 162.500 243.332 166.504 243.443 L 170.508 243.555 170.508 257.422 C 170.508 275.130,170.008 276.885,164.145 279.773 L 161.543 281.055 153.348 281.188 C 140.607 281.394,136.866 280.165,134.063 274.851 L 133.008 272.852 132.893 258.105 L 132.777 243.359 136.678 243.359 L 140.578 243.359 140.699 256.543 M186.721 256.152 C 186.724 274.581,186.747 274.618,198.008 274.601 C 208.644 274.585,208.339 275.085,208.594 257.245 L 208.789 243.555 212.823 243.443 L 216.857 243.331 216.716 257.506 C 216.537 275.462,215.862 277.564,209.444 280.158 C 206.058 281.527,189.263 281.531,185.882 280.163 C 179.559 277.607,178.906 275.471,178.906 257.351 L 178.906 243.359 182.813 243.359 L 186.719 243.359 186.721 256.152 M263.281 246.841 L 263.281 250.322 251.465 250.492 C 234.027 250.742,232.040 251.895,231.704 261.967 C 231.353 272.489,233.244 274.013,247.168 274.433 L 255.469 274.683 255.469 270.154 L 255.469 265.625 250.000 265.625 L 244.531 265.625 244.531 262.305 L 244.531 258.984 253.906 258.984 L 263.281 258.984 263.281 270.144 L 263.281 281.303 249.316 281.171 C 233.791 281.024,233.530 280.983,229.439 278.045 C 221.785 272.548,221.097 256.100,228.208 248.582 C 232.572 243.967,234.932 243.431,251.074 243.390 L 263.281 243.359 263.281 246.841 M302.133 254.913 C 305.149 261.161,309.233 269.642,311.207 273.761 L 314.797 281.250 310.225 281.250 L 305.654 281.250 304.051 277.637 L 302.448 274.023 292.023 273.919 L 281.597 273.815 279.836 277.533 L 278.075 281.250 273.803 281.250 C 271.454 281.250,269.531 281.159,269.531 281.048 C 269.531 280.936,272.546 274.564,276.230 266.887 C 279.914 259.211,283.955 250.771,285.210 248.132 L 287.491 243.335 292.070 243.445 L 296.649 243.555 302.133 254.913 M291.283 253.171 C 290.972 253.898,289.466 257.175,287.936 260.454 C 286.407 263.733,285.156 266.502,285.156 266.606 C 285.156 266.711,288.251 266.797,292.034 266.797 C 297.380 266.797,298.868 266.688,298.717 266.309 C 297.988 264.480,292.409 252.472,292.160 252.195 C 291.990 252.005,291.595 252.445,291.283 253.171 M175.391 301.202 L 175.391 306.641 183.789 306.641 L 192.188 306.641 192.188 301.172 L 192.188 295.703 195.508 295.703 L 198.828 295.703 198.828 310.352 L 198.828 325.000 195.508 325.000 L 192.188 325.000 192.188 318.945 L 192.188 312.891 183.789 312.891 L 175.391 312.891 175.391 318.945 L 175.391 325.000 172.266 325.000 L 169.141 325.000 169.140 310.254 L 169.139 295.508 172.265 295.635 L 175.391 295.763 175.391 301.202 M158.594 298.438 L 158.594 301.172 151.705 301.172 C 140.276 301.172,138.358 302.718,138.746 311.616 C 139.036 318.271,140.047 318.906,150.613 319.065 L 158.594 319.185 158.594 322.125 L 158.594 325.065 149.902 324.933 C 135.480 324.714,131.150 320.907,131.726 308.951 C 132.220 298.696,136.302 295.757,150.098 295.723 L 158.594 295.703 158.594 298.438 M229.796 301.758 C 231.297 304.980,234.272 311.309,236.407 315.820 C 238.543 320.332,240.384 324.243,240.499 324.512 C 240.658 324.882,239.859 325.000,237.204 325.000 L 233.699 325.000 232.422 322.070 L 231.145 319.141 223.385 319.141 C 219.117 319.141,215.512 319.130,215.373 319.116 C 215.234 319.103,214.566 320.377,213.887 321.948 L 212.654 324.805 209.072 324.917 L 205.489 325.029 208.446 318.862 C 210.073 315.470,213.179 308.866,215.350 304.186 L 219.297 295.678 223.182 295.788 L 227.068 295.898 229.796 301.758 M268.750 298.438 L 268.750 301.172 263.477 301.172 L 258.203 301.172 258.203 313.086 L 258.203 325.000 255.078 325.000 L 251.953 325.000 251.953 313.086 L 251.953 301.172 246.289 301.172 L 240.625 301.172 240.625 298.438 L 240.625 295.703 254.688 295.703 L 268.750 295.703 268.750 298.438 M222.656 302.356 C 222.656 302.578,221.674 304.907,220.473 307.532 C 219.273 310.157,218.199 312.524,218.088 312.793 C 217.932 313.169,219.061 313.281,223.005 313.281 C 225.821 313.281,228.127 313.149,228.130 312.988 C 228.139 312.359,223.283 301.953,222.979 301.953 C 222.801 301.953,222.656 302.135,222.656 302.356 " stroke="none" fill="#04121b" fill-rule="evenodd"></path><path id="path2" d="M150.925 142.090 C 148.088 150.744,150.015 165.465,155.111 174.072 C 161.327 184.571,173.595 187.819,184.873 181.951 L 187.992 180.329 187.779 177.176 C 186.943 164.796,179.109 153.479,165.415 144.873 C 161.240 142.249,153.579 138.672,152.133 138.672 C 152.085 138.672,151.541 140.210,150.925 142.090 M244.727 139.613 C 226.579 146.606,212.518 163.280,212.503 177.824 L 212.500 180.453 214.551 181.629 C 223.934 187.011,234.946 185.418,241.964 177.662 C 249.349 169.502,252.514 152.532,248.781 141.113 C 247.882 138.362,247.929 138.379,244.727 139.613 " stroke="none" fill="#d4141b" fill-rule="evenodd"></path><path id="path3" d="M196.318 114.927 C 196.062 115.764,195.296 127.405,195.055 134.122 C 194.858 139.589,195.578 168.125,196.338 185.046 L 196.588 190.600 198.252 191.235 C 199.827 191.837,200.008 191.830,201.652 191.102 L 203.389 190.334 203.627 184.132 C 205.095 145.773,205.234 136.014,204.463 125.195 L 203.711 114.648 200.091 114.536 C 197.400 114.452,196.432 114.553,196.318 114.927 M156.502 186.987 C 157.462 189.310,159.015 192.832,159.953 194.813 L 161.659 198.415 165.724 196.312 C 167.960 195.155,170.610 194.085,171.614 193.935 C 173.707 193.621,173.723 193.577,172.602 191.270 C 171.779 189.576,171.725 189.543,169.085 189.107 C 164.868 188.410,159.370 186.070,155.601 183.368 C 154.871 182.845,154.993 183.336,156.502 186.987 M242.436 184.811 C 239.452 186.758,234.704 188.570,231.132 189.126 C 228.297 189.566,228.278 189.577,227.619 191.171 C 226.705 193.382,226.757 193.475,229.299 194.170 C 230.536 194.509,233.002 195.610,234.779 196.617 C 236.557 197.624,238.051 198.401,238.101 198.345 C 238.917 197.418,245.140 183.650,244.850 183.415 C 244.782 183.361,243.696 183.989,242.436 184.811 M184.813 188.327 C 183.658 188.724,181.850 189.163,180.794 189.303 C 179.739 189.443,178.934 189.666,179.006 189.798 C 179.077 189.931,179.505 190.830,179.958 191.797 C 183.410 199.177,186.857 206.128,187.545 207.094 C 187.997 207.729,188.273 208.342,188.159 208.456 C 187.465 209.150,178.575 201.647,176.921 198.972 L 176.147 197.718 173.327 198.615 C 171.777 199.109,169.654 199.755,168.610 200.051 L 166.713 200.590 170.789 204.690 C 182.803 216.775,189.001 221.014,195.649 221.693 L 198.135 221.947 197.902 218.883 C 197.774 217.199,197.466 211.338,197.218 205.859 C 196.692 194.229,197.194 195.747,192.647 192.042 C 186.739 187.229,187.274 187.482,184.813 188.327 M208.398 191.424 L 203.711 195.314 203.469 198.536 C 203.012 204.601,202.215 221.486,202.377 221.647 C 202.954 222.219,208.486 221.050,210.793 219.868 C 215.824 217.291,234.073 201.521,233.123 200.571 C 233.038 200.486,230.929 199.830,228.437 199.114 L 223.905 197.811 223.289 198.854 C 222.399 200.362,218.843 203.884,216.172 205.905 C 211.968 209.085,210.908 209.534,212.302 207.544 C 213.277 206.152,221.094 190.237,221.094 189.644 C 221.094 189.588,220.296 189.422,219.321 189.276 C 218.346 189.130,216.561 188.670,215.354 188.255 C 214.147 187.840,213.143 187.508,213.122 187.517 C 213.102 187.526,210.977 189.284,208.398 191.424 M87.891 262.500 L 87.891 281.250 91.817 281.250 L 95.743 281.250 95.626 272.070 C 95.561 267.021,95.634 262.934,95.789 262.988 C 96.086 263.091,107.782 273.605,112.955 278.418 L 115.998 281.250 121.671 281.250 C 127.948 281.250,127.858 281.281,126.074 279.737 C 125.376 279.132,120.556 274.935,115.364 270.410 L 105.923 262.182 116.198 253.064 L 126.473 243.945 121.220 243.836 L 115.968 243.728 108.667 250.286 C 98.519 259.402,96.059 261.538,95.839 261.426 C 95.733 261.372,95.666 257.373,95.689 252.539 L 95.730 243.750 91.810 243.750 L 87.891 243.750 87.891 262.500 M132.896 258.105 C 133.038 274.091,133.003 273.870,135.824 276.992 C 138.852 280.343,142.321 281.246,152.148 281.240 C 168.782 281.230,170.060 279.596,170.233 258.105 L 170.348 243.750 166.620 243.750 L 162.891 243.750 162.881 256.152 C 162.868 274.140,162.680 274.501,153.110 274.908 C 141.218 275.415,140.648 274.575,140.614 256.501 L 140.590 243.750 136.679 243.750 L 132.768 243.750 132.896 258.105 M178.967 258.105 L 179.102 272.461 180.191 274.680 C 182.648 279.684,185.576 280.906,195.705 281.159 C 206.017 281.417,209.941 280.653,213.024 277.789 C 216.075 274.954,216.382 273.115,216.417 257.416 L 216.448 243.945 212.735 243.834 L 209.023 243.722 208.906 257.115 C 208.749 275.137,208.956 274.805,197.852 274.805 C 186.653 274.805,186.949 275.271,186.802 257.394 L 186.690 243.750 182.761 243.750 L 178.832 243.750 178.967 258.105 M235.788 244.184 C 227.246 246.190,222.496 254.799,223.766 265.973 C 225.227 278.812,229.601 281.242,251.270 281.247 L 263.281 281.250 263.281 270.117 L 263.281 258.984 254.102 258.984 L 244.922 258.984 244.922 262.305 L 244.922 265.625 250.391 265.625 L 255.859 265.625 255.859 270.117 L 255.859 274.609 247.727 274.609 C 234.183 274.609,231.228 272.493,231.256 262.814 C 231.287 252.335,234.527 250.409,252.148 250.393 L 263.086 250.383 263.154 247.067 L 263.223 243.750 250.264 243.789 C 243.136 243.811,236.622 243.989,235.788 244.184 M286.769 245.215 C 286.358 246.021,283.385 252.217,280.162 258.984 C 270.820 278.600,269.842 280.647,269.658 280.957 C 269.563 281.118,271.385 281.249,273.707 281.248 L 277.930 281.246 279.569 277.635 L 281.208 274.023 291.652 273.919 C 297.518 273.861,302.251 273.970,302.450 274.169 C 302.644 274.363,303.486 275.992,304.321 277.788 L 305.839 281.055 310.146 281.165 C 312.515 281.226,314.453 281.205,314.453 281.118 C 314.453 281.032,311.938 275.709,308.865 269.289 C 305.791 262.870,301.792 254.498,299.978 250.687 L 296.680 243.756 292.098 243.753 L 287.516 243.750 286.769 245.215 M292.578 251.998 C 292.578 252.238,293.984 255.547,295.703 259.351 C 297.422 263.156,298.828 266.432,298.828 266.631 C 298.828 266.842,295.949 266.955,291.895 266.903 C 287.804 266.850,284.997 266.662,285.048 266.445 C 285.096 266.243,286.305 263.559,287.734 260.480 C 289.162 257.402,290.655 254.136,291.050 253.223 C 291.718 251.682,292.578 250.992,292.578 251.998 M141.541 296.110 C 129.805 298.432,127.910 318.133,138.911 323.459 C 141.228 324.580,143.950 324.904,151.660 324.973 L 158.203 325.032 158.204 322.184 L 158.204 319.336 152.833 319.462 C 140.481 319.753,138.449 318.461,138.503 310.352 C 138.533 305.741,139.094 304.128,141.236 302.493 L 142.710 301.367 150.457 301.247 L 158.203 301.126 158.203 298.415 L 158.203 295.703 150.684 295.746 C 146.548 295.769,142.433 295.933,141.541 296.110 M169.141 310.352 L 169.141 325.000 172.060 325.000 L 174.980 325.000 175.088 318.887 L 175.195 312.774 183.789 312.829 L 192.383 312.883 192.490 318.942 L 192.598 325.000 195.518 325.000 L 198.438 325.000 198.438 310.352 L 198.438 295.703 195.508 295.703 L 192.578 295.703 192.578 301.367 L 192.578 307.031 183.789 307.031 L 175.000 307.031 175.000 301.367 L 175.000 295.703 172.070 295.703 L 169.141 295.703 169.141 310.352 M219.172 296.425 C 218.775 297.167,206.341 323.636,205.978 324.512 C 205.826 324.880,206.587 325.000,209.072 325.000 L 212.367 325.000 213.773 321.875 L 215.178 318.750 223.140 318.750 L 231.101 318.750 232.422 321.875 L 233.743 325.000 237.015 325.000 C 240.040 325.000,240.269 324.944,240.054 324.266 C 239.926 323.862,237.441 318.457,234.532 312.254 C 231.623 306.051,228.704 299.790,228.046 298.340 L 226.849 295.703 223.204 295.703 C 220.059 295.703,219.506 295.802,219.172 296.425 M240.705 298.340 L 240.820 300.977 246.387 301.085 L 251.953 301.193 251.953 313.097 L 251.953 325.000 254.883 325.000 L 257.813 325.000 257.813 313.086 L 257.813 301.172 263.281 301.172 L 268.750 301.172 268.750 298.438 L 268.750 295.703 254.670 295.703 L 240.589 295.703 240.705 298.340 M225.928 307.371 C 227.351 310.565,228.516 313.290,228.516 313.425 C 228.516 313.561,226.143 313.672,223.242 313.672 C 219.543 313.672,217.969 313.538,217.969 313.225 C 217.969 312.979,219.023 310.427,220.313 307.554 C 221.602 304.681,222.656 302.158,222.656 301.947 C 222.656 300.616,223.661 302.282,225.928 307.371 " stroke="none" fill="#b9b9b9" fill-rule="evenodd"></path><path id="path4" d="M138.793 64.648 C 138.795 65.938,138.868 66.418,138.955 65.716 C 139.042 65.014,139.040 63.959,138.951 63.372 C 138.862 62.785,138.791 63.359,138.793 64.648 M204.005 118.555 C 204.009 119.414,204.089 119.720,204.183 119.234 C 204.276 118.748,204.272 118.045,204.175 117.671 C 204.077 117.298,204.000 117.695,204.005 118.555 M195.794 118.750 C 195.794 119.502,195.874 119.810,195.972 119.434 C 196.071 119.058,196.071 118.442,195.972 118.066 C 195.874 117.690,195.794 117.998,195.794 118.750 M195.403 123.828 C 195.403 124.580,195.484 124.888,195.582 124.512 C 195.680 124.136,195.680 123.521,195.582 123.145 C 195.484 122.769,195.403 123.076,195.403 123.828 M204.395 124.023 C 204.400 124.883,204.480 125.188,204.573 124.702 C 204.667 124.217,204.663 123.513,204.565 123.140 C 204.467 122.767,204.391 123.164,204.395 124.023 M204.786 129.883 C 204.790 130.742,204.870 131.048,204.964 130.562 C 205.057 130.076,205.054 129.373,204.956 128.999 C 204.858 128.626,204.782 129.023,204.786 129.883 M195.020 130.273 C 195.025 131.133,195.105 131.438,195.198 130.952 C 195.292 130.467,195.288 129.763,195.190 129.390 C 195.092 129.017,195.016 129.414,195.020 130.273 M205.223 139.063 C 205.223 141.318,205.287 142.241,205.366 141.113 C 205.445 139.985,205.445 138.140,205.366 137.012 C 205.287 135.884,205.223 136.807,205.223 139.063 M194.670 139.648 C 194.669 141.582,194.735 142.422,194.817 141.516 C 194.899 140.609,194.900 139.027,194.819 138.000 C 194.738 136.973,194.671 137.715,194.670 139.648 M204.809 149.414 C 204.811 150.703,204.884 151.183,204.971 150.481 C 205.058 149.779,205.056 148.725,204.967 148.138 C 204.877 147.551,204.806 148.125,204.809 149.414 M195.050 150.586 C 195.052 152.090,195.122 152.657,195.207 151.847 C 195.292 151.036,195.290 149.806,195.204 149.112 C 195.118 148.419,195.048 149.082,195.050 150.586 M191.918 152.930 C 191.920 154.219,191.993 154.699,192.080 153.997 C 192.167 153.295,192.165 152.240,192.076 151.653 C 191.987 151.066,191.916 151.641,191.918 152.930 M207.944 155.859 C 207.944 157.471,208.013 158.130,208.097 157.324 C 208.181 156.519,208.181 155.200,208.097 154.395 C 208.013 153.589,207.944 154.248,207.944 155.859 M204.428 161.328 C 204.428 162.939,204.497 163.599,204.581 162.793 C 204.666 161.987,204.666 160.669,204.581 159.863 C 204.497 159.058,204.428 159.717,204.428 161.328 M195.444 163.281 C 195.444 164.893,195.513 165.552,195.597 164.746 C 195.681 163.940,195.681 162.622,195.597 161.816 C 195.513 161.011,195.444 161.670,195.444 163.281 M204.038 173.047 C 204.038 174.658,204.107 175.317,204.191 174.512 C 204.275 173.706,204.275 172.388,204.191 171.582 C 204.107 170.776,204.038 171.436,204.038 173.047 M195.834 175.391 C 195.834 177.002,195.903 177.661,195.988 176.855 C 196.072 176.050,196.072 174.731,195.988 173.926 C 195.903 173.120,195.834 173.779,195.834 175.391 M203.637 183.789 C 203.639 185.078,203.712 185.558,203.799 184.856 C 203.886 184.154,203.884 183.100,203.795 182.513 C 203.706 181.926,203.634 182.500,203.637 183.789 M196.205 186.133 C 196.208 187.207,196.284 187.600,196.374 187.006 C 196.464 186.413,196.461 185.534,196.369 185.053 C 196.276 184.573,196.203 185.059,196.205 186.133 M239.725 195.122 C 239.367 195.871,239.156 196.484,239.254 196.484 C 239.521 196.484,240.707 194.093,240.529 193.914 C 240.444 193.829,240.082 194.373,239.725 195.122 M203.237 198.633 C 203.240 199.707,203.316 200.100,203.405 199.506 C 203.495 198.913,203.493 198.034,203.400 197.553 C 203.307 197.073,203.234 197.559,203.237 198.633 M196.974 201.367 C 196.978 202.227,197.058 202.532,197.151 202.046 C 197.245 201.560,197.241 200.857,197.143 200.484 C 197.046 200.110,196.969 200.508,196.974 201.367 M167.952 202.051 C 169.571 203.775,169.922 204.086,169.922 203.792 C 169.922 203.730,169.087 202.895,168.066 201.937 L 166.211 200.195 167.952 202.051 M231.818 202.051 L 230.273 203.711 231.934 202.167 C 233.478 200.731,233.773 200.391,233.478 200.391 C 233.414 200.391,232.667 201.138,231.818 202.051 M202.846 206.445 C 202.849 207.520,202.925 207.913,203.015 207.319 C 203.104 206.725,203.102 205.846,203.009 205.366 C 202.917 204.885,202.843 205.371,202.846 206.445 M174.805 208.984 C 175.863 210.059,176.816 210.938,176.924 210.938 C 177.031 210.938,176.253 210.059,175.195 208.984 C 174.137 207.910,173.184 207.031,173.076 207.031 C 172.969 207.031,173.747 207.910,174.805 208.984 M187.342 207.751 C 187.207 207.970,187.287 208.267,187.520 208.411 C 188.120 208.782,188.508 208.273,188.006 207.772 C 187.726 207.491,187.507 207.485,187.342 207.751 M197.356 208.984 C 197.356 209.736,197.437 210.044,197.535 209.668 C 197.633 209.292,197.633 208.677,197.535 208.301 C 197.437 207.925,197.356 208.232,197.356 208.984 M223.218 210.645 L 222.070 211.914 223.340 210.767 C 224.038 210.136,224.609 209.564,224.609 209.497 C 224.609 209.195,224.287 209.461,223.218 210.645 M202.442 213.477 C 202.447 214.336,202.527 214.642,202.620 214.156 C 202.713 213.670,202.710 212.967,202.612 212.593 C 202.514 212.220,202.438 212.617,202.442 213.477 M197.763 217.188 C 197.763 218.154,197.839 218.550,197.932 218.066 C 198.025 217.583,198.025 216.792,197.932 216.309 C 197.839 215.825,197.763 216.221,197.763 217.188 M202.060 220.313 C 202.060 221.279,202.136 221.675,202.229 221.191 C 202.322 220.708,202.322 219.917,202.229 219.434 C 202.136 218.950,202.060 219.346,202.060 220.313 M204.204 221.761 C 204.690 221.854,205.393 221.851,205.766 221.753 C 206.140 221.655,205.742 221.579,204.883 221.583 C 204.023 221.587,203.718 221.667,204.204 221.761 M89.746 243.647 C 90.874 243.726,92.720 243.726,93.848 243.647 C 94.976 243.568,94.053 243.504,91.797 243.504 C 89.541 243.504,88.618 243.568,89.746 243.647 M118.652 243.649 C 120.210 243.724,122.759 243.724,124.316 243.649 C 125.874 243.575,124.600 243.515,121.484 243.515 C 118.369 243.515,117.095 243.575,118.652 243.649 M134.668 243.647 C 135.796 243.726,137.642 243.726,138.770 243.647 C 139.897 243.568,138.975 243.504,136.719 243.504 C 134.463 243.504,133.540 243.568,134.668 243.647 M162.592 256.334 L 162.684 269.336 162.793 256.543 L 162.901 243.750 166.602 243.750 L 170.302 243.750 170.413 256.934 L 170.524 270.117 170.516 256.836 L 170.508 243.555 166.504 243.443 L 162.500 243.332 162.592 256.334 M180.762 243.647 C 181.890 243.726,183.735 243.726,184.863 243.647 C 185.991 243.568,185.068 243.504,182.813 243.504 C 180.557 243.504,179.634 243.568,180.762 243.647 M208.771 243.851 C 208.668 244.121,208.632 250.054,208.691 257.034 L 208.800 269.727 208.892 256.712 L 208.984 243.698 212.891 243.822 C 215.040 243.890,216.798 243.813,216.798 243.652 C 216.796 243.116,208.979 243.309,208.771 243.851 M244.849 243.652 C 248.354 243.717,253.979 243.716,257.349 243.651 C 260.719 243.587,257.852 243.533,250.977 243.534 C 244.102 243.534,241.344 243.587,244.849 243.652 M287.364 243.652 C 287.263 243.813,288.615 243.898,290.368 243.840 C 296.110 243.650,296.759 243.497,292.113 243.428 C 289.601 243.390,287.464 243.491,287.364 243.652 M216.581 257.031 C 216.581 264.014,216.634 266.870,216.699 263.379 C 216.763 259.888,216.763 254.175,216.699 250.684 C 216.634 247.192,216.581 250.049,216.581 257.031 M263.008 248.047 C 263.008 249.229,263.081 249.712,263.170 249.121 C 263.260 248.530,263.260 247.563,263.170 246.973 C 263.081 246.382,263.008 246.865,263.008 248.047 M102.124 255.957 L 100.977 257.227 102.246 256.079 C 103.429 255.010,103.695 254.688,103.393 254.688 C 103.326 254.688,102.755 255.259,102.124 255.957 M244.670 262.305 C 244.669 264.238,244.735 265.079,244.817 264.172 C 244.899 263.265,244.900 261.683,244.819 260.656 C 244.738 259.629,244.671 260.371,244.670 262.305 M106.811 261.426 L 105.664 262.695 106.934 261.548 C 108.117 260.479,108.383 260.156,108.081 260.156 C 108.014 260.156,107.442 260.728,106.811 261.426 M231.381 262.891 C 231.381 264.502,231.450 265.161,231.535 264.355 C 231.619 263.550,231.619 262.231,231.535 261.426 C 231.450 260.620,231.381 261.279,231.381 262.891 M98.047 264.966 C 98.047 265.033,98.618 265.604,99.316 266.236 L 100.586 267.383 99.439 266.113 C 98.369 264.930,98.047 264.664,98.047 264.966 M223.528 266.016 C 223.528 266.768,223.609 267.075,223.707 266.699 C 223.805 266.323,223.805 265.708,223.707 265.332 C 223.609 264.956,223.528 265.264,223.528 266.016 M255.618 270.117 C 255.619 272.695,255.682 273.699,255.758 272.348 C 255.835 270.997,255.834 268.887,255.757 267.660 C 255.680 266.434,255.617 267.539,255.618 270.117 M102.734 269.263 C 102.734 269.330,103.306 269.901,104.004 270.532 L 105.273 271.680 104.126 270.410 C 103.057 269.227,102.734 268.961,102.734 269.263 M240.538 274.505 C 241.456 274.588,242.863 274.587,243.663 274.503 C 244.463 274.419,243.711 274.351,241.992 274.353 C 240.273 274.354,239.619 274.423,240.538 274.505 M149.316 274.898 C 150.552 274.976,152.573 274.976,153.809 274.898 C 155.044 274.821,154.033 274.757,151.563 274.757 C 149.092 274.757,148.081 274.821,149.316 274.898 M195.426 274.899 C 196.886 274.975,199.171 274.974,200.505 274.898 C 201.838 274.822,200.645 274.760,197.852 274.761 C 195.059 274.762,193.967 274.824,195.426 274.899 M110.547 276.294 C 110.547 276.361,111.118 276.933,111.816 277.564 L 113.086 278.711 111.939 277.441 C 110.869 276.258,110.547 275.992,110.547 276.294 M134.766 276.294 C 134.766 276.361,135.337 276.933,136.035 277.564 L 137.305 278.711 136.157 277.441 C 135.088 276.258,134.766 275.992,134.766 276.294 M158.334 298.438 C 158.334 300.049,158.403 300.708,158.488 299.902 C 158.572 299.097,158.572 297.778,158.488 296.973 C 158.403 296.167,158.334 296.826,158.334 298.438 M175.086 301.270 L 175.000 307.031 183.789 307.031 L 192.578 307.031 192.492 301.270 L 192.406 295.508 192.286 301.074 L 192.166 306.641 183.789 306.641 L 175.412 306.641 175.292 301.074 L 175.172 295.508 175.086 301.270 M198.615 310.352 C 198.615 318.516,198.666 321.911,198.730 317.897 C 198.793 313.883,198.793 307.203,198.730 303.053 C 198.667 298.903,198.615 302.188,198.615 310.352 M135.327 299.316 L 134.180 300.586 135.449 299.439 C 136.633 298.369,136.898 298.047,136.597 298.047 C 136.529 298.047,135.958 298.618,135.327 299.316 M257.986 313.086 C 257.986 319.746,258.039 322.526,258.105 319.263 C 258.170 316.000,258.170 310.550,258.105 307.153 C 258.040 303.756,257.986 306.426,257.986 313.086 M140.074 303.546 C 139.518 304.207,139.068 304.954,139.074 305.206 C 139.081 305.458,139.281 305.313,139.518 304.883 C 139.756 304.453,140.309 303.706,140.746 303.223 C 141.184 302.739,141.440 302.344,141.314 302.344 C 141.188 302.344,140.630 302.885,140.074 303.546 M138.406 310.547 C 138.406 311.943,138.477 312.515,138.564 311.816 C 138.650 311.118,138.650 309.976,138.564 309.277 C 138.477 308.579,138.406 309.150,138.406 310.547 M175.172 313.005 C 175.065 313.283,175.032 316.140,175.098 319.353 L 175.218 325.195 175.304 319.076 C 175.367 314.612,175.523 312.902,175.879 312.759 C 176.261 312.604,176.259 312.555,175.867 312.531 C 175.591 312.514,175.279 312.727,175.172 313.005 M192.186 318.866 L 192.380 325.195 192.490 319.171 C 192.550 315.857,192.463 313.009,192.296 312.841 C 192.129 312.674,192.080 315.385,192.186 318.866 M223.047 313.281 L 217.773 313.511 223.145 313.592 C 226.518 313.642,228.516 313.527,228.516 313.281 C 228.516 313.066,228.472 312.927,228.418 312.971 C 228.364 313.015,225.947 313.155,223.047 313.281 M219.434 319.041 C 221.636 319.111,225.239 319.111,227.441 319.041 C 229.644 318.972,227.842 318.915,223.438 318.915 C 219.033 318.915,217.231 318.972,219.434 319.041 M148.164 319.432 C 150.054 319.504,153.042 319.503,154.804 319.431 C 156.566 319.359,155.020 319.300,151.367 319.300 C 147.715 319.301,146.273 319.360,148.164 319.432 M158.337 322.070 C 158.338 323.789,158.407 324.444,158.490 323.525 C 158.572 322.606,158.571 321.200,158.487 320.400 C 158.403 319.600,158.336 320.352,158.337 322.070 " stroke="none" fill="#7c838c" fill-rule="evenodd"></path></g></svg>