<svg id="svg" version="1.1" xmlns="http://www.w3.org/2000/svg" xmlns:xlink="http://www.w3.org/1999/xlink" width="400" height="400" viewBox="0, 0, 400,400"><g id="svgg"><path id="path0" d="M0.000 200.000 L 0.000 400.000 200.000 400.000 L 400.000 400.000 400.000 200.000 L 400.000 0.000 200.000 0.000 L 0.000 0.000 0.000 200.000 M139.435 79.883 C 141.230 107.864,148.090 117.036,183.700 139.069 L 191.602 143.957 191.858 152.936 C 192.317 169.038,192.452 184.803,192.127 184.290 C 191.952 184.015,191.806 183.227,191.803 182.540 C 191.786 179.004,188.162 170.661,184.480 165.679 C 176.473 154.847,164.648 147.612,141.289 139.253 C 137.905 138.042,138.012 138.178,136.082 132.617 C 129.664 114.126,130.425 91.637,138.075 73.688 C 138.938 71.664,138.895 71.467,139.435 79.883 M263.036 76.074 C 269.962 93.823,270.065 117.504,263.292 135.068 L 262.092 138.178 255.433 140.593 C 233.475 148.554,221.937 156.020,214.605 167.013 C 211.328 171.927,208.203 179.944,208.203 183.438 C 208.203 183.928,208.022 184.441,207.801 184.578 C 207.530 184.745,207.479 183.826,207.646 181.769 C 207.782 180.087,208.007 170.908,208.146 161.371 L 208.398 144.032 215.820 139.564 C 223.118 135.171,237.594 125.285,242.578 121.290 C 254.721 111.558,259.891 99.347,260.801 78.249 C 261.105 71.185,261.121 71.169,263.036 76.074 M203.669 121.973 C 204.854 129.950,205.130 144.949,204.526 168.590 C 204.185 181.929,203.906 193.646,203.906 194.627 C 203.906 196.314,203.802 196.486,202.007 197.775 L 200.108 199.140 198.341 197.990 L 196.573 196.840 196.342 194.026 C 195.563 184.512,195.220 141.723,195.846 132.227 C 196.200 126.855,196.489 122.065,196.487 121.582 C 196.484 120.736,196.614 120.703,199.982 120.703 L 203.480 120.703 203.669 121.973 M160.131 153.737 C 176.872 162.028,184.540 170.805,185.734 183.039 C 186.305 188.897,182.496 191.827,174.230 191.888 C 159.564 191.996,152.045 180.270,150.929 155.548 L 150.661 149.616 152.504 150.244 C 153.518 150.589,156.950 152.161,160.131 153.737 M249.219 152.266 C 249.219 172.804,244.337 185.108,234.236 190.030 C 227.961 193.087,219.034 192.299,215.596 188.384 L 214.348 186.962 214.568 183.227 C 215.367 169.719,224.627 160.104,245.703 150.899 C 249.447 149.263,249.219 149.174,249.219 152.266 M189.434 195.773 C 190.933 196.671,192.959 198.218,193.937 199.210 L 195.714 201.015 196.286 210.566 C 196.600 215.819,196.932 221.128,197.024 222.363 L 197.192 224.609 195.896 224.609 C 190.312 224.609,185.855 222.559,179.423 217.031 C 174.830 213.084,162.109 200.110,162.109 199.373 C 162.109 198.968,167.881 196.094,168.694 196.094 C 168.895 196.094,170.352 197.438,171.932 199.080 C 176.996 204.346,185.407 210.817,186.181 210.043 C 186.369 209.855,182.801 201.523,181.007 197.962 C 179.853 195.674,179.851 195.707,181.152 195.686 C 181.743 195.677,183.105 195.349,184.180 194.957 C 185.254 194.565,186.262 194.222,186.421 194.193 C 186.579 194.164,187.935 194.875,189.434 195.773 M216.992 195.166 C 218.496 195.557,219.782 195.908,219.850 195.946 C 220.021 196.041,217.609 201.776,215.475 206.348 C 214.497 208.442,213.785 210.156,213.893 210.156 C 215.609 210.156,220.895 206.139,226.626 200.478 L 231.182 195.979 233.727 197.087 C 238.601 199.211,238.630 198.718,233.289 204.515 C 220.255 218.660,214.070 223.291,206.802 224.348 C 202.531 224.969,202.862 226.373,203.873 211.913 L 204.660 200.652 205.943 199.319 C 207.759 197.432,212.918 194.052,213.647 194.271 C 213.983 194.372,215.488 194.774,216.992 195.166 M95.703 251.704 L 95.703 260.048 96.770 259.844 C 97.439 259.716,101.240 256.601,106.952 251.500 L 116.067 243.359 121.510 243.359 C 124.504 243.359,126.953 243.423,126.953 243.502 C 126.953 243.580,122.274 247.833,116.554 252.954 L 106.155 262.263 107.472 263.423 C 108.196 264.061,112.217 267.782,116.406 271.692 C 120.596 275.602,124.595 279.280,125.293 279.865 C 127.257 281.510,126.950 281.642,121.191 281.623 L 115.820 281.605 109.375 275.548 C 100.062 266.797,96.946 264.063,96.287 264.063 C 95.786 264.063,95.703 265.318,95.703 272.865 L 95.703 281.668 91.699 281.557 L 87.695 281.445 87.594 262.402 L 87.493 243.359 91.598 243.359 L 95.703 243.359 95.703 251.704 M140.699 256.738 C 140.863 274.834,140.607 274.432,151.953 274.390 C 162.969 274.349,162.500 275.127,162.500 256.875 L 162.500 243.359 166.602 243.359 L 170.703 243.359 170.703 256.426 C 170.703 280.068,169.145 282.001,150.460 281.542 C 133.925 281.136,132.813 279.611,132.813 257.360 L 132.813 243.359 136.695 243.359 L 140.578 243.359 140.699 256.738 M186.802 257.199 C 186.949 275.335,186.370 274.418,197.656 274.408 C 208.949 274.399,208.362 275.329,208.515 257.185 L 208.631 243.332 212.616 243.444 L 216.602 243.555 216.487 257.422 C 216.295 280.522,215.052 282.023,196.506 281.537 C 185.686 281.253,182.794 280.125,180.277 275.207 L 179.102 272.909 178.990 258.134 L 178.879 243.359 182.785 243.359 L 186.690 243.359 186.802 257.199 M263.588 247.363 L 263.700 251.170 250.893 251.074 L 238.086 250.977 236.343 251.953 C 229.764 255.640,229.754 269.833,236.328 273.285 C 237.829 274.073,249.093 274.569,253.365 274.035 L 255.469 273.772 255.469 269.649 L 255.469 265.526 250.005 265.673 C 247.000 265.754,244.539 265.688,244.536 265.527 C 244.533 265.366,244.531 263.630,244.531 261.669 L 244.531 258.103 249.707 258.353 C 252.554 258.490,256.860 258.709,259.277 258.840 L 263.672 259.078 263.672 270.359 L 263.672 281.641 251.270 281.634 C 235.331 281.625,232.413 281.075,228.322 277.303 C 221.549 271.060,221.541 254.611,228.307 247.844 C 232.388 243.764,234.207 243.405,250.391 243.488 L 263.477 243.555 263.588 247.363 M299.776 249.911 C 301.479 253.505,305.478 261.935,308.663 268.645 C 311.848 275.354,314.453 281.023,314.453 281.242 C 314.453 281.489,312.784 281.641,310.054 281.641 L 305.654 281.641 304.051 278.027 L 302.448 274.414 291.909 274.310 L 281.370 274.206 279.690 277.924 L 278.011 281.641 273.594 281.641 L 269.176 281.641 270.678 278.418 C 271.504 276.646,274.493 270.361,277.319 264.453 C 280.146 258.545,283.549 251.385,284.882 248.542 L 287.305 243.373 291.992 243.375 L 296.680 243.377 299.776 249.911 M288.546 258.967 C 286.682 263.002,285.156 266.393,285.156 266.502 C 285.156 266.611,288.230 266.731,291.987 266.769 L 298.818 266.839 298.078 265.158 C 297.670 264.233,296.122 260.811,294.636 257.553 L 291.935 251.630 288.546 258.967 M158.903 298.666 L 158.789 301.628 151.056 301.581 C 140.198 301.514,138.278 302.829,138.283 310.331 C 138.289 318.220,139.924 319.303,151.496 319.083 L 158.789 318.945 158.904 322.010 L 159.019 325.075 150.106 324.940 L 141.192 324.805 138.556 323.506 C 128.287 318.449,129.385 300.103,140.188 296.242 C 141.177 295.889,144.218 295.732,150.309 295.720 L 159.017 295.703 158.903 298.666 M175.391 301.172 L 175.391 306.641 183.594 306.641 L 191.797 306.641 191.797 301.172 L 191.797 295.703 194.922 295.703 L 198.047 295.703 198.047 310.352 L 198.047 325.000 194.922 325.000 L 191.797 325.000 191.797 318.750 L 191.797 312.500 183.594 312.500 L 175.391 312.500 175.391 318.750 L 175.391 325.000 172.266 325.000 L 169.141 325.000 169.141 310.352 L 169.141 295.703 172.266 295.703 L 175.391 295.703 175.391 301.172 M230.255 302.457 C 234.276 311.160,239.786 323.437,240.073 324.332 C 240.278 324.973,240.014 325.022,236.884 324.918 L 233.472 324.805 232.251 321.875 L 231.030 318.945 223.177 318.840 L 215.324 318.734 214.010 321.862 L 212.695 324.990 209.277 324.995 C 207.397 324.998,205.859 324.913,205.859 324.807 C 205.859 324.582,211.781 311.709,216.237 302.246 L 219.318 295.703 223.233 295.718 L 227.148 295.734 230.255 302.457 M269.060 298.535 L 268.945 301.367 263.574 301.367 L 258.202 301.367 258.203 313.184 L 258.203 325.000 255.078 325.000 L 251.953 325.000 251.953 313.184 L 251.954 301.367 246.582 301.367 L 241.211 301.367 241.096 298.535 L 240.981 295.703 255.078 295.703 L 269.175 295.703 269.060 298.535 M222.713 302.778 C 222.518 303.291,221.458 305.704,220.359 308.140 C 219.259 310.577,218.360 312.686,218.360 312.828 C 218.361 312.970,220.558 313.086,223.243 313.086 C 225.928 313.086,228.125 312.980,228.125 312.851 C 228.125 312.555,223.490 302.266,223.247 302.023 C 223.149 301.925,222.909 302.265,222.713 302.778 " stroke="none" fill="#040f1b" fill-rule="evenodd"></path><path id="path1" d="M138.135 74.023 C 130.236 91.448,130.013 118.958,137.634 136.009 L 138.562 138.086 146.516 141.016 C 172.738 150.674,187.170 163.021,191.394 179.411 L 192.120 182.227 191.919 166.406 C 191.808 157.705,191.603 149.101,191.464 147.285 L 191.211 143.984 182.422 138.496 C 169.335 130.324,156.439 120.944,152.625 116.823 C 143.907 107.403,139.902 96.019,139.111 78.412 L 138.843 72.461 138.135 74.023 M261.158 77.175 C 259.890 98.373,255.830 109.369,245.791 118.797 C 241.387 122.933,225.608 133.945,215.041 140.258 L 208.789 143.993 208.524 157.250 C 208.378 164.542,208.202 173.167,208.133 176.418 L 208.008 182.329 208.897 178.957 C 213.378 161.977,226.606 150.978,255.251 140.417 L 261.869 137.977 262.940 135.293 C 269.725 118.297,269.890 95.383,263.355 77.482 C 261.498 72.395,261.444 72.387,261.158 77.175 M196.694 122.852 C 195.473 134.143,195.287 144.576,195.882 168.359 C 196.212 181.572,196.483 193.297,196.483 194.415 C 196.484 196.383,196.539 196.485,198.242 197.656 L 200.000 198.866 201.726 197.678 C 203.917 196.171,203.783 197.608,204.298 170.117 C 204.520 158.301,204.778 147.792,204.873 146.764 C 204.967 145.737,204.701 139.936,204.281 133.874 C 203.861 127.812,203.517 122.469,203.517 122.001 C 203.516 121.205,203.305 121.143,200.210 121.025 L 196.905 120.898 196.694 122.852 M248.047 149.985 C 247.725 150.167,244.385 151.817,240.625 153.652 C 223.431 162.044,216.474 169.653,214.855 181.836 C 214.059 187.827,215.580 189.912,221.690 191.206 C 233.810 193.774,244.414 185.345,247.238 170.898 C 248.238 165.784,249.453 149.560,248.831 149.632 C 248.722 149.645,248.369 149.804,248.047 149.985 M151.286 156.351 C 151.967 174.801,156.194 184.914,165.172 189.571 C 173.200 193.735,184.791 191.588,185.442 185.817 C 186.910 172.792,172.611 157.310,152.968 150.655 L 151.052 150.007 151.286 156.351 M184.375 195.142 C 183.623 195.426,182.656 195.672,182.227 195.687 C 180.387 195.753,180.451 196.172,183.222 202.275 C 186.190 208.808,186.658 210.156,185.960 210.156 C 184.224 210.156,178.233 205.626,172.950 200.318 L 168.751 196.100 165.413 197.686 L 162.075 199.272 164.789 202.273 C 171.994 210.239,182.297 219.671,186.337 221.999 C 189.017 223.543,196.869 225.118,196.881 224.114 C 196.897 222.745,195.632 202.028,195.489 201.318 C 195.181 199.787,187.835 194.431,186.246 194.578 C 185.969 194.603,185.127 194.857,184.375 195.142 M210.371 196.079 C 209.092 196.929,207.309 198.339,206.409 199.211 L 204.773 200.797 204.496 205.574 C 204.343 208.202,203.995 213.516,203.721 217.383 C 203.447 221.250,203.272 224.470,203.332 224.539 C 203.700 224.963,211.099 223.250,213.091 222.280 C 216.514 220.613,221.918 215.940,229.795 207.837 C 238.596 198.782,238.226 199.536,234.696 197.845 C 230.997 196.072,231.401 195.949,227.454 200.047 C 222.061 205.649,214.183 211.493,213.755 210.210 C 213.690 210.015,214.854 207.154,216.342 203.853 C 220.020 195.696,219.919 196.224,217.891 195.704 C 216.967 195.468,215.701 195.107,215.078 194.903 C 213.301 194.320,212.846 194.433,210.371 196.079 M162.810 257.296 C 162.660 275.296,163.092 274.608,151.938 274.609 C 140.404 274.610,140.626 274.958,140.626 256.934 L 140.625 243.750 136.693 243.750 L 132.760 243.750 132.904 257.910 C 133.083 275.622,133.837 277.980,140.053 280.272 C 145.107 282.136,162.570 281.465,165.570 279.292 C 169.901 276.155,170.473 273.603,170.492 257.349 L 170.508 243.799 166.717 243.677 L 162.925 243.555 162.810 257.296 M249.023 243.736 L 234.961 243.945 232.744 244.985 C 221.565 250.225,219.888 271.649,230.121 278.482 C 233.874 280.989,235.805 281.250,250.565 281.250 L 263.281 281.250 263.281 270.178 L 263.281 259.105 254.121 258.752 C 243.543 258.344,244.546 257.919,244.537 262.811 L 244.531 265.662 250.098 265.602 L 255.664 265.542 255.774 269.835 L 255.884 274.128 248.938 274.401 C 236.132 274.906,232.755 273.406,231.626 266.710 C 230.347 259.126,232.772 252.719,237.509 251.166 C 239.320 250.572,254.640 250.471,260.645 251.013 L 263.281 251.251 263.281 247.305 C 263.281 245.135,263.237 243.397,263.184 243.443 C 263.130 243.489,256.758 243.621,249.023 243.736 M87.891 262.500 L 87.891 281.250 91.797 281.250 L 95.703 281.250 95.703 272.656 C 95.703 264.242,95.720 264.063,96.507 264.063 C 97.014 264.063,100.729 267.239,106.560 272.656 L 115.809 281.250 120.990 281.250 C 123.840 281.250,126.172 281.192,126.172 281.121 C 126.172 280.974,107.831 263.933,106.605 262.940 C 105.831 262.314,106.093 262.042,116.072 253.121 L 126.334 243.945 121.161 243.836 L 115.988 243.727 106.747 251.942 C 100.389 257.595,97.226 260.156,96.605 260.156 L 95.703 260.156 95.703 251.953 L 95.703 243.750 91.797 243.750 L 87.891 243.750 87.891 262.500 M178.974 258.105 L 179.102 272.461 180.200 274.697 C 182.890 280.175,185.360 281.055,198.047 281.055 C 209.121 281.055,210.176 280.860,212.679 278.357 C 216.016 275.020,216.174 274.137,216.326 257.910 L 216.459 243.750 212.526 243.750 L 208.594 243.750 208.592 257.324 C 208.590 275.579,209.141 274.759,197.038 274.542 C 186.108 274.346,186.732 275.388,186.725 257.324 L 186.719 243.750 182.783 243.750 L 178.847 243.750 178.974 258.105 M286.385 245.984 C 285.382 247.972,278.516 262.366,271.846 276.465 L 269.582 281.250 273.783 281.250 L 277.984 281.250 279.667 277.539 L 281.350 273.828 291.844 273.828 L 302.338 273.828 304.072 277.539 L 305.806 281.250 310.095 281.250 L 314.384 281.250 310.949 273.926 C 309.060 269.897,305.068 261.504,302.079 255.273 L 296.643 243.945 292.083 243.835 L 287.524 243.725 286.385 245.984 M295.232 258.391 C 296.964 262.147,298.493 265.575,298.631 266.009 C 298.875 266.779,298.724 266.797,291.781 266.797 C 286.254 266.797,284.727 266.689,284.886 266.309 C 284.998 266.040,286.511 262.792,288.248 259.091 C 289.985 255.390,291.406 252.182,291.406 251.962 C 291.406 250.604,292.455 252.366,295.232 258.391 M141.818 296.141 C 129.083 298.292,127.901 320.325,140.323 324.013 C 141.841 324.464,144.309 324.609,150.462 324.609 L 158.594 324.609 158.594 321.777 L 158.595 318.945 152.247 319.145 C 139.774 319.537,138.050 318.488,138.117 310.547 C 138.186 302.421,140.403 300.906,151.648 301.296 L 158.594 301.537 158.594 298.651 L 158.594 295.765 151.270 295.773 C 147.241 295.777,142.988 295.943,141.818 296.141 M169.417 295.948 C 169.265 296.100,169.141 302.611,169.141 310.417 L 169.141 324.609 172.283 324.609 L 175.426 324.609 175.369 318.652 L 175.312 312.695 183.750 312.590 L 192.188 312.485 192.188 318.547 L 192.188 324.609 195.117 324.609 L 198.047 324.609 198.047 310.156 L 198.047 295.703 195.117 295.703 L 192.188 295.703 192.188 301.375 L 192.188 307.046 183.757 306.941 L 175.327 306.836 175.261 301.367 L 175.195 295.898 172.444 295.785 C 170.931 295.723,169.568 295.796,169.417 295.948 M218.386 298.145 C 217.775 299.487,216.182 302.871,214.847 305.664 C 212.417 310.748,206.250 324.248,206.250 324.484 C 206.250 324.553,207.700 324.609,209.473 324.608 L 212.695 324.606 213.860 321.678 C 214.500 320.068,215.203 318.737,215.422 318.720 C 215.641 318.704,219.239 318.661,223.417 318.625 L 231.013 318.559 232.277 321.487 L 233.541 324.414 236.692 324.528 C 238.426 324.590,239.844 324.551,239.844 324.442 C 239.844 324.079,235.168 313.609,230.979 304.590 L 226.851 295.703 223.175 295.703 L 219.499 295.703 218.386 298.145 M241.406 298.438 L 241.406 301.172 246.680 301.172 L 251.953 301.172 251.953 312.891 L 251.953 324.609 254.883 324.609 L 257.813 324.609 257.813 312.891 L 257.813 301.172 263.281 301.172 L 268.750 301.172 268.750 298.438 L 268.750 295.703 255.078 295.703 L 241.406 295.703 241.406 298.438 M225.962 307.391 C 227.367 310.469,228.516 313.053,228.516 313.134 C 228.516 313.215,226.143 313.281,223.242 313.281 C 220.342 313.281,217.969 313.194,217.969 313.088 C 217.969 312.982,218.782 311.093,219.776 308.889 C 220.770 306.686,221.917 304.111,222.325 303.167 C 222.733 302.224,223.144 301.529,223.238 301.623 C 223.332 301.717,224.558 304.313,225.962 307.391 " stroke="none" fill="#0581d2" fill-rule="evenodd"></path><path id="path2" d="M199.707 120.983 C 200.298 121.072,201.265 121.072,201.855 120.983 C 202.446 120.893,201.963 120.820,200.781 120.820 C 199.600 120.820,199.116 120.893,199.707 120.983 M208.331 148.242 C 208.333 149.746,208.404 150.313,208.488 149.503 C 208.573 148.693,208.571 147.462,208.485 146.769 C 208.399 146.075,208.330 146.738,208.331 148.242 M204.778 149.609 C 204.778 150.361,204.859 150.669,204.957 150.293 C 205.055 149.917,205.055 149.302,204.957 148.926 C 204.859 148.550,204.778 148.857,204.778 149.609 M195.403 155.469 C 195.403 156.221,195.484 156.528,195.582 156.152 C 195.680 155.776,195.680 155.161,195.582 154.785 C 195.484 154.409,195.403 154.717,195.403 155.469 M191.936 164.648 C 191.934 166.582,192.000 167.422,192.082 166.516 C 192.164 165.609,192.165 164.027,192.084 163.000 C 192.004 161.973,191.937 162.715,191.936 164.648 M223.026 164.746 L 221.680 166.211 223.145 164.865 C 224.508 163.612,224.789 163.281,224.491 163.281 C 224.425 163.281,223.766 163.940,223.026 164.746 M195.802 173.633 C 195.806 174.492,195.886 174.798,195.979 174.312 C 196.073 173.826,196.069 173.123,195.972 172.749 C 195.874 172.376,195.797 172.773,195.802 173.633 M207.944 176.953 C 207.944 178.564,208.013 179.224,208.097 178.418 C 208.181 177.612,208.181 176.294,208.097 175.488 C 208.013 174.683,207.944 175.342,207.944 176.953 M192.021 182.292 C 191.884 182.650,191.953 183.125,192.175 183.347 C 192.452 183.624,192.578 183.421,192.578 182.695 C 192.578 181.490,192.383 181.349,192.021 182.292 M196.184 189.063 C 196.184 189.814,196.265 190.122,196.363 189.746 C 196.461 189.370,196.461 188.755,196.363 188.379 C 196.265 188.003,196.184 188.311,196.184 189.063 M162.675 256.445 C 162.675 263.535,162.727 266.491,162.792 263.013 C 162.857 259.536,162.857 253.735,162.792 250.122 C 162.728 246.510,162.675 249.355,162.675 256.445 M255.957 251.051 C 256.333 251.149,256.948 251.149,257.324 251.051 C 257.700 250.952,257.393 250.872,256.641 250.872 C 255.889 250.872,255.581 250.952,255.957 251.051 M121.394 281.533 C 122.096 281.620,123.150 281.618,123.737 281.529 C 124.324 281.440,123.750 281.369,122.461 281.371 C 121.172 281.373,120.692 281.446,121.394 281.533 M147.369 281.530 C 147.962 281.620,148.841 281.618,149.322 281.525 C 149.802 281.432,149.316 281.359,148.242 281.362 C 147.168 281.365,146.775 281.441,147.369 281.530 M154.199 281.536 C 155.112 281.618,156.606 281.618,157.520 281.536 C 158.433 281.454,157.686 281.386,155.859 281.386 C 154.033 281.386,153.286 281.454,154.199 281.536 M193.644 281.532 C 194.337 281.618,195.568 281.620,196.378 281.535 C 197.188 281.451,196.621 281.380,195.117 281.378 C 193.613 281.376,192.950 281.446,193.644 281.532 M270.987 281.532 C 271.681 281.618,272.911 281.620,273.722 281.535 C 274.532 281.451,273.965 281.380,272.461 281.378 C 270.957 281.376,270.294 281.446,270.987 281.532 M191.951 300.977 C 191.952 303.984,192.013 305.163,192.087 303.596 C 192.162 302.029,192.161 299.568,192.086 298.127 C 192.011 296.687,191.950 297.969,191.951 300.977 M268.841 297.266 C 268.841 298.018,268.921 298.325,269.019 297.949 C 269.118 297.573,269.118 296.958,269.019 296.582 C 268.921 296.206,268.841 296.514,268.841 297.266 M148.340 301.448 C 148.823 301.541,149.614 301.541,150.098 301.448 C 150.581 301.354,150.186 301.278,149.219 301.278 C 148.252 301.278,147.856 301.354,148.340 301.448 M257.985 313.477 C 257.985 319.707,258.039 322.201,258.105 319.019 C 258.171 315.837,258.170 310.739,258.104 307.691 C 258.039 304.643,257.985 307.246,257.985 313.477 M178.034 306.924 C 178.736 307.011,179.791 307.009,180.378 306.920 C 180.965 306.831,180.391 306.759,179.102 306.762 C 177.813 306.764,177.332 306.837,178.034 306.924 M188.579 306.917 C 189.065 307.010,189.768 307.007,190.141 306.909 C 190.515 306.811,190.117 306.735,189.258 306.739 C 188.398 306.743,188.093 306.823,188.579 306.917 M191.953 318.945 C 191.954 322.168,192.014 323.434,192.088 321.759 C 192.161 320.085,192.161 317.448,192.087 315.900 C 192.013 314.352,191.953 315.723,191.953 318.945 M155.566 319.019 C 155.942 319.118,156.558 319.118,156.934 319.019 C 157.310 318.921,157.002 318.841,156.250 318.841 C 155.498 318.841,155.190 318.921,155.566 319.019 M144.438 324.886 C 144.924 324.979,145.627 324.976,146.001 324.878 C 146.374 324.780,145.977 324.704,145.117 324.708 C 144.258 324.712,143.952 324.792,144.438 324.886 " stroke="none" fill="#044574" fill-rule="evenodd"></path><path id="path3" d="M153.516 117.773 C 154.244 118.525,154.929 119.141,155.036 119.141 C 155.143 119.141,154.635 118.525,153.906 117.773 C 153.177 117.021,152.493 116.406,152.386 116.406 C 152.278 116.406,152.787 117.021,153.516 117.773 M204.778 151.953 C 204.778 152.705,204.859 153.013,204.957 152.637 C 205.055 152.261,205.055 151.646,204.957 151.270 C 204.859 150.894,204.778 151.201,204.778 151.953 M195.411 158.008 C 195.415 158.867,195.495 159.173,195.589 158.687 C 195.682 158.201,195.679 157.498,195.581 157.124 C 195.483 156.751,195.407 157.148,195.411 158.008 M191.918 159.180 C 191.920 160.469,191.993 160.949,192.080 160.247 C 192.167 159.545,192.165 158.490,192.076 157.903 C 191.987 157.316,191.916 157.891,191.918 159.180 M176.953 165.039 C 177.682 165.791,178.366 166.406,178.474 166.406 C 178.581 166.406,178.073 165.791,177.344 165.039 C 176.615 164.287,175.931 163.672,175.823 163.672 C 175.716 163.672,176.224 164.287,176.953 165.039 M204.388 168.359 C 204.388 169.111,204.468 169.419,204.566 169.043 C 204.664 168.667,204.664 168.052,204.566 167.676 C 204.468 167.300,204.388 167.607,204.388 168.359 M207.934 172.070 C 207.936 173.359,208.009 173.840,208.096 173.138 C 208.183 172.435,208.181 171.381,208.092 170.794 C 208.002 170.207,207.931 170.781,207.934 172.070 M195.794 176.172 C 195.794 176.924,195.874 177.231,195.972 176.855 C 196.071 176.479,196.071 175.864,195.972 175.488 C 195.874 175.112,195.794 175.420,195.794 176.172 M207.447 183.574 C 207.430 184.499,207.548 184.796,207.824 184.519 C 208.091 184.253,208.099 183.798,207.849 183.172 C 207.494 182.284,207.470 182.308,207.447 183.574 M185.653 184.766 C 185.653 185.732,185.729 186.128,185.823 185.645 C 185.916 185.161,185.916 184.370,185.823 183.887 C 185.729 183.403,185.653 183.799,185.653 184.766 M204.005 184.570 C 204.009 185.430,204.089 185.735,204.183 185.249 C 204.276 184.763,204.272 184.060,204.175 183.687 C 204.077 183.313,204.000 183.711,204.005 184.570 M196.205 191.992 C 196.208 193.066,196.284 193.459,196.374 192.866 C 196.464 192.272,196.461 191.393,196.369 190.913 C 196.276 190.432,196.203 190.918,196.205 191.992 M225.760 201.465 L 224.414 202.930 225.879 201.584 C 227.242 200.331,227.523 200.000,227.225 200.000 C 227.160 200.000,226.501 200.659,225.760 201.465 M87.681 262.305 C 87.681 272.832,87.731 277.083,87.793 271.750 C 87.854 266.418,87.854 257.805,87.793 252.610 C 87.731 247.415,87.681 251.777,87.681 262.305 M216.549 247.461 C 216.550 249.609,216.616 250.438,216.695 249.303 C 216.774 248.168,216.773 246.410,216.693 245.397 C 216.613 244.384,216.548 245.313,216.549 247.461 M263.424 247.461 C 263.425 249.609,263.491 250.438,263.570 249.303 C 263.649 248.168,263.648 246.410,263.568 245.397 C 263.488 244.384,263.423 245.313,263.424 247.461 M253.613 251.051 C 253.989 251.149,254.604 251.149,254.980 251.051 C 255.356 250.952,255.049 250.872,254.297 250.872 C 253.545 250.872,253.237 250.952,253.613 251.051 M263.454 270.313 C 263.454 276.650,263.508 279.243,263.573 276.074 C 263.639 272.905,263.639 267.720,263.573 264.551 C 263.508 261.382,263.454 263.975,263.454 270.313 M286.840 274.120 C 289.807 274.187,294.553 274.187,297.387 274.120 C 300.220 274.053,297.793 273.999,291.992 273.999 C 286.191 273.999,283.873 274.054,286.840 274.120 M155.566 274.488 C 155.942 274.586,156.558 274.586,156.934 274.488 C 157.310 274.390,157.002 274.309,156.250 274.309 C 155.498 274.309,155.190 274.390,155.566 274.488 M158.590 298.713 C 158.485 300.476,158.539 301.777,158.710 301.605 C 158.881 301.432,158.967 299.990,158.901 298.400 L 158.782 295.508 158.590 298.713 M268.841 299.609 C 268.841 300.361,268.921 300.669,269.019 300.293 C 269.118 299.917,269.118 299.302,269.019 298.926 C 268.921 298.550,268.841 298.857,268.841 299.609 M145.801 301.441 C 146.177 301.539,146.792 301.539,147.168 301.441 C 147.544 301.343,147.236 301.263,146.484 301.263 C 145.732 301.263,145.425 301.343,145.801 301.441 M243.848 301.462 C 245.298 301.537,247.671 301.537,249.121 301.462 C 250.571 301.386,249.385 301.325,246.484 301.325 C 243.584 301.325,242.397 301.386,243.848 301.462 M261.035 301.462 C 262.485 301.537,264.858 301.537,266.309 301.462 C 267.759 301.386,266.572 301.325,263.672 301.325 C 260.771 301.325,259.585 301.386,261.035 301.462 M219.434 313.166 C 219.917 313.259,220.708 313.259,221.191 313.166 C 221.675 313.073,221.279 312.997,220.313 312.997 C 219.346 312.997,218.950 313.073,219.434 313.166 M222.954 313.167 C 223.440 313.260,224.143 313.257,224.516 313.159 C 224.890 313.061,224.492 312.985,223.633 312.989 C 222.773 312.993,222.468 313.073,222.954 313.167 M152.637 319.026 C 153.120 319.119,153.911 319.119,154.395 319.026 C 154.878 318.933,154.482 318.856,153.516 318.856 C 152.549 318.856,152.153 318.933,152.637 319.026 M158.728 322.070 C 158.729 323.789,158.798 324.444,158.880 323.525 C 158.963 322.606,158.962 321.200,158.878 320.400 C 158.794 319.600,158.726 320.352,158.728 322.070 " stroke="none" fill="#042745" fill-rule="evenodd"></path><path id="path4" d="M261.036 75.586 C 261.040 76.445,261.120 76.751,261.214 76.265 C 261.307 75.779,261.304 75.076,261.206 74.702 C 261.108 74.329,261.032 74.727,261.036 75.586 M131.731 107.422 C 131.731 108.174,131.812 108.481,131.910 108.105 C 132.008 107.729,132.008 107.114,131.910 106.738 C 131.812 106.362,131.731 106.670,131.731 107.422 M191.401 146.405 L 191.592 149.023 191.716 146.720 C 191.784 145.454,191.698 144.275,191.525 144.102 C 191.352 143.928,191.297 144.964,191.401 146.405 M204.778 147.266 C 204.778 148.018,204.859 148.325,204.957 147.949 C 205.055 147.573,205.055 146.958,204.957 146.582 C 204.859 146.206,204.778 146.514,204.778 147.266 M150.888 151.563 C 150.888 152.529,150.964 152.925,151.057 152.441 C 151.150 151.958,151.150 151.167,151.057 150.684 C 150.964 150.200,150.888 150.596,150.888 151.563 M248.935 151.953 C 248.935 152.920,249.011 153.315,249.104 152.832 C 249.197 152.349,249.197 151.558,249.104 151.074 C 249.011 150.591,248.935 150.986,248.935 151.953 M208.361 156.836 C 208.362 160.273,208.421 161.627,208.494 159.845 C 208.567 158.062,208.566 155.250,208.493 153.595 C 208.420 151.940,208.361 153.398,208.361 156.836 M204.403 163.672 C 204.403 164.639,204.479 165.034,204.573 164.551 C 204.666 164.067,204.666 163.276,204.573 162.793 C 204.479 162.310,204.403 162.705,204.403 163.672 M191.928 170.703 C 191.928 172.314,191.997 172.974,192.081 172.168 C 192.166 171.362,192.166 170.044,192.081 169.238 C 191.997 168.433,191.928 169.092,191.928 170.703 M195.810 170.703 C 195.810 171.670,195.886 172.065,195.979 171.582 C 196.072 171.099,196.072 170.308,195.979 169.824 C 195.886 169.341,195.810 169.736,195.810 170.703 M203.997 180.469 C 203.997 181.221,204.077 181.528,204.176 181.152 C 204.274 180.776,204.274 180.161,204.176 179.785 C 204.077 179.409,203.997 179.717,203.997 180.469 M196.184 186.719 C 196.184 187.471,196.265 187.778,196.363 187.402 C 196.461 187.026,196.461 186.411,196.363 186.035 C 196.265 185.659,196.184 185.967,196.184 186.719 M203.485 195.410 C 203.368 196.250,203.428 196.728,203.625 196.532 C 203.813 196.343,203.904 195.684,203.827 195.067 C 203.699 194.034,203.671 194.062,203.485 195.410 M173.047 200.586 C 174.431 201.982,175.651 203.125,175.759 203.125 C 175.866 203.125,174.822 201.982,173.438 200.586 C 172.053 199.189,170.833 198.047,170.726 198.047 C 170.618 198.047,171.663 199.189,173.047 200.586 M171.680 209.766 C 173.172 211.270,174.481 212.500,174.588 212.500 C 174.696 212.500,173.563 211.270,172.070 209.766 C 170.578 208.262,169.269 207.031,169.162 207.031 C 169.054 207.031,170.187 208.262,171.680 209.766 M227.138 210.645 L 224.414 213.477 227.246 210.753 C 229.876 208.223,230.257 207.813,229.970 207.813 C 229.911 207.813,228.636 209.087,227.138 210.645 M89.746 243.647 C 90.874 243.726,92.720 243.726,93.848 243.647 C 94.976 243.568,94.053 243.504,91.797 243.504 C 89.541 243.504,88.618 243.568,89.746 243.647 M117.578 243.619 C 121.807 243.904,126.564 243.922,126.563 243.652 C 126.563 243.491,124.146 243.391,121.191 243.430 C 118.237 243.469,116.611 243.554,117.578 243.619 M134.668 243.647 C 135.796 243.726,137.642 243.726,138.770 243.647 C 139.897 243.568,138.975 243.504,136.719 243.504 C 134.463 243.504,133.540 243.568,134.668 243.647 M164.941 243.646 C 165.962 243.727,167.632 243.727,168.652 243.646 C 169.673 243.566,168.838 243.500,166.797 243.500 C 164.756 243.500,163.921 243.566,164.941 243.646 M180.762 243.647 C 181.890 243.726,183.735 243.726,184.863 243.647 C 185.991 243.568,185.068 243.504,182.813 243.504 C 180.557 243.504,179.634 243.568,180.762 243.647 M210.449 243.647 C 211.577 243.726,213.423 243.726,214.551 243.647 C 215.679 243.568,214.756 243.504,212.500 243.504 C 210.244 243.504,209.321 243.568,210.449 243.647 M244.458 243.652 C 247.963 243.717,253.588 243.716,256.958 243.651 C 260.328 243.587,257.461 243.533,250.586 243.534 C 243.711 243.534,240.953 243.587,244.458 243.652 M287.365 243.652 C 287.265 243.813,289.348 243.945,291.992 243.945 C 294.637 243.945,296.719 243.813,296.619 243.652 C 296.520 243.491,294.438 243.359,291.992 243.359 C 289.547 243.359,287.465 243.491,287.365 243.652 M170.457 248.047 C 170.457 250.303,170.522 251.226,170.600 250.098 C 170.679 248.970,170.679 247.124,170.600 245.996 C 170.522 244.868,170.457 245.791,170.457 248.047 M242.491 250.677 C 243.410 250.760,244.816 250.759,245.616 250.675 C 246.416 250.591,245.664 250.523,243.945 250.525 C 242.227 250.526,241.572 250.595,242.491 250.677 M258.501 251.058 C 258.987 251.151,259.690 251.147,260.063 251.050 C 260.437 250.952,260.039 250.875,259.180 250.880 C 258.320 250.884,258.015 250.964,258.501 251.058 M170.411 255.664 C 170.415 256.523,170.495 256.829,170.589 256.343 C 170.682 255.857,170.679 255.154,170.581 254.781 C 170.483 254.407,170.407 254.805,170.411 255.664 M254.395 258.863 C 254.771 258.961,255.386 258.961,255.762 258.863 C 256.138 258.765,255.830 258.684,255.078 258.684 C 254.326 258.684,254.019 258.765,254.395 258.863 M255.615 270.117 C 255.616 272.480,255.680 273.397,255.758 272.154 C 255.836 270.911,255.835 268.977,255.756 267.857 C 255.678 266.737,255.614 267.754,255.615 270.117 M242.690 274.508 C 243.933 274.586,245.867 274.585,246.987 274.506 C 248.107 274.428,247.090 274.364,244.727 274.365 C 242.363 274.366,241.447 274.430,242.690 274.508 M125.391 281.250 L 124.414 281.563 125.488 281.602 C 126.079 281.623,126.563 281.465,126.563 281.250 C 126.563 281.035,126.519 280.877,126.465 280.898 C 126.411 280.920,125.928 281.078,125.391 281.250 M91.504 281.519 C 91.880 281.618,92.495 281.618,92.871 281.519 C 93.247 281.421,92.939 281.341,92.188 281.341 C 91.436 281.341,91.128 281.421,91.504 281.519 M246.020 281.542 C 249.094 281.608,254.016 281.608,256.957 281.542 C 259.898 281.476,257.383 281.422,251.367 281.422 C 245.352 281.422,242.945 281.476,246.020 281.542 M308.301 281.530 C 308.892 281.619,309.858 281.619,310.449 281.530 C 311.040 281.440,310.557 281.367,309.375 281.367 C 308.193 281.367,307.710 281.440,308.301 281.530 M312.407 281.526 C 312.893 281.620,313.596 281.616,313.969 281.518 C 314.343 281.421,313.945 281.344,313.086 281.349 C 312.227 281.353,311.921 281.433,312.407 281.526 M151.666 301.452 C 152.259 301.542,153.138 301.540,153.619 301.447 C 154.099 301.354,153.613 301.281,152.539 301.284 C 151.465 301.287,151.072 301.362,151.666 301.452 M228.813 318.636 C 229.299 318.729,230.002 318.726,230.376 318.628 C 230.749 318.530,230.352 318.454,229.492 318.458 C 228.633 318.462,228.327 318.542,228.813 318.636 M149.530 324.900 C 151.313 324.973,154.125 324.972,155.780 324.899 C 157.435 324.826,155.977 324.767,152.539 324.767 C 149.102 324.768,147.748 324.828,149.530 324.900 M170.616 324.896 C 171.535 324.978,172.941 324.977,173.741 324.893 C 174.541 324.809,173.789 324.742,172.070 324.743 C 170.352 324.745,169.697 324.813,170.616 324.896 M194.244 324.890 C 194.837 324.979,195.716 324.977,196.197 324.884 C 196.677 324.792,196.191 324.718,195.117 324.721 C 194.043 324.724,193.650 324.800,194.244 324.890 M207.715 324.895 C 208.628 324.978,210.122 324.978,211.035 324.895 C 211.948 324.813,211.201 324.746,209.375 324.746 C 207.549 324.746,206.802 324.813,207.715 324.895 M234.863 324.894 C 235.669 324.978,236.987 324.978,237.793 324.894 C 238.599 324.810,237.939 324.741,236.328 324.741 C 234.717 324.741,234.058 324.810,234.863 324.894 " stroke="none" fill="#045494" fill-rule="evenodd"></path></g></svg>