<svg id="svg" version="1.1" xmlns="http://www.w3.org/2000/svg" xmlns:xlink="http://www.w3.org/1999/xlink" width="400" height="400" viewBox="0, 0, 400,400"><g id="svgg"><path id="path0" d="M151.628 139.150 C 143.795 158.964,156.426 185.120,173.844 185.152 C 177.934 185.159,184.162 183.076,187.301 180.651 C 189.545 178.917,186.682 167.306,182.389 160.730 C 177.809 153.715,167.012 144.528,157.031 139.156 C 152.537 136.737,152.582 136.737,151.628 139.150 M243.129 138.874 C 224.352 148.535,211.719 164.537,211.719 178.659 C 211.719 182.761,223.443 186.435,230.594 184.572 C 245.563 180.673,254.915 157.489,248.597 139.941 C 247.393 136.599,247.508 136.621,243.129 138.874 " stroke="none" fill="#ce0a0e" fill-rule="evenodd"></path><path id="path1" d="M137.229 63.256 C 129.659 79.310,129.034 99.091,135.527 117.188 C 138.434 125.288,139.005 126.065,143.359 127.847 C 151.076 131.003,157.860 134.104,161.195 135.999 C 178.614 145.894,189.121 159.315,191.270 174.414 C 191.392 175.273,191.561 176.050,191.645 176.139 C 191.728 176.229,191.797 168.570,191.797 159.119 L 191.797 141.936 190.102 139.501 C 184.867 131.977,172.048 119.712,162.500 113.090 C 147.287 102.539,139.082 85.994,138.914 65.527 C 138.888 62.358,138.867 59.769,138.867 59.774 C 138.867 59.778,138.130 61.345,137.229 63.256 M261.243 64.167 C 261.925 83.100,253.593 100.987,239.092 111.719 C 225.781 121.571,217.074 129.697,211.261 137.695 C 207.891 142.332,208.199 140.117,208.238 159.459 C 208.271 175.678,208.308 176.565,208.830 173.674 C 212.283 154.553,226.136 140.216,250.781 130.254 C 261.260 126.019,260.254 126.658,261.913 123.178 C 270.919 104.289,271.043 77.990,262.202 61.824 L 261.085 59.780 261.243 64.167 " stroke="none" fill="#ddae24" fill-rule="evenodd"></path><path id="path2" d="M0.000 200.000 L 0.000 400.000 200.000 400.000 L 400.000 400.000 400.000 200.000 L 400.000 0.000 200.000 0.000 L 0.000 0.000 0.000 200.000 M138.914 65.527 C 139.034 80.116,143.694 93.865,151.780 103.486 C 154.648 106.898,157.634 109.475,165.610 115.419 C 174.360 121.941,185.243 132.606,189.898 139.221 L 191.797 141.919 191.757 159.143 L 191.717 176.367 191.048 173.242 C 186.725 153.073,173.948 140.524,145.934 128.931 L 139.648 126.330 138.334 123.863 C 132.348 112.627,129.489 93.552,131.862 80.684 C 133.058 74.199,134.851 68.373,137.217 63.278 C 138.114 61.346,138.852 59.766,138.858 59.766 C 138.863 59.766,138.888 62.358,138.914 65.527 M264.510 66.773 C 271.015 82.991,269.996 105.666,261.977 123.150 C 260.393 126.604,261.411 125.958,250.781 130.254 C 226.136 140.216,212.283 154.553,208.830 173.674 C 208.308 176.564,208.271 175.662,208.238 159.341 L 208.203 141.925 210.449 138.780 C 216.655 130.092,225.283 121.939,239.072 111.734 C 253.585 100.994,261.925 83.100,261.243 64.167 L 261.085 59.780 262.215 61.824 C 262.836 62.948,263.869 65.175,264.510 66.773 M157.031 139.156 C 167.012 144.528,177.809 153.715,182.389 160.730 C 186.682 167.306,189.545 178.917,187.301 180.651 C 184.162 183.076,177.934 185.159,173.844 185.152 C 156.426 185.120,143.795 158.964,151.628 139.150 C 152.582 136.737,152.537 136.737,157.031 139.156 M248.597 139.941 C 254.915 157.489,245.563 180.673,230.594 184.572 C 223.443 186.435,211.719 182.761,211.719 178.659 C 211.719 164.537,224.352 148.535,243.129 138.874 C 247.508 136.621,247.393 136.599,248.597 139.941 M204.688 165.978 L 204.688 189.377 202.397 191.837 L 200.106 194.297 197.709 192.011 L 195.313 189.725 195.313 166.151 L 195.313 142.578 200.000 142.578 L 204.688 142.578 204.688 165.978 M156.690 183.635 C 159.568 186.044,164.240 188.568,168.027 189.758 L 171.406 190.820 172.620 193.274 L 173.833 195.729 172.171 196.435 C 164.960 199.499,162.869 200.119,162.300 199.364 C 160.216 196.598,153.724 182.031,154.575 182.031 C 154.685 182.031,155.636 182.753,156.690 183.635 M244.514 184.598 C 243.498 187.581,238.573 197.526,237.414 198.933 L 236.523 200.015 232.227 198.306 C 229.863 197.366,227.449 196.369,226.862 196.090 L 225.794 195.584 227.037 193.323 C 228.243 191.129,228.367 191.031,231.230 190.022 C 235.193 188.626,239.496 186.350,242.578 184.020 C 245.601 181.735,245.499 181.704,244.514 184.598 M190.169 190.335 C 192.031 192.109,194.478 194.377,195.605 195.375 L 197.656 197.190 197.656 209.523 L 197.656 221.855 196.387 221.647 C 188.321 220.320,178.078 213.376,169.595 203.485 L 168.396 202.086 172.419 200.331 L 176.442 198.576 182.199 204.561 C 189.081 211.717,189.221 211.770,186.431 206.152 C 181.149 195.518,178.874 190.059,179.597 189.751 C 187.233 186.498,186.074 186.434,190.169 190.335 M217.081 188.528 C 219.180 189.309,220.950 189.991,221.014 190.044 C 221.170 190.174,216.606 200.005,213.685 205.834 C 212.385 208.426,211.460 210.547,211.629 210.547 C 211.928 210.547,219.686 202.824,222.317 199.908 L 223.633 198.450 227.613 200.257 L 231.594 202.064 229.450 204.490 C 220.814 214.266,211.608 220.390,203.613 221.677 L 201.953 221.944 201.953 209.442 C 201.953 202.234,202.105 196.885,202.311 196.810 C 202.724 196.659,211.554 188.813,212.458 187.793 C 213.200 186.956,212.589 186.859,217.081 188.528 M126.098 243.777 C 126.021 244.007,124.438 245.545,122.581 247.195 C 120.723 248.845,116.207 252.892,112.546 256.187 L 105.890 262.180 109.749 265.562 C 115.359 270.479,126.497 280.631,126.533 280.859 C 126.550 280.967,124.249 281.001,121.419 280.934 L 116.274 280.814 110.188 275.467 C 106.840 272.526,102.631 268.757,100.833 267.091 C 98.658 265.076,97.253 264.063,96.634 264.063 L 95.703 264.063 95.703 272.461 L 95.703 280.859 91.797 280.859 L 87.891 280.859 87.891 262.305 L 87.891 243.750 91.797 243.750 L 95.703 243.750 95.703 251.953 L 95.703 260.156 96.777 260.152 C 97.873 260.148,101.096 257.416,111.864 247.363 L 116.153 243.359 121.195 243.359 C 124.603 243.359,126.192 243.495,126.098 243.777 M140.625 256.511 C 140.839 270.592,140.938 271.195,143.324 272.959 C 147.390 275.965,157.842 275.520,160.786 272.215 C 162.415 270.386,162.574 269.085,162.760 256.055 L 162.939 243.556 166.636 243.485 L 170.333 243.414 170.302 255.633 C 170.253 275.012,168.138 279.272,157.603 281.220 C 144.448 283.651,134.780 278.708,133.217 268.750 C 132.841 266.357,132.626 244.067,132.975 243.717 C 133.064 243.628,134.778 243.584,136.784 243.620 L 140.430 243.686 140.625 256.511 M187.109 256.884 C 187.314 270.775,187.325 270.852,189.209 272.614 C 192.190 275.403,201.862 275.799,205.555 273.284 C 208.457 271.308,208.377 271.737,208.594 256.981 L 208.789 243.706 212.622 243.630 L 216.456 243.555 216.333 257.031 L 216.211 270.508 214.999 273.066 C 209.351 284.983,186.368 284.971,180.699 273.047 L 179.492 270.508 179.372 257.016 L 179.252 243.525 183.083 243.588 L 186.914 243.651 187.109 256.884 M262.500 246.875 L 262.500 250.391 251.047 250.391 C 234.806 250.391,233.353 251.032,232.001 258.801 C 230.774 265.841,232.261 271.296,235.910 273.145 L 238.031 274.219 246.554 274.219 L 255.078 274.219 255.078 270.117 L 255.078 266.016 249.414 266.016 L 243.750 266.016 243.750 262.500 L 243.750 258.984 253.125 258.984 L 262.500 258.984 262.500 269.944 L 262.500 280.904 248.340 280.784 L 234.180 280.664 232.031 279.563 C 221.157 273.988,220.811 251.639,231.506 245.629 C 234.944 243.697,237.255 243.425,250.488 243.390 L 262.500 243.359 262.500 246.875 M305.280 261.438 C 309.656 271.274,313.348 279.674,313.485 280.104 C 313.724 280.858,313.581 280.882,309.545 280.775 L 305.358 280.664 303.928 277.344 L 302.498 274.023 292.190 274.023 L 281.882 274.023 280.492 277.436 L 279.102 280.848 275.112 280.854 L 271.122 280.859 271.840 279.199 C 273.602 275.131,287.176 244.746,287.515 244.112 C 287.852 243.483,288.414 243.414,292.609 243.480 L 297.324 243.555 305.280 261.438 M289.056 258.091 C 287.259 262.342,285.625 266.040,285.425 266.309 C 285.137 266.695,286.544 266.797,292.145 266.797 L 299.229 266.797 298.607 265.332 C 298.264 264.526,296.955 261.406,295.697 258.398 C 294.439 255.391,293.166 252.352,292.867 251.645 L 292.324 250.361 289.056 258.091 M158.984 298.828 L 158.984 301.563 151.255 301.563 C 139.848 301.563,138.087 302.817,138.086 310.938 C 138.086 318.573,139.155 319.286,150.879 319.467 L 159.375 319.597 159.375 322.339 L 159.375 325.080 149.894 324.942 L 140.412 324.805 137.769 323.503 C 128.135 318.759,130.149 298.961,140.515 296.520 C 141.327 296.329,145.815 296.155,150.488 296.133 L 158.984 296.094 158.984 298.828 M175.391 301.563 L 175.391 307.031 183.808 307.031 L 192.225 307.031 192.164 301.660 L 192.103 296.289 194.890 296.289 L 197.677 296.289 197.677 310.547 L 197.677 324.805 194.894 324.805 L 192.112 324.805 192.167 318.652 L 192.222 312.500 183.806 312.500 L 175.391 312.500 175.391 318.750 L 175.391 325.000 172.266 325.000 L 169.141 325.000 169.141 310.547 L 169.141 296.094 172.266 296.094 L 175.391 296.094 175.391 301.563 M229.274 300.106 C 230.228 302.304,231.485 305.156,232.068 306.445 C 233.927 310.560,239.923 324.005,240.124 324.512 C 240.270 324.879,239.499 325.000,237.010 325.000 L 233.703 325.000 232.513 322.168 L 231.323 319.336 223.208 319.336 L 215.094 319.336 213.919 322.168 L 212.744 325.000 209.487 325.000 L 206.230 325.000 206.773 323.926 C 207.421 322.644,207.481 322.513,212.521 311.328 C 214.699 306.494,217.106 301.089,217.869 299.316 L 219.257 296.094 223.398 296.103 L 227.539 296.111 229.274 300.106 M269.842 298.730 L 269.727 301.367 263.965 301.475 L 258.203 301.583 258.203 313.292 L 258.203 325.000 255.273 325.000 L 252.344 325.000 252.344 313.281 L 252.344 301.563 246.289 301.563 L 240.234 301.563 240.234 298.828 L 240.234 296.094 255.096 296.094 L 269.958 296.094 269.842 298.730 M220.633 307.324 L 218.054 313.477 223.143 313.586 C 225.942 313.646,228.301 313.626,228.385 313.542 C 228.522 313.406,224.240 303.011,223.508 301.703 C 223.318 301.363,222.286 303.380,220.633 307.324 " stroke="none" fill="#020f1c" fill-rule="evenodd"></path><path id="path3" d="M195.313 166.151 L 195.313 189.725 197.709 192.011 L 200.106 194.297 202.397 191.837 L 204.688 189.377 204.688 165.978 L 204.688 142.578 200.000 142.578 L 195.313 142.578 195.313 166.151 M155.541 185.449 C 156.616 188.601,161.016 197.660,162.300 199.364 C 162.869 200.119,164.960 199.499,172.171 196.435 L 173.833 195.729 172.620 193.274 L 171.406 190.820 168.027 189.758 C 164.240 188.568,159.568 186.044,156.690 183.635 C 154.175 181.529,154.194 181.498,155.541 185.449 M242.578 184.020 C 239.496 186.350,235.193 188.626,231.230 190.022 C 228.367 191.031,228.243 191.129,227.037 193.323 L 225.794 195.584 226.862 196.090 C 227.449 196.369,229.863 197.366,232.227 198.306 L 236.523 200.015 237.414 198.933 C 239.156 196.817,245.730 182.699,245.210 182.191 C 245.159 182.141,243.975 182.964,242.578 184.020 M183.008 188.300 C 181.504 188.939,179.969 189.592,179.597 189.751 C 178.874 190.059,181.149 195.518,186.431 206.152 C 189.221 211.770,189.081 211.717,182.199 204.561 L 176.442 198.576 172.419 200.331 L 168.396 202.086 169.595 203.485 C 178.078 213.376,188.321 220.320,196.387 221.647 L 197.656 221.855 197.656 209.523 L 197.656 197.190 195.605 195.375 C 194.478 194.377,192.031 192.109,190.169 190.335 C 186.314 186.663,186.640 186.756,183.008 188.300 M212.458 187.793 C 211.554 188.813,202.724 196.659,202.311 196.810 C 202.105 196.885,201.953 202.234,201.953 209.442 L 201.953 221.944 203.613 221.677 C 211.608 220.390,220.814 214.266,229.450 204.490 L 231.594 202.064 227.613 200.257 L 223.633 198.450 222.317 199.908 C 219.686 202.824,211.928 210.547,211.629 210.547 C 211.460 210.547,212.385 208.426,213.685 205.834 C 216.606 200.005,221.170 190.174,221.014 190.044 C 220.886 189.937,213.321 187.109,213.164 187.109 C 213.109 187.109,212.792 187.417,212.458 187.793 " stroke="none" fill="#878fa4" fill-rule="evenodd"></path><path id="path4" d="M111.864 247.363 C 101.096 257.416,97.873 260.148,96.777 260.152 L 95.703 260.156 95.703 251.953 L 95.703 243.750 91.797 243.750 L 87.891 243.750 87.891 262.305 L 87.891 280.859 91.797 280.859 L 95.703 280.859 95.703 272.461 L 95.703 264.063 96.634 264.063 C 97.253 264.063,98.658 265.076,100.833 267.091 C 102.631 268.757,106.840 272.526,110.188 275.467 L 116.274 280.814 121.419 280.934 C 124.249 281.001,126.550 280.967,126.533 280.859 C 126.497 280.631,115.359 270.479,109.749 265.562 L 105.890 262.180 112.546 256.187 C 116.207 252.892,120.723 248.845,122.581 247.195 C 127.074 243.205,127.130 243.359,121.195 243.359 L 116.153 243.359 111.864 247.363 M132.975 243.717 C 132.626 244.067,132.841 266.357,133.217 268.750 C 134.780 278.708,144.448 283.651,157.603 281.220 C 168.138 279.272,170.253 275.012,170.302 255.633 L 170.333 243.414 166.636 243.485 L 162.939 243.556 162.760 256.055 C 162.574 269.085,162.415 270.386,160.786 272.215 C 157.842 275.520,147.390 275.965,143.324 272.959 C 140.938 271.195,140.839 270.592,140.625 256.511 L 140.430 243.686 136.784 243.620 C 134.778 243.584,133.064 243.628,132.975 243.717 M179.372 257.016 L 179.492 270.508 180.699 273.047 C 183.626 279.203,188.546 281.618,198.186 281.634 C 206.935 281.648,212.204 278.963,214.999 273.066 L 216.211 270.508 216.333 257.031 L 216.456 243.555 212.622 243.630 L 208.789 243.706 208.594 256.981 C 208.377 271.737,208.457 271.308,205.555 273.284 C 201.862 275.799,192.190 275.403,189.209 272.614 C 187.325 270.852,187.314 270.775,187.109 256.884 L 186.914 243.651 183.083 243.588 L 179.252 243.525 179.372 257.016 M235.999 243.959 C 227.587 245.785,223.244 253.183,223.968 264.453 C 224.498 272.697,226.705 276.833,232.031 279.563 L 234.180 280.664 248.340 280.784 L 262.500 280.904 262.500 269.944 L 262.500 258.984 253.125 258.984 L 243.750 258.984 243.750 262.500 L 243.750 266.016 249.414 266.016 L 255.078 266.016 255.078 270.117 L 255.078 274.219 246.554 274.219 L 238.031 274.219 235.910 273.145 C 232.261 271.296,230.774 265.841,232.001 258.801 C 233.353 251.032,234.806 250.391,251.047 250.391 L 262.500 250.391 262.500 246.875 L 262.500 243.359 250.488 243.390 C 241.852 243.413,237.780 243.573,235.999 243.959 M287.515 244.112 C 287.176 244.746,273.602 275.131,271.840 279.199 L 271.122 280.859 275.112 280.854 L 279.102 280.848 280.492 277.436 L 281.882 274.023 292.190 274.023 L 302.498 274.023 303.928 277.344 L 305.358 280.664 309.545 280.775 C 313.581 280.882,313.724 280.858,313.485 280.104 C 313.348 279.674,309.656 271.274,305.280 261.438 L 297.324 243.555 292.609 243.480 C 288.414 243.414,287.852 243.483,287.515 244.112 M295.697 258.398 C 296.955 261.406,298.264 264.526,298.607 265.332 L 299.229 266.797 292.145 266.797 C 286.544 266.797,285.137 266.695,285.425 266.309 C 285.625 266.040,287.259 262.342,289.056 258.091 L 292.324 250.361 292.867 251.645 C 293.166 252.352,294.439 255.391,295.697 258.398 M140.515 296.520 C 130.149 298.961,128.135 318.759,137.769 323.503 L 140.412 324.805 149.894 324.942 L 159.375 325.080 159.375 322.339 L 159.375 319.597 150.879 319.467 C 139.155 319.286,138.086 318.573,138.086 310.938 C 138.087 302.817,139.848 301.563,151.255 301.563 L 158.984 301.563 158.984 298.828 L 158.984 296.094 150.488 296.133 C 145.815 296.155,141.327 296.329,140.515 296.520 M169.141 310.547 L 169.141 325.000 172.266 325.000 L 175.391 325.000 175.391 318.750 L 175.391 312.500 183.806 312.500 L 192.222 312.500 192.167 318.652 L 192.112 324.805 194.894 324.805 L 197.677 324.805 197.677 310.547 L 197.677 296.289 194.890 296.289 L 192.103 296.289 192.164 301.660 L 192.225 307.031 183.808 307.031 L 175.391 307.031 175.391 301.563 L 175.391 296.094 172.266 296.094 L 169.141 296.094 169.141 310.547 M217.869 299.316 C 217.106 301.089,214.699 306.494,212.521 311.328 C 207.481 322.513,207.421 322.644,206.773 323.926 L 206.230 325.000 209.487 325.000 L 212.744 325.000 213.919 322.168 L 215.094 319.336 223.208 319.336 L 231.323 319.336 232.513 322.168 L 233.703 325.000 237.010 325.000 C 239.499 325.000,240.270 324.879,240.124 324.512 C 239.923 324.005,233.927 310.560,232.068 306.445 C 231.485 305.156,230.228 302.304,229.274 300.106 L 227.539 296.111 223.398 296.103 L 219.257 296.094 217.869 299.316 M240.234 298.828 L 240.234 301.563 246.289 301.563 L 252.344 301.563 252.344 313.281 L 252.344 325.000 255.273 325.000 L 258.203 325.000 258.203 313.292 L 258.203 301.583 263.965 301.475 L 269.727 301.367 269.842 298.730 L 269.958 296.094 255.096 296.094 L 240.234 296.094 240.234 298.828 M226.172 307.812 C 227.473 310.879,228.469 313.458,228.385 313.542 C 228.301 313.626,225.942 313.646,223.143 313.586 L 218.054 313.477 220.633 307.324 C 222.286 303.380,223.318 301.363,223.508 301.703 C 223.672 301.995,224.870 304.744,226.172 307.812 " stroke="none" fill="#008ee1" fill-rule="evenodd"></path></g></svg>