<?xml version="1.0" encoding="UTF-8"?>
<svg version="1.1" xmlns="http://www.w3.org/2000/svg" width="280" height="131">
<path d="M0 0 C1.134375 0.020625 2.26875 0.04125 3.4375 0.0625 C3.9325 1.0525 3.9325 1.0525 4.4375 2.0625 C6.46213255 2.71463292 6.46213255 2.71463292 8.4375 3.0625 C8.4375 2.4025 8.4375 1.7425 8.4375 1.0625 C7.4475 0.7325 6.4575 0.4025 5.4375 0.0625 C10.69803037 -0.25313182 13.88323816 0.39659063 18.4375 3.0625 C18.4375 3.7225 18.4375 4.3825 18.4375 5.0625 C19.11554688 5.23265625 19.79359375 5.4028125 20.4921875 5.578125 C38.46220001 10.25729723 38.46220001 10.25729723 44.4375 17.0625 C45.5116666 17.90761637 46.59532304 18.74079139 47.6875 19.5625 C50.4375 22.0625 50.4375 22.0625 51.625 24.5625 C51.4375 27.0625 51.4375 27.0625 49.44921875 29.65234375 C45.56747533 32.75874542 42.90118691 32.96850401 38.0625 33.125 C37.33289063 33.18365234 36.60328125 33.24230469 35.8515625 33.30273438 C30.21884908 33.57934084 27.09456807 32.20202742 22.4375 29.0625 C22.4375 28.4025 22.4375 27.7425 22.4375 27.0625 C17.13655784 25.25945845 11.83441512 23.55526376 6.4375 22.0625 C6.39625 22.64 6.355 23.2175 6.3125 23.8125 C5.01489692 27.14919365 2.36074967 28.13439916 -0.5625 30.0625 C-0.5625 31.0525 -0.5625 32.0425 -0.5625 33.0625 C0.87390171 33.25823608 2.31169504 33.44377816 3.75 33.625 C4.55050781 33.72941406 5.35101563 33.83382812 6.17578125 33.94140625 C8.60567116 34.21005178 8.60567116 34.21005178 11.4375 33.0625 C16.63594106 32.55755588 21.77295228 32.29978389 26.5625 34.625 C30.2832807 37.77957494 30.0276098 39.28024729 30.4375 44.0625 C30.57784653 46.93058274 30.62451629 49.79278118 30.640625 52.6640625 C30.64632507 53.46355316 30.65202515 54.26304382 30.65789795 55.08676147 C30.66728845 56.76583556 30.67385805 58.44492757 30.67773438 60.12402344 C30.68749875 62.68717193 30.71860076 65.24953712 30.75 67.8125 C30.75652588 69.45051611 30.76177798 71.0885379 30.765625 72.7265625 C30.7779718 73.48812653 30.7903186 74.24969055 30.80303955 75.03433228 C30.78413041 79.5569811 30.25946012 82.47889621 27.4375 86.0625 C25.24609375 87.2421875 25.24609375 87.2421875 22.875 87.9375 C21.69744141 88.30488281 21.69744141 88.30488281 20.49609375 88.6796875 C18.4375 89.0625 18.4375 89.0625 16.4375 88.0625 C14.92814528 87.96709654 13.41470917 87.93176513 11.90234375 87.9296875 C11.01095703 87.92839844 10.11957031 87.92710938 9.20117188 87.92578125 C8.26853516 87.92964844 7.33589844 87.93351562 6.375 87.9375 C4.97024414 87.93169922 4.97024414 87.93169922 3.53710938 87.92578125 C2.64701172 87.92707031 1.75691406 87.92835937 0.83984375 87.9296875 C-0.39004272 87.93137939 -0.39004272 87.93137939 -1.64477539 87.93310547 C-3.57114767 87.85184756 -3.57114767 87.85184756 -4.5625 89.0625 C-6.16298202 89.18785652 -7.76965928 89.23824787 -9.375 89.25 C-10.24769531 89.26417969 -11.12039062 89.27835937 -12.01953125 89.29296875 C-14.73820266 89.0465761 -16.28631213 88.54868774 -18.5625 87.0625 C-19.2225 86.0725 -19.8825 85.0825 -20.5625 84.0625 C-21.2225 85.3825 -21.8825 86.7025 -22.5625 88.0625 C-19.5925 88.5575 -19.5925 88.5575 -16.5625 89.0625 C-16.2325 90.0525 -15.9025 91.0425 -15.5625 92.0625 C-13.03428173 93.05655432 -13.03428173 93.05655432 -10.0625 93.6875 C-4.63707627 94.98792373 -4.63707627 94.98792373 -3.5625 96.0625 C-1.80923544 95.99778218 -0.05843546 95.86022624 1.6875 95.6875 C2.64140625 95.59726563 3.5953125 95.50703125 4.578125 95.4140625 C7.42695591 95.12231687 7.42695591 95.12231687 10.109375 94.3984375 C12.4375 94.0625 12.4375 94.0625 15.4375 96.0625 C16.4275 95.7325 17.4175 95.4025 18.4375 95.0625 C18.4375 96.0525 18.4375 97.0425 18.4375 98.0625 C19.4275 98.0625 20.4175 98.0625 21.4375 98.0625 C21.4375 97.0725 21.4375 96.0825 21.4375 95.0625 C22.0975 95.0625 22.7575 95.0625 23.4375 95.0625 C23.4375 95.7225 23.4375 96.3825 23.4375 97.0625 C30.57169658 95.60323252 36.28675925 91.8398022 42.4375 88.0625 C41.365 87.85625 40.2925 87.65 39.1875 87.4375 C34.54165032 85.73402178 33.69743468 84.40569694 31.4375 80.0625 C30.88959907 77.15577177 30.87566367 74.32680878 30.90625 71.375 C30.9024231 70.55427002 30.89859619 69.73354004 30.89465332 68.88793945 C30.89194235 67.15998094 30.89924636 65.43198083 30.91601562 63.70410156 C30.93743879 61.0700265 30.91618818 58.43867846 30.890625 55.8046875 C30.89326842 54.11978569 30.89839371 52.43488557 30.90625 50.75 C30.89815308 49.96858643 30.89005615 49.18717285 30.88171387 48.38208008 C30.96983388 43.20355156 31.94552539 40.12854128 35.4375 36.0625 C38.375 35.3125 38.375 35.3125 41.4375 35.0625 C42.58798828 34.56556641 42.58798828 34.56556641 43.76171875 34.05859375 C50.49797645 31.55093577 58.4940442 33.0144312 65.4375 34.0625 C71.53161537 34.33033693 71.53161537 34.33033693 77.4375 33.0625 C80.87278282 34.28147132 83.20045536 36.20833959 85.4375 39.0625 C86.1875 42.8125 86.1875 42.8125 86.4375 46.0625 C85.7775 46.0625 85.1175 46.0625 84.4375 46.0625 C84.6540625 47.17431641 84.6540625 47.17431641 84.875 48.30859375 C87.07288379 60.77853163 87.830938 73.7309887 84.4375 86.0625 C87.4075 85.5675 87.4075 85.5675 90.4375 85.0625 C89.7775 84.0725 89.1175 83.0825 88.4375 82.0625 C88.22631836 79.99365234 88.22631836 79.99365234 88.27734375 77.6484375 C88.2937793 76.38386719 88.2937793 76.38386719 88.31054688 75.09375 C88.33181641 74.2171875 88.35308594 73.340625 88.375 72.4375 C88.40928346 70.69539242 88.43945806 68.95319745 88.46484375 67.2109375 C88.48281006 66.43927246 88.50077637 65.66760742 88.51928711 64.87255859 C88.6403958 63.04057309 88.6403958 63.04057309 87.4375 62.0625 C87.10281471 59.03169168 87.11237481 55.98439759 87.0625 52.9375 C87.00642578 51.67292969 87.00642578 51.67292969 86.94921875 50.3828125 C86.86240644 44.17090907 88.14048594 40.57112424 92.4375 36.0625 C94.82336103 33.71949875 95.86863743 33.13008763 99.19921875 32.734375 C100.16472656 32.76015625 101.13023437 32.7859375 102.125 32.8125 C103.09824219 32.82796875 104.07148438 32.8434375 105.07421875 32.859375 C107.4375 33.0625 107.4375 33.0625 108.4375 34.0625 C109.91398876 34.16073996 111.39525417 34.19223519 112.875 34.1875 C113.67808594 34.19007812 114.48117188 34.19265625 115.30859375 34.1953125 C117.49147931 34.19828326 117.49147931 34.19828326 119.4375 33.0625 C127.15834066 32.35323642 133.65352502 32.08569948 140.08203125 36.7734375 C143.63464771 40.15200647 142.84322172 45.29917829 143.0625 49.875 C143.1140625 50.77798828 143.165625 51.68097656 143.21875 52.61132812 C143.43745676 56.9886796 143.4142058 60.77091391 142.4375 65.0625 C142.44287229 67.2087311 142.48670851 69.35510083 142.5625 71.5 C142.58617692 78.50047474 141.4974286 81.75734181 136.8125 87 C131.2828659 90.65537917 124.01070293 88.84233703 117.75097656 88.24121094 C113.95888554 87.94828031 110.17615546 87.96691659 106.375 88 C105.33001343 88.00640503 105.33001343 88.00640503 104.26391602 88.01293945 C102.65507094 88.02498385 101.04627214 88.04301285 99.4375 88.0625 C102.0775 89.0525 104.7175 90.0425 107.4375 91.0625 C107.1075 92.0525 106.7775 93.0425 106.4375 94.0625 C108.9125 93.5675 108.9125 93.5675 111.4375 93.0625 C111.4375 94.0525 111.4375 95.0425 111.4375 96.0625 C112.0975 95.5675 112.7575 95.0725 113.4375 94.5625 C117.40383241 92.57933379 120.04053262 92.83892539 124.4375 93.0625 C124.4375 92.4025 124.4375 91.7425 124.4375 91.0625 C127.0775 91.0625 129.7175 91.0625 132.4375 91.0625 C132.7675 92.0525 133.0975 93.0425 133.4375 94.0625 C132.73753906 94.1965625 132.03757813 94.330625 131.31640625 94.46875 C128.3121035 95.08836197 125.34884009 95.81058089 122.375 96.5625 C121.35277344 96.8203125 120.33054688 97.078125 119.27734375 97.34375 C118.34019531 97.5809375 117.40304688 97.818125 116.4375 98.0625 C115.10429597 98.3963501 113.77102123 98.72991917 112.4375 99.0625 C112.4375 100.0525 112.4375 101.0425 112.4375 102.0625 C111.7775 102.0625 111.1175 102.0625 110.4375 102.0625 C110.4375 102.7225 110.4375 103.3825 110.4375 104.0625 C107.7975 103.7325 105.1575 103.4025 102.4375 103.0625 C101.7775 101.4125 101.1175 99.7625 100.4375 98.0625 C99.4475 98.0625 98.4575 98.0625 97.4375 98.0625 C96.7775 96.0825 96.1175 94.1025 95.4375 92.0625 C87.70861181 90.10846958 80.38707992 89.83821718 72.4375 90.0625 C72.4375 90.7225 72.4375 91.3825 72.4375 92.0625 C64.9375 93.5625 64.9375 93.5625 57.4375 95.0625 C57.4375 96.0525 57.4375 97.0425 57.4375 98.0625 C54.7975 98.0625 52.1575 98.0625 49.4375 98.0625 C49.4375 98.7225 49.4375 99.3825 49.4375 100.0625 C48.7775 100.0625 48.1175 100.0625 47.4375 100.0625 C47.4375 99.4025 47.4375 98.7425 47.4375 98.0625 C45.4575 98.3925 43.4775 98.7225 41.4375 99.0625 C40.9425 101.0425 40.9425 101.0425 40.4375 103.0625 C38.1275 102.7325 35.8175 102.4025 33.4375 102.0625 C33.4375 102.7225 33.4375 103.3825 33.4375 104.0625 C31.70893541 104.5438341 29.97961929 105.02246971 28.25 105.5 C27.28707031 105.76683594 26.32414062 106.03367187 25.33203125 106.30859375 C15.53476367 108.86037869 4.45782971 111.26697254 -5.5625 109.0625 C-5.8925 108.7325 -6.2225 108.4025 -6.5625 108.0625 C-7.90997084 107.83174918 -9.26627565 107.65096937 -10.625 107.5 C-11.924375 107.355625 -13.22375 107.21125 -14.5625 107.0625 C-14.5625 107.7225 -14.5625 108.3825 -14.5625 109.0625 C-19.92926476 108.60768943 -22.98702746 107.96401917 -27.5625 105.0625 C-29.9189954 104.31215293 -32.28030308 103.63347568 -34.671875 103.00390625 C-35.29578125 102.69324219 -35.9196875 102.38257812 -36.5625 102.0625 C-36.8925 100.7425 -37.2225 99.4225 -37.5625 98.0625 C-40.5325 97.7325 -43.5025 97.4025 -46.5625 97.0625 C-46.8925 96.0725 -47.2225 95.0825 -47.5625 94.0625 C-48.53019858 93.0312098 -49.53462096 92.0338211 -50.5625 91.0625 C-55.1877329 85.87349493 -57.44127111 82.09377584 -57.5625 75.0625 C-57.0675 74.0725 -57.0675 74.0725 -56.5625 73.0625 C-57.2225 73.0625 -57.8825 73.0625 -58.5625 73.0625 C-58.8925 71.7425 -59.2225 70.4225 -59.5625 69.0625 C-57.5825 69.7225 -55.6025 70.3825 -53.5625 71.0625 C-53.33640663 68.93885519 -53.33640663 68.93885519 -55.0625 67.4375 C-55.5575 66.98375 -56.0525 66.53 -56.5625 66.0625 C-57.0575 67.0525 -57.0575 67.0525 -57.5625 68.0625 C-58.2225 68.0625 -58.8825 68.0625 -59.5625 68.0625 C-60.85121613 61.94109839 -61.25893949 55.46731531 -60 49.3125 C-59.43117844 46.38713196 -60.06545151 43.98265989 -60.5625 41.0625 C-60.125 38.6875 -60.125 38.6875 -59.5625 37.0625 C-57.2525 36.4025 -54.9425 35.7425 -52.5625 35.0625 C-52.5625 33.7425 -52.5625 32.4225 -52.5625 31.0625 C-53.5525 31.0625 -54.5425 31.0625 -55.5625 31.0625 C-54.8125 24.4375 -54.8125 24.4375 -52.5625 21.0625 C-49.4375 19.875 -49.4375 19.875 -46.5625 19.0625 C-46.5625 18.4025 -46.5625 17.7425 -46.5625 17.0625 C-44.9125 16.4025 -43.2625 15.7425 -41.5625 15.0625 C-41.5625 14.4025 -41.5625 13.7425 -41.5625 13.0625 C-38.38636419 10.80907558 -34.95115989 8.97693927 -31.5625 7.0625 C-30.5725 6.464375 -29.5825 5.86625 -28.5625 5.25 C-25.0778508 3.87065969 -22.0201484 3.58527701 -18.3046875 3.30859375 C-12.07513945 2.74953175 -5.80393265 0.10182338 0 0 Z M-2.5625 3.0625 C-4.5425 4.0525 -4.5425 4.0525 -6.5625 5.0625 C-4.9125 5.0625 -3.2625 5.0625 -1.5625 5.0625 C-1.8925 4.4025 -2.2225 3.7425 -2.5625 3.0625 Z M-56.5625 50.0625 C-55.5625 52.0625 -55.5625 52.0625 -55.5625 52.0625 Z M-57.5625 53.0625 C-58.91868499 54.18784105 -58.91868499 54.18784105 -58.625 57.125 C-58.604375 58.094375 -58.58375 59.06375 -58.5625 60.0625 C-56.25578085 57.34700846 -56.25578085 57.34700846 -56.9375 54.875 C-57.14375 54.276875 -57.35 53.67875 -57.5625 53.0625 Z M-51.5625 74.0625 C-51.50249894 75.6885287 -51.4137115 77.31351549 -51.3125 78.9375 C-51.26609375 79.84242187 -51.2196875 80.74734375 -51.171875 81.6796875 C-50.81495861 84.21383525 -50.81495861 84.21383525 -48.625 85.28125 C-47.6040625 85.66796875 -47.6040625 85.66796875 -46.5625 86.0625 C-44.8125 87.6875 -44.8125 87.6875 -43.5625 89.0625 C-43.8925 87.4125 -44.2225 85.7625 -44.5625 84.0625 C-45.2225 84.0625 -45.8825 84.0625 -46.5625 84.0625 C-46.2325 83.0725 -45.9025 82.0825 -45.5625 81.0625 C-46.036875 80.65 -46.51125 80.2375 -47 79.8125 C-48.72516518 77.880315 -49.12834875 76.58057725 -49.5625 74.0625 C-50.2225 74.0625 -50.8825 74.0625 -51.5625 74.0625 Z " fill="#0B0B0B" transform="translate(71.5625,10.9375)"/>
<path d="M0 0 C2.05859375 0.05859375 2.05859375 0.05859375 4.4375 0.4375 C7.60585075 0.93337038 8.87121138 1.04292954 12 0 C17.19844106 -0.50494412 22.33545228 -0.76271611 27.125 1.5625 C30.8457807 4.71707494 30.5901098 6.21774729 31 11 C31.14034653 13.86808274 31.18701629 16.73028118 31.203125 19.6015625 C31.20882507 20.40105316 31.21452515 21.20054382 31.22039795 22.02426147 C31.22978845 23.70333556 31.23635805 25.38242757 31.24023438 27.06152344 C31.24999875 29.62467193 31.28110076 32.18703712 31.3125 34.75 C31.31902588 36.38801611 31.32427798 38.0260379 31.328125 39.6640625 C31.3404718 40.42562653 31.3528186 41.18719055 31.36553955 41.97183228 C31.34663041 46.4944811 30.82196012 49.41639621 28 53 C25.80859375 54.1796875 25.80859375 54.1796875 23.4375 54.875 C22.65246094 55.11992188 21.86742187 55.36484375 21.05859375 55.6171875 C19 56 19 56 17 55 C15.49064528 54.90459654 13.97720917 54.86926513 12.46484375 54.8671875 C11.57345703 54.86589844 10.68207031 54.86460938 9.76367188 54.86328125 C8.83103516 54.86714844 7.89839844 54.87101562 6.9375 54.875 C6.00099609 54.87113281 5.06449219 54.86726563 4.09960938 54.86328125 C3.20951172 54.86457031 2.31941406 54.86585937 1.40234375 54.8671875 C0.17245728 54.86887939 0.17245728 54.86887939 -1.08227539 54.87060547 C-3.00864767 54.78934756 -3.00864767 54.78934756 -4 56 C-5.60048202 56.12535652 -7.20715928 56.17574787 -8.8125 56.1875 C-9.68519531 56.20167969 -10.55789062 56.21585938 -11.45703125 56.23046875 C-14.17570266 55.9840761 -15.72381213 55.48618774 -18 54 C-18.66 53.01 -19.32 52.02 -20 51 C-20.99 53.475 -20.99 53.475 -22 56 C-22.99 55.01 -23.98 54.02 -25 53 C-24.67 52.34 -24.34 51.68 -24 51 C-24.59742124 48.38119246 -24.59742124 48.38119246 -26 46 C-27.98045559 45.33820153 -27.98045559 45.33820153 -30 45 C-32 42 -32 42 -32 38 C-31.01 37.505 -31.01 37.505 -30 37 C-30 34.36 -30 31.72 -30 29 C-29.01 28.67 -28.02 28.34 -27 28 C-27.21011719 26.99195312 -27.42023437 25.98390625 -27.63671875 24.9453125 C-28.04312849 20.53161531 -27.35807625 17.99955831 -25.8125 13.875 C-25.38582031 12.69679688 -24.95914063 11.51859375 -24.51953125 10.3046875 C-22.93709314 6.8631897 -21.8511325 4.51182417 -19 2 C-16.09544253 1.45400504 -13.31276275 1.61779928 -10.375 1.8125 C-7.56849915 1.95468983 -4.8140683 2.01456557 -2 2 C-1.34 1.34 -0.68 0.68 0 0 Z " fill="#CB1313" transform="translate(71,44)"/>
<path d="M0 0 C1.78170784 -0.0166195 3.5633474 -0.04398774 5.34472656 -0.08203125 C7.9234445 -0.13673061 10.50061464 -0.15865311 13.07983398 -0.17333984 C13.87470718 -0.19600922 14.66958038 -0.21867859 15.48854065 -0.24203491 C19.396102 -0.22707324 21.18122716 -0.0549323 24.06274414 2.68505859 C27.82000134 9.16849514 27.89750046 15.45070745 27.79467773 22.72509766 C27.78678223 23.68520752 27.77888672 24.64531738 27.77075195 25.63452148 C27.69851919 31.77278068 27.53732252 37.90641028 27.23217773 44.03759766 C27.20148193 44.73739746 27.17078613 45.43719727 27.13916016 46.15820312 C26.92506784 49.7051321 26.62971832 51.31628678 24.60717773 54.35009766 C22.36499023 54.82666016 22.36499023 54.82666016 19.73217773 54.97509766 C16.54502319 55.17488943 13.69609517 55.56681389 10.60717773 56.35009766 C8.27518386 56.4291483 5.93885151 56.43808535 3.60717773 56.35009766 C3.11217773 55.85509766 3.11217773 55.85509766 2.60717773 55.35009766 C1.03027637 55.28729904 -0.54937132 55.29070881 -2.12719727 55.32275391 C-3.09399414 55.335 -4.06079102 55.34724609 -5.05688477 55.35986328 C-7.09862699 55.39475381 -9.14030354 55.43375246 -11.18188477 55.47705078 C-12.15383789 55.48800781 -13.12579102 55.49896484 -14.12719727 55.51025391 C-15.01632813 55.52709229 -15.90545898 55.54393066 -16.8215332 55.5612793 C-20.92490989 55.2242663 -23.45543559 54.44425084 -26.17382812 51.27124023 C-27.82149334 47.32284963 -27.87907737 43.85306897 -27.89672852 39.61181641 C-27.91170631 38.35241997 -27.91170631 38.35241997 -27.92698669 37.06758118 C-27.94213747 35.29502267 -27.94921343 33.52237905 -27.94873047 31.74975586 C-27.95527794 29.05583487 -28.00974518 26.36563036 -28.06665039 23.67236328 C-28.22175492 8.16136875 -28.22175492 8.16136875 -23.17382812 2.50561523 C-16.98724045 -1.50824624 -7.15507829 0.04894849 0 0 Z " fill="#CC1616" transform="translate(242.392822265625,43.64990234375)"/>
<path d="M0 0 C0.97324219 0.01546875 1.94648438 0.0309375 2.94921875 0.046875 C5.3125 0.25 5.3125 0.25 6.3125 1.25 C7.78898876 1.34823996 9.27025417 1.37973519 10.75 1.375 C11.55308594 1.37757812 12.35617188 1.38015625 13.18359375 1.3828125 C15.36647931 1.38578326 15.36647931 1.38578326 17.3125 0.25 C25.03334066 -0.45926358 31.52852502 -0.72680052 37.95703125 3.9609375 C41.50964771 7.33950647 40.71822172 12.48667829 40.9375 17.0625 C40.9890625 17.96548828 41.040625 18.86847656 41.09375 19.79882812 C41.31245676 24.1761796 41.2892058 27.95841391 40.3125 32.25 C40.31787229 34.3962311 40.36170851 36.54260083 40.4375 38.6875 C40.46622551 47.18067676 40.46622551 47.18067676 37.3125 51.25 C33.91481234 54.46533492 30.89895857 56.57924038 26.12133789 56.6340332 C24.59085991 56.55046476 23.06174987 56.43810737 21.53515625 56.30078125 C20.72380722 56.24931442 19.91245819 56.1978476 19.07652283 56.14482117 C16.50686015 55.97601528 13.94180506 55.76991616 11.375 55.5625 C9.62451959 55.44087813 7.8738667 55.3217122 6.12304688 55.20507812 C1.85034525 54.91509048 -2.4186314 54.59164907 -6.6875 54.25 C-7.0175 54.91 -7.3475 55.57 -7.6875 56.25 C-10.62747791 53.76232638 -12.45960898 52.07391369 -13.5 48.3125 C-13.91400517 43.28849134 -13.70979888 38.19899576 -13.625 33.1640625 C-13.34904958 30.35785647 -13.34904958 30.35785647 -14.6875 29.25 C-15.02218529 26.21919168 -15.01262519 23.17189759 -15.0625 20.125 C-15.11857422 18.86042969 -15.11857422 18.86042969 -15.17578125 17.5703125 C-15.26259356 11.35840907 -13.98451406 7.75862424 -9.6875 3.25 C-6.53869643 0.15776176 -4.36156922 -0.1164638 0 0 Z " fill="#CB1212" transform="translate(173.6875,43.75)"/>
<path d="M0 0 C6.09411537 0.26783693 6.09411537 0.26783693 12 -1 C15.43528282 0.21897132 17.76295536 2.14583959 20 5 C20.75 8.75 20.75 8.75 21 12 C20.34 12 19.68 12 19 12 C19.144375 12.74121094 19.28875 13.48242188 19.4375 14.24609375 C21.57696449 26.38458325 22.48014095 39.03701548 19 51 C13.48563969 51.12532637 13.48563969 51.12532637 11.0625 50.5 C8.04138084 49.76760748 5.09345392 49.9405105 2 50 C2 50.66 2 51.32 2 52 C-0.33944732 54.36221567 -1.64312157 54.97340906 -4.98828125 55.22265625 C-6.63376953 55.14337891 -6.63376953 55.14337891 -8.3125 55.0625 C-13.77572581 54.90974923 -13.77572581 54.90974923 -19.0625 56.0625 C-21.99135033 56.99723947 -23.19502601 57.1219896 -26 56 C-25.01 55.34 -24.02 54.68 -23 54 C-24.0725 53.79375 -25.145 53.5875 -26.25 53.375 C-30.89584968 51.67152178 -31.74006532 50.34319694 -34 46 C-34.54790093 43.09327177 -34.56183633 40.26430878 -34.53125 37.3125 C-34.5350769 36.49177002 -34.53890381 35.67104004 -34.54284668 34.82543945 C-34.54555765 33.09748094 -34.53825364 31.36948083 -34.52148438 29.64160156 C-34.50006121 27.0075265 -34.52131182 24.37617846 -34.546875 21.7421875 C-34.54423158 20.05728569 -34.53910629 18.37238557 -34.53125 16.6875 C-34.53934692 15.90608643 -34.54744385 15.12467285 -34.55578613 14.31958008 C-34.46766612 9.14105156 -33.49197461 6.06604128 -30 2 C-27.0625 1.25 -27.0625 1.25 -24 1 C-23.23300781 0.66871094 -22.46601562 0.33742187 -21.67578125 -0.00390625 C-14.93952355 -2.51156423 -6.9434558 -1.0480688 0 0 Z " fill="#CB1212" transform="translate(137,45)"/>
<path d="M0 0 C2.65403207 0.62702661 2.65403207 0.62702661 6.3046875 1.0390625 C9.22103349 1.50567786 10.84566051 2.24704901 13.4296875 3.5390625 C15.76216511 3.87833197 18.09554221 4.21146316 20.4296875 4.5390625 C23.3671875 5.6015625 23.3671875 5.6015625 25.4296875 6.5390625 C25.0996875 7.5290625 24.7696875 8.5190625 24.4296875 9.5390625 C26.0796875 9.2090625 27.7296875 8.8790625 29.4296875 8.5390625 C29.4296875 9.5290625 29.4296875 10.5190625 29.4296875 11.5390625 C30.4196875 10.7965625 30.4196875 10.7965625 31.4296875 10.0390625 C35.39601991 8.05589629 38.03272012 8.31548789 42.4296875 8.5390625 C42.4296875 7.8790625 42.4296875 7.2190625 42.4296875 6.5390625 C45.0696875 6.5390625 47.7096875 6.5390625 50.4296875 6.5390625 C50.7596875 7.5290625 51.0896875 8.5190625 51.4296875 9.5390625 C50.72972656 9.673125 50.02976563 9.8071875 49.30859375 9.9453125 C46.304291 10.56492447 43.34102759 11.28714339 40.3671875 12.0390625 C39.34496094 12.296875 38.32273438 12.5546875 37.26953125 12.8203125 C36.33238281 13.0575 35.39523438 13.2946875 34.4296875 13.5390625 C33.09648347 13.8729126 31.76320873 14.20648167 30.4296875 14.5390625 C30.4296875 15.5290625 30.4296875 16.5190625 30.4296875 17.5390625 C29.7696875 17.5390625 29.1096875 17.5390625 28.4296875 17.5390625 C28.4296875 18.1990625 28.4296875 18.8590625 28.4296875 19.5390625 C25.7896875 19.2090625 23.1496875 18.8790625 20.4296875 18.5390625 C19.4396875 16.0640625 19.4396875 16.0640625 18.4296875 13.5390625 C17.4396875 13.5390625 16.4496875 13.5390625 15.4296875 13.5390625 C14.4396875 10.5690625 14.4396875 10.5690625 13.4296875 7.5390625 C5.70079931 5.58503208 -1.62073258 5.31477968 -9.5703125 5.5390625 C-9.5703125 6.1990625 -9.5703125 6.8590625 -9.5703125 7.5390625 C-14.5703125 8.5390625 -19.5703125 9.5390625 -24.5703125 10.5390625 C-24.5703125 11.5290625 -24.5703125 12.5190625 -24.5703125 13.5390625 C-27.2103125 13.5390625 -29.8503125 13.5390625 -32.5703125 13.5390625 C-32.5703125 14.1990625 -32.5703125 14.8590625 -32.5703125 15.5390625 C-33.2303125 15.5390625 -33.8903125 15.5390625 -34.5703125 15.5390625 C-34.5703125 14.8790625 -34.5703125 14.2190625 -34.5703125 13.5390625 C-36.5503125 13.8690625 -38.5303125 14.1990625 -40.5703125 14.5390625 C-40.9003125 15.8590625 -41.2303125 17.1790625 -41.5703125 18.5390625 C-43.8803125 18.2090625 -46.1903125 17.8790625 -48.5703125 17.5390625 C-48.5703125 18.1990625 -48.5703125 18.8590625 -48.5703125 19.5390625 C-50.29887709 20.0203966 -52.02819321 20.49903221 -53.7578125 20.9765625 C-54.72074219 21.24339844 -55.68367188 21.51023437 -56.67578125 21.78515625 C-61.71995963 23.0989571 -66.78701007 23.92118325 -71.9453125 24.6640625 C-73.21117187 24.85226563 -74.47703125 25.04046875 -75.78125 25.234375 C-79.69714934 25.54926175 -82.73444895 25.24279974 -86.5703125 24.5390625 C-86.9003125 22.5590625 -87.2303125 20.5790625 -87.5703125 18.5390625 C-88.5190625 18.5803125 -89.4678125 18.6215625 -90.4453125 18.6640625 C-93.5703125 18.5390625 -93.5703125 18.5390625 -95.5703125 16.5390625 C-98.36185204 16.11177704 -98.36185204 16.11177704 -101.5078125 15.9765625 C-104.81502198 15.77965695 -107.41915414 15.58944862 -110.5703125 14.5390625 C-110.5703125 13.8790625 -110.5703125 13.2190625 -110.5703125 12.5390625 C-108.1953125 11.4765625 -108.1953125 11.4765625 -105.5703125 10.5390625 C-104.9103125 10.8690625 -104.2503125 11.1990625 -103.5703125 11.5390625 C-101.86328515 11.60902264 -100.15363247 11.62346404 -98.4453125 11.6015625 C-97.53523438 11.59253906 -96.62515625 11.58351563 -95.6875 11.57421875 C-94.98882812 11.56261719 -94.29015625 11.55101563 -93.5703125 11.5390625 C-94.2303125 11.2090625 -94.8903125 10.8790625 -95.5703125 10.5390625 C-95.5703125 9.8790625 -95.5703125 9.2190625 -95.5703125 8.5390625 C-94.09019879 8.84704576 -92.61123925 9.1605805 -91.1328125 9.4765625 C-90.30910156 9.65058594 -89.48539063 9.82460937 -88.63671875 10.00390625 C-86.5703125 10.5390625 -86.5703125 10.5390625 -85.5703125 11.5390625 C-83.81704794 11.47434468 -82.06624796 11.33678874 -80.3203125 11.1640625 C-79.36640625 11.07382813 -78.4125 10.98359375 -77.4296875 10.890625 C-74.58085659 10.59887937 -74.58085659 10.59887937 -71.8984375 9.875 C-69.5703125 9.5390625 -69.5703125 9.5390625 -66.5703125 11.5390625 C-65.5803125 11.2090625 -64.5903125 10.8790625 -63.5703125 10.5390625 C-63.5703125 11.5290625 -63.5703125 12.5190625 -63.5703125 13.5390625 C-62.5803125 13.5390625 -61.5903125 13.5390625 -60.5703125 13.5390625 C-60.5703125 12.5490625 -60.5703125 11.5590625 -60.5703125 10.5390625 C-59.9103125 10.5390625 -59.2503125 10.5390625 -58.5703125 10.5390625 C-58.5703125 11.1990625 -58.5703125 11.8590625 -58.5703125 12.5390625 C-54.67877383 11.58603262 -51.87896922 10.73042966 -48.4453125 8.6015625 C-40.27396334 3.73158432 -30.62166329 3.18182804 -21.34765625 3.62890625 C-18.4893835 3.53644454 -16.97802422 3.02295198 -14.5703125 1.5390625 C-14.5703125 0.8790625 -14.5703125 0.2190625 -14.5703125 -0.4609375 C-9.2662596 -1.61399248 -5.27713298 -1.20299384 0 0 Z " fill="#1F1F1F" transform="translate(153.5703125,95.4609375)"/>
<path d="M0 0 C2.475 0.495 2.475 0.495 5 1 C5 2.32 5 3.64 5 5 C7.64 5 10.28 5 13 5 C13.495 6.485 13.495 6.485 14 8 C12.35451172 8.09087891 12.35451172 8.09087891 10.67578125 8.18359375 C9.22134346 8.26804498 7.76691695 8.35269066 6.3125 8.4375 C5.59126953 8.47681641 4.87003906 8.51613281 4.12695312 8.55664062 C0.33292718 8.78185678 -3.28651492 9.12839305 -7 10 C-6.94779297 11.28970703 -6.94779297 11.28970703 -6.89453125 12.60546875 C-6.68289833 21.8467731 -6.70620586 32.05930879 -12 40 C-16.06232705 41.75418668 -19.58757356 42.4902696 -24 42 C-25.875 40.75 -25.875 40.75 -27 39 C-27 37.68 -27 36.36 -27 35 C-24.61435923 35.57584432 -22.33317216 36.22227595 -20 37 C-20 33.7 -20 30.4 -20 27 C-21.98 27.99 -21.98 27.99 -24 29 C-26.25 28.625 -26.25 28.625 -28 28 C-27.75 26.125 -27.75 26.125 -27 24 C-24.41847698 22.27898465 -23.15081975 22 -20 22 C-20 19.03 -20 16.06 -20 13 C-22.64 13.33 -25.28 13.66 -28 14 C-27.67 12.68 -27.34 11.36 -27 10 C-25.02 10 -23.04 10 -21 10 C-21 7.36 -21 4.72 -21 2 C-19.35 2 -17.7 2 -16 2 C-16 4.64 -16 7.28 -16 10 C-14.68 10 -13.36 10 -12 10 C-12 10.99 -12 11.98 -12 13 C-13.32 13.33 -14.64 13.66 -16 14 C-16.33 15.65 -16.66 17.3 -17 19 C-15.35 19 -13.7 19 -12 19 C-12 19.99 -12 20.98 -12 22 C-12.99 22.33 -13.98 22.66 -15 23 C-15 26.96 -15 30.92 -15 35 C-10.08317499 25.16634998 -9.38871218 17.70432896 -10 7 C-3.375 5 -3.375 5 0 5 C0 3.35 0 1.7 0 0 Z " fill="#F7DBDB" transform="translate(81,50)"/>
<path d="M0 0 C0 0.99 0 1.98 0 3 C1.093125 3.103125 2.18625 3.20625 3.3125 3.3125 C7 4 7 4 9 5.0625 C10.70165035 8.35944755 9.64478904 11.42435171 9 15 C10.98 15.33 12.96 15.66 15 16 C14.67 17.32 14.34 18.64 14 20 C10.37 20 6.74 20 3 20 C3.020625 21.11375 3.04125 22.2275 3.0625 23.375 C3 27 3 27 2 29 C1.34 29 0.68 29 0 29 C-0.33 26.36 -0.66 23.72 -1 21 C-4.63 20.67 -8.26 20.34 -12 20 C-11.95875 21.11375 -11.9175 22.2275 -11.875 23.375 C-12 27 -12 27 -14 29 C-14.66 25.37 -15.32 21.74 -16 18 C-16.66 18.33 -17.32 18.66 -18 19 C-18 22.96 -18 26.92 -18 31 C-16.35 30.67 -14.7 30.34 -13 30 C-13 31.65 -13 33.3 -13 35 C-15.31 35.66 -17.62 36.32 -20 37 C-22.29170985 33.36768518 -22.23717824 30.29418244 -22.1875 26.0625 C-22.18105469 24.85722656 -22.17460937 23.65195313 -22.16796875 22.41015625 C-22.02369792 19.48112291 -21.67498236 16.84572564 -21 14 C-18.69 14 -16.38 14 -14 14 C-13.67 14.99 -13.34 15.98 -13 17 C-12.34 16.67 -11.68 16.34 -11 16 C-7.39650411 15.8012778 -3.79483742 15.68140398 -0.1875 15.57421875 C3.05439951 15.35736561 3.05439951 15.35736561 4.4375 13.14453125 C5.12685634 10.88587265 5.12685634 10.88587265 5 8 C2.36 8 -0.28 8 -3 8 C-3.33 8.66 -3.66 9.32 -4 10 C-1.69 10 0.62 10 3 10 C3 10.99 3 11.98 3 13 C1.35425434 13.02688151 -0.29161413 13.04634123 -1.9375 13.0625 C-2.85402344 13.07410156 -3.77054688 13.08570313 -4.71484375 13.09765625 C-7 13 -7 13 -8 12 C-7.67742959 6.40877965 -6.63063003 0 0 0 Z " fill="#F7DBDB" transform="translate(194,50)"/>
<path d="M0 0 C0.66 0 1.32 0 2 0 C3 2 4 4 5 6 C5.78375 5.95875 6.5675 5.9175 7.375 5.875 C10 6 10 6 12 8 C12 9.32 12 10.64 12 12 C10.35 12.66 8.7 13.32 7 14 C6.979375 15.27875 6.95875 16.5575 6.9375 17.875 C6.92589844 18.59429687 6.91429688 19.31359375 6.90234375 20.0546875 C6.87350758 22.08185404 6.87350758 22.08185404 8 24 C10.87848076 24.39464384 10.87848076 24.39464384 14.25 24.5 C20.47864733 24.78183925 20.47864733 24.78183925 23.37109375 25.9921875 C27.1406417 27.43727423 30.80667664 27.46382689 34.8125 27.625 C35.60076172 27.66367188 36.38902344 27.70234375 37.20117188 27.7421875 C39.1337538 27.83588844 41.06684376 27.91900779 43 28 C43 28.33 43 28.66 43 29 C40.69 29 38.38 29 36 29 C36 29.66 36 30.32 36 31 C33.66055268 33.36221567 32.35687843 33.97340906 29.01171875 34.22265625 C27.36623047 34.14337891 27.36623047 34.14337891 25.6875 34.0625 C20.22427419 33.90974923 20.22427419 33.90974923 14.9375 35.0625 C12.00864967 35.99723947 10.80497399 36.1219896 8 35 C8.99 34.34 9.98 33.68 11 33 C9.9275 32.79375 8.855 32.5875 7.75 32.375 C4.16485963 31.06044853 2.75566011 30.29305205 0.77636719 27.09521484 C-0.9813962 22.35146471 -0.39618436 17.10651311 -0.25 12.125 C-0.23195313 10.9596875 -0.21390625 9.794375 -0.1953125 8.59375 C-0.1483382 5.72831751 -0.08266293 2.86458832 0 0 Z " fill="#CC1C1C" transform="translate(103,66)"/>
<path d="M0 0 C0.33 0.33 0.66 0.66 1 1 C4.78919979 1.65915503 8.58179425 2.24744099 12.38671875 2.80664062 C13.18464844 2.93103516 13.98257813 3.05542969 14.8046875 3.18359375 C15.53671387 3.29243896 16.26874023 3.40128418 17.02294922 3.51342773 C19 4 19 4 22 6 C24.0492094 6.45139459 24.0492094 6.45139459 26.1875 6.625 C27.445625 6.74875 28.70375 6.8725 30 7 C29.01 7.99 28.02 8.98 27 10 C30.31562557 9.44739574 33.15062207 8.83174295 36 7 C36.33 6.01 36.66 5.02 37 4 C38.175625 4.04125 39.35125 4.0825 40.5625 4.125 C44.66511953 4.13944584 48.05912364 3.14643676 52 2 C54.33215844 1.92596322 56.66860788 1.90484114 59 2 C58.67 3.65 58.34 5.3 58 7 C55.69 6.67 53.38 6.34 51 6 C51 6.66 51 7.32 51 8 C49.27143541 8.4813341 47.54211929 8.95996971 45.8125 9.4375 C44.36810547 9.83775391 44.36810547 9.83775391 42.89453125 10.24609375 C37.85035287 11.5598946 32.78330243 12.38212075 27.625 13.125 C26.35914063 13.31320313 25.09328125 13.50140625 23.7890625 13.6953125 C19.87316316 14.01019925 16.83586355 13.70373724 13 13 C12.67 11.02 12.34 9.04 12 7 C10.576875 7.061875 10.576875 7.061875 9.125 7.125 C6 7 6 7 4 5 C1.20846046 4.57271454 1.20846046 4.57271454 -1.9375 4.4375 C-5.24470948 4.24059445 -7.84884164 4.05038612 -11 3 C-11 2.34 -11 1.68 -11 1 C-6.80117625 -1.79921583 -4.87872887 -0.86558093 0 0 Z " fill="#7C7C7C" transform="translate(54,107)"/>
<path d="M0 0 C2.33247761 0.33926947 4.66585471 0.67240066 7 1 C9.9375 2.0625 9.9375 2.0625 12 3 C11.67 3.99 11.34 4.98 11 6 C12.65 5.67 14.3 5.34 16 5 C16 5.99 16 6.98 16 8 C16.66 7.505 17.32 7.01 18 6.5 C21.96633241 4.51683379 24.60303262 4.77642539 29 5 C29 4.34 29 3.68 29 3 C31.64 3 34.28 3 37 3 C37.495 4.485 37.495 4.485 38 6 C37.30003906 6.1340625 36.60007813 6.268125 35.87890625 6.40625 C32.8746035 7.02586197 29.91134009 7.74808089 26.9375 8.5 C25.91527344 8.7578125 24.89304688 9.015625 23.83984375 9.28125 C22.90269531 9.5184375 21.96554688 9.755625 21 10 C19.66679597 10.3338501 18.33352123 10.66741917 17 11 C17 11.99 17 12.98 17 14 C16.34 14 15.68 14 15 14 C15 14.66 15 15.32 15 16 C12.36 15.67 9.72 15.34 7 15 C6.34 13.35 5.68 11.7 5 10 C4.01 10 3.02 10 2 10 C1.34 8.02 0.68 6.04 0 4 C-7.72888819 2.04596958 -15.05042008 1.77571718 -23 2 C-23 1.01 -23 0.02 -23 -1 C-14.9867288 -3.34204303 -7.57128163 -3.87797352 0 0 Z " fill="#131313" transform="translate(167,99)"/>
<path d="M0 0 C0.33 1.32 0.66 2.64 1 4 C1.66 4 2.32 4 3 4 C3.33 4.99 3.66 5.98 4 7 C5.32 6.67 6.64 6.34 8 6 C8 6.99 8 7.98 8 9 C7.34 9 6.68 9 6 9 C5.8453125 10.3921875 5.8453125 10.3921875 5.6875 11.8125 C4.96516098 15.16152638 4.40619812 15.8030365 2 18 C2 18.99 2 19.98 2 21 C2.99 20.34 3.98 19.68 5 19 C4.34 21.64 3.68 24.28 3 27 C2.34 27 1.68 27 1 27 C0.73919705 34.58342894 0.73919705 34.58342894 2 42 C3.95163118 43.43637698 3.95163118 43.43637698 6 44 C5.67 45.32 5.34 46.64 5 48 C5.66 48 6.32 48 7 48 C7 49.98 7 51.96 7 54 C7.66 54 8.32 54 9 54 C9.33 55.98 9.66 57.96 10 60 C9.34 60 8.68 60 8 60 C7.814375 59.071875 7.814375 59.071875 7.625 58.125 C7.12802644 55.80879168 7.12802644 55.80879168 5 54 C5 52.68 5 51.36 5 50 C4.34 50 3.68 50 3 50 C2.731875 49.236875 2.46375 48.47375 2.1875 47.6875 C1.05575888 45.12619116 0.08776599 43.80307062 -2 42 C-2.33 42.66 -2.66 43.32 -3 44 C-3.66 44 -4.32 44 -5 44 C-6.28871613 37.87859839 -6.69643949 31.40481531 -5.4375 25.25 C-4.86867844 22.32463196 -5.50295151 19.92015989 -6 17 C-5.5625 14.625 -5.5625 14.625 -5 13 C-2.69 12.34 -0.38 11.68 2 11 C2 9.68 2 8.36 2 7 C1.01 7 0.02 7 -1 7 C-0.67 4.69 -0.34 2.38 0 0 Z M-2 26 C-1 28 -1 28 -1 28 Z M-3 29 C-4.35618499 30.12534105 -4.35618499 30.12534105 -4.0625 33.0625 C-4.041875 34.031875 -4.02125 35.00125 -4 36 C-1.69328085 33.28450846 -1.69328085 33.28450846 -2.375 30.8125 C-2.58125 30.214375 -2.7875 29.61625 -3 29 Z " fill="#6D6D6D" transform="translate(17,35)"/>
<path d="M0 0 C0.33 0.99 0.66 1.98 1 3 C-3.95 3 -8.9 3 -14 3 C-13.67 3.66 -13.34 4.32 -13 5 C-12.92883618 7.37402501 -12.91590915 9.75000677 -12.9375 12.125 C-12.94652344 13.40632813 -12.95554687 14.68765625 -12.96484375 16.0078125 C-12.97644531 16.99523437 -12.98804687 17.98265625 -13 19 C-13.99 19.33 -14.98 19.66 -16 20 C-16.33 20.99 -16.66 21.98 -17 23 C-15.7625 22.773125 -14.525 22.54625 -13.25 22.3125 C-10.42157217 21.97649882 -9.19605955 21.92157618 -6.5 23 C-4.28745454 25.95006062 -4.73012447 28.42414928 -5 32 C-11.435 32.495 -11.435 32.495 -18 33 C-18 30.03 -18 27.06 -18 24 C-18.99 24 -19.98 24 -21 24 C-21.33 26.64 -21.66 29.28 -22 32 C-24 29 -24 29 -23.79296875 26.79296875 C-23.59316406 25.93316406 -23.39335938 25.07335937 -23.1875 24.1875 C-21.79659145 17.49319177 -21.37812456 10.81619278 -21 4 C-16.58970217 1.79050168 -12.51059676 1.7629352 -7.6875 1.875 C-6.94693359 1.88402344 -6.20636719 1.89304688 -5.44335938 1.90234375 C-3.62876533 1.92575787 -1.81433929 1.96162385 0 2 C0 1.34 0 0.68 0 0 Z " fill="#D12C2C" transform="translate(95,56)"/>
<path d="M0 0 C1.32 0 2.64 0 4 0 C4 2.64 4 5.28 4 8 C6.64 8 9.28 8 12 8 C12.33 9.32 12.66 10.64 13 12 C10.36 12.33 7.72 12.66 5 13 C5.05800781 14.15757813 5.11601562 15.31515625 5.17578125 16.5078125 C5.22270265 18.04683448 5.26820026 19.58590033 5.3125 21.125 C5.35439453 21.88554688 5.39628906 22.64609375 5.43945312 23.4296875 C5.52800404 27.53844973 5.29471582 30.20029427 2.6953125 33.48828125 C-0.66113623 36.61610231 -2.44039661 37.07999304 -7 37 C-10.3201606 35.68446467 -12.4805934 34.5194066 -15 32 C-15 31.01 -15 30.02 -15 29 C-13.68 29 -12.36 29 -11 29 C-10.67 29.66 -10.34 30.32 -10 31 C-5.9899066 31.17864631 -5.9899066 31.17864631 -2 31 C0.38392117 29.06029948 0.38392117 29.06029948 0.1953125 25.5234375 C0.18201493 24.14049032 0.15816232 22.75761346 0.125 21.375 C0.11597656 20.66859375 0.10695312 19.9621875 0.09765625 19.234375 C0.07407603 17.48943902 0.03820461 15.74467705 0 14 C-2.97 13.01 -5.94 12.02 -9 11 C-8.67 10.01 -8.34 9.02 -8 8 C-5.36 8 -2.72 8 0 8 C0 5.36 0 2.72 0 0 Z " fill="#F9E5E5" transform="translate(140,50)"/>
<path d="M0 0 C6.75 0.75 6.75 0.75 9 3 C9.56921087 10.17205692 9.56921087 10.17205692 7.625 13 C6 14 6 14 4 14 C4 15.65 4 17.3 4 19 C4.64066406 18.97679688 5.28132813 18.95359375 5.94140625 18.9296875 C6.80636719 18.91164063 7.67132813 18.89359375 8.5625 18.875 C9.83287109 18.84019531 9.83287109 18.84019531 11.12890625 18.8046875 C14 19 14 19 17.15625 20 C22.15602996 21.30075576 26.79905428 21.21631893 31.9375 21.125 C32.90751953 21.11597656 33.87753906 21.10695313 34.87695312 21.09765625 C37.25156407 21.07426107 39.62564776 21.04148176 42 21 C42.495 22.98 42.495 22.98 43 25 C39.27283309 26.86358345 34.7888931 26.18475292 30.6875 26.1875 C29.73681641 26.19974609 28.78613281 26.21199219 27.80664062 26.22460938 C22.9793199 26.23472954 19.44519182 26.0065102 15 24 C11.61757588 23.67998622 8.25816626 23.56059247 4.86328125 23.44140625 C3.91839844 23.29574219 2.97351563 23.15007812 2 23 C-0.32749345 19.50875983 -0.50299316 18.10777749 0 14 C1.875 11.625 1.875 11.625 4 10 C4.66 10 5.32 10 6 10 C5.37466625 7.47636012 5.37466625 7.47636012 4 5 C1.45224694 4.10613836 1.45224694 4.10613836 -1 4 C-0.67 2.68 -0.34 1.36 0 0 Z " fill="#F7E1E1" transform="translate(109,68)"/>
<path d="M0 0 C0.99 0 1.98 0 3 0 C3 1.98 3 3.96 3 6 C5.64 6 8.28 6 11 6 C11.33 6.99 11.66 7.98 12 9 C8.7 9 5.4 9 2 9 C2 10.65 2 12.3 2 14 C3.093125 14.103125 4.18625 14.20625 5.3125 14.3125 C9.89417708 15.16671098 9.89417708 15.16671098 12 18 C12.36328125 20.12109375 12.36328125 20.12109375 12.3125 22.4375 C12.30863281 23.19933594 12.30476563 23.96117188 12.30078125 24.74609375 C11.9739386 27.19529127 11.21954601 28.86700917 10 31 C7.20807795 31.05380578 4.4171859 31.09357669 1.625 31.125 C0.8309375 31.14175781 0.036875 31.15851563 -0.78125 31.17578125 C-2.85492015 31.19335473 -4.92883241 31.10335168 -7 31 C-7.66 30.34 -8.32 29.68 -9 29 C-8.9765625 26.6171875 -8.9765625 26.6171875 -8.625 23.875 C-8.51414062 22.96492188 -8.40328125 22.05484375 -8.2890625 21.1171875 C-8.19367188 20.41851562 -8.09828125 19.71984375 -8 19 C-7.01 19 -6.02 19 -5 19 C-5 21.97 -5 24.94 -5 28 C-4.01 27.67 -3.02 27.34 -2 27 C-0.27204648 26.93197033 1.45835365 26.91504355 3.1875 26.9375 C4.08855469 26.94652344 4.98960938 26.95554687 5.91796875 26.96484375 C6.60503906 26.97644531 7.29210937 26.98804687 8 27 C7.73606499 23.56769552 7.73606499 23.56769552 7 20 C3.91111478 17.94074319 3.29064073 17.7609626 -0.1875 17.875 C-1.445625 17.91625 -2.70375 17.9575 -4 18 C-3.67 16.68 -3.34 15.36 -3 14 C-2.01 14 -1.02 14 0 14 C0 9.38 0 4.76 0 0 Z " fill="#FAE8E8" transform="translate(82,61)"/>
<path d="M0 0 C-0.57344937 2.86724686 -0.8614515 3.8614515 -3 6 C-3.45847689 8.36030696 -3.82143131 10.7398174 -4.125 13.125 C-4.37636719 15.04699219 -4.37636719 15.04699219 -4.6328125 17.0078125 C-4.75398438 17.99523437 -4.87515625 18.98265625 -5 20 C-5.99 20.33 -6.98 20.66 -8 21 C-8 24.3 -8 27.6 -8 31 C-10.475 31.495 -10.475 31.495 -13 32 C-13 31.01 -13 30.02 -13 29 C-13.99 29 -14.98 29 -16 29 C-16 27.68 -16 26.36 -16 25 C-15.34 24.67 -14.68 24.34 -14 24 C-14.33 22.68 -14.66 21.36 -15 20 C-14.01 19.67 -13.02 19.34 -12 19 C-12.185625 18.401875 -12.37125 17.80375 -12.5625 17.1875 C-13 15 -13 15 -12 12 C-12.66 12 -13.32 12 -14 12 C-13.625 10.0625 -13.625 10.0625 -13 8 C-12.34 7.67 -11.68 7.34 -11 7 C-9.95499149 5.38004108 -9.95499149 5.38004108 -9 3.5 C-6.58096043 -1.11129417 -5.0027884 -1.18487094 0 0 Z " fill="#CDCDCD" transform="translate(47,42)"/>
<path d="M0 0 C1.875 2 1.875 2 3 4 C3.99 3.67 4.98 3.34 6 3 C5.34 4.98 4.68 6.96 4 9 C5.65 9 7.3 9 9 9 C9 10.32 9 11.64 9 13 C4.59085217 14.10228696 0.51617599 14.07654536 -4 14 C-4.309375 14.639375 -4.61875 15.27875 -4.9375 15.9375 C-6 18 -6 18 -7 19 C-8.66617115 19.04063832 -10.33388095 19.042721 -12 19 C-12 17.35 -12 15.7 -12 14 C-11.0409375 13.5978125 -11.0409375 13.5978125 -10.0625 13.1875 C-7.66868314 12.11332248 -7.66868314 12.11332248 -7 9 C-7.99 9 -8.98 9 -10 9 C-9.6875 5.625 -9.6875 5.625 -9 2 C-5.52957297 -0.31361802 -4.08165827 -0.51020728 0 0 Z " fill="#7B7B7B" transform="translate(241,24)"/>
<path d="M0 0 C0.33 0 0.66 0 1 0 C1.02475469 4.62646089 1.04288594 9.25288306 1.05493164 13.87939453 C1.05995437 15.45264355 1.06677375 17.02588792 1.07543945 18.59912109 C1.08759529 20.86296743 1.09324896 23.12675193 1.09765625 25.390625 C1.10281754 26.09181458 1.10797882 26.79300415 1.11329651 27.51544189 C1.11367502 30.82485751 1.02514727 33.83587763 0 37 C-2.8125 37.25 -2.8125 37.25 -6 37 C-7.875 35.25 -7.875 35.25 -9 33 C-9 31.68 -9 30.36 -9 29 C-8.34 28.67 -7.68 28.34 -7 28 C-7 25.36 -7 22.72 -7 20 C-6.01 19.67 -5.02 19.34 -4 19 C-4.37125 17.6078125 -4.37125 17.6078125 -4.75 16.1875 C-5.57346154 10.76823284 -3.1737662 5.86991032 -1 1 C-0.67 0.67 -0.34 0.34 0 0 Z " fill="#EAE0E0" transform="translate(48,53)"/>
<path d="M0 0 C-0.1875 2.3125 -0.1875 2.3125 -1 5 C-3.5625 6.8125 -3.5625 6.8125 -6 8 C-3.69 8.66 -1.38 9.32 1 10 C0.34 11.32 -0.32 12.64 -1 14 C-7.6 14 -14.2 14 -21 14 C-21 13.34 -21 12.68 -21 12 C-21.99 12.66 -22.98 13.32 -24 14 C-26.69921875 14.1953125 -26.69921875 14.1953125 -29.6875 14.125 C-31.17830078 14.09792969 -31.17830078 14.09792969 -32.69921875 14.0703125 C-33.45847656 14.04710937 -34.21773437 14.02390625 -35 14 C-34.67 12.35 -34.34 10.7 -34 9 C-27.2314676 8.89847201 -20.69675136 8.96973056 -14 10 C-13.67 9.01 -13.34 8.02 -13 7 C-12.01 7 -11.02 7 -10 7 C-9.7525 6.401875 -9.505 5.80375 -9.25 5.1875 C-6.83338246 0.9584193 -4.85302301 0 0 0 Z " fill="#888888" transform="translate(224,24)"/>
<path d="M0 0 C1.48011371 0.30798326 2.95907325 0.621518 4.4375 0.9375 C5.26121094 1.11152344 6.08492187 1.28554687 6.93359375 1.46484375 C9 2 9 2 10 3 C11.75326456 2.93528218 13.50406454 2.79772624 15.25 2.625 C16.20390625 2.53476563 17.1578125 2.44453125 18.140625 2.3515625 C20.98945591 2.05981687 20.98945591 2.05981687 23.671875 1.3359375 C26 1 26 1 29 3 C29.99 2.67 30.98 2.34 32 2 C32 2.99 32 3.98 32 5 C33.98 5 35.96 5 38 5 C37.360625 5.2475 36.72125 5.495 36.0625 5.75 C35.0415625 6.36875 35.0415625 6.36875 34 7 C33.855625 7.66 33.71125 8.32 33.5625 9 C33.2840625 9.99 33.2840625 9.99 33 11 C30.5 12.1875 30.5 12.1875 28 13 C27.67 13.33 27.34 13.66 27 14 C25.00041636 14.04080783 22.99954746 14.04254356 21 14 C21.99 13.01 22.98 12.02 24 11 C22.783125 10.71125 21.56625 10.4225 20.3125 10.125 C17.97578665 9.57052565 15.89059702 8.9524014 13.68359375 7.9921875 C9.26173892 6.35732414 4.64584591 6.10408168 -0.015625 5.5625 C-1.00046875 5.376875 -1.9853125 5.19125 -3 5 C-3.33 4.34 -3.66 3.68 -4 3 C-2.02 3 -0.04 3 2 3 C1.34 2.67 0.68 2.34 0 2 C0 1.34 0 0.68 0 0 Z " fill="#1D1D1D" transform="translate(58,104)"/>
<path d="M0 0 C0.66 0 1.32 0 2 0 C2.99 2.97 3.98 5.94 5 9 C5.33 7.02 5.66 5.04 6 3 C6.66 3.66 7.32 4.32 8 5 C8.9590625 5.2165625 8.9590625 5.2165625 9.9375 5.4375 C12.45829636 6.12498992 13.49807625 6.8656873 15 9 C14.625 10.9375 14.625 10.9375 14 13 C14.20882812 13.63550781 14.41765625 14.27101563 14.6328125 14.92578125 C15 17 15 17 13.890625 18.703125 C13.34921875 19.21359375 12.8078125 19.7240625 12.25 20.25 C11.71890625 20.77078125 11.1878125 21.2915625 10.640625 21.828125 C9 23 9 23 6 23 C6 21.35 6 19.7 6 18 C4.02 18.33 2.04 18.66 0 19 C0.33 18.34 0.66 17.68 1 17 C2.32 17 3.64 17 5 17 C4.67 15.68 4.34 14.36 4 13 C3.0409375 13.2784375 3.0409375 13.2784375 2.0625 13.5625 C1.381875 13.706875 0.70125 13.85125 0 14 C-1 13 -1 13 -1.1328125 10.3125 C-1.13023437 9.219375 -1.12765625 8.12625 -1.125 7 C-1.12757813 5.906875 -1.13015625 4.81375 -1.1328125 3.6875 C-1 1 -1 1 0 0 Z " fill="#D95151" transform="translate(176,68)"/>
<path d="M0 0 C3.625 0.125 3.625 0.125 6.625 1.125 C9.71806067 1.39230154 12.81068109 1.56951759 15.91015625 1.74609375 C18.625 2.125 18.625 2.125 20.625 4.125 C22.61321313 4.52264263 24.61444339 4.86275349 26.625 5.125 C27.12 8.095 27.12 8.095 27.625 11.125 C24.325 10.465 21.025 9.805 17.625 9.125 C17.625 9.785 17.625 10.445 17.625 11.125 C12.25823524 10.67018943 9.20047254 10.02651917 4.625 7.125 C1.65890051 6.01396951 -1.34774627 5.05494069 -4.375 4.125 C-4.375 -0.12037409 -4.29889136 0.1592182 0 0 Z " fill="#313131" transform="translate(39.375,108.875)"/>
<path d="M0 0 C2.475 0.495 2.475 0.495 5 1 C5 2.32 5 3.64 5 5 C7.64 5 10.28 5 13 5 C13.33 5.99 13.66 6.98 14 8 C12.35451172 8.09087891 12.35451172 8.09087891 10.67578125 8.18359375 C9.22134346 8.26804498 7.76691695 8.35269066 6.3125 8.4375 C5.59126953 8.47681641 4.87003906 8.51613281 4.12695312 8.55664062 C0.33292718 8.78185678 -3.28651492 9.12839305 -7 10 C-6.96519531 10.85980469 -6.93039063 11.71960938 -6.89453125 12.60546875 C-6.68289833 21.8467731 -6.70620586 32.05930879 -12 40 C-13.32 39.67 -14.64 39.34 -16 39 C-15.0256731 36.52907187 -14.03780214 34.08236451 -12.9296875 31.66796875 C-9.41666757 23.40586631 -9.60262912 15.79734976 -10 7 C-3.375 5 -3.375 5 0 5 C0 3.35 0 1.7 0 0 Z " fill="#FAE8E8" transform="translate(81,50)"/>
<path d="M0 0 C0.66 0 1.32 0 2 0 C2.33 0.66 2.66 1.32 3 2 C4.89533342 2.46523063 4.89533342 2.46523063 7.0625 2.625 C8.361875 2.74875 9.66125 2.8725 11 3 C11.33 4.32 11.66 5.64 12 7 C7.545 7.495 7.545 7.495 3 8 C2.67 9.32 2.34 10.64 2 12 C4.31 12 6.62 12 9 12 C9.33 13.65 9.66 15.3 10 17 C8.989375 16.855625 7.97875 16.71125 6.9375 16.5625 C0.32239365 15.72514477 -6.34725122 15.40713437 -13 15 C-13 14.01 -13 13.02 -13 12 C-12.01 12 -11.02 12 -10 12 C-10 10.68 -10 9.36 -10 8 C-8.68 8 -7.36 8 -6 8 C-6 8.99 -6 9.98 -6 11 C-4.35 10.67 -2.7 10.34 -1 10 C-1.33 9.01 -1.66 8.02 -2 7 C-3.65 6.67 -5.3 6.34 -7 6 C-7 5.34 -7 4.68 -7 4 C-5.02 4 -3.04 4 -1 4 C-0.67 2.68 -0.34 1.36 0 0 Z " fill="#F7DDDD" transform="translate(252,50)"/>
<path d="M0 0 C0.66 0 1.32 0 2 0 C2 0.99 2 1.98 2 3 C4.31 3 6.62 3 9 3 C9 2.01 9 1.02 9 0 C10.32 0.33 11.64 0.66 13 1 C13 1.99 13 2.98 13 4 C14.65 4 16.3 4 18 4 C18.33 4.99 18.66 5.98 19 7 C17.02 7 15.04 7 13 7 C13.020625 8.299375 13.04125 9.59875 13.0625 10.9375 C13.08399454 12.29165633 13.07148199 13.64756083 13 15 C12 16 12 16 8.9375 16.0625 C7.968125 16.041875 6.99875 16.02125 6 16 C6 15.34 6 14.68 6 14 C7.32 13.67 8.64 13.34 10 13 C9.67 11.02 9.34 9.04 9 7 C7.02 7 5.04 7 3 7 C2.67 9.31 2.34 11.62 2 14 C2.66 14 3.32 14 4 14 C4 14.66 4 15.32 4 16 C2.35 15.67 0.7 15.34 -1 15 C-1 12.69 -1 10.38 -1 8 C-2.65 8 -4.3 8 -6 8 C-6 7.01 -6 6.02 -6 5 C-4.35 4.67 -2.7 4.34 -1 4 C-0.67 2.68 -0.34 1.36 0 0 Z " fill="#F9E3E3" transform="translate(240,67)"/>
<path d="M0 0 C0.33 0.33 0.66 0.66 1 1 C4.78919979 1.65915503 8.58179425 2.24744099 12.38671875 2.80664062 C13.18464844 2.93103516 13.98257813 3.05542969 14.8046875 3.18359375 C15.53671387 3.29243896 16.26874023 3.40128418 17.02294922 3.51342773 C19 4 19 4 22 6 C24.0492094 6.45139459 24.0492094 6.45139459 26.1875 6.625 C27.445625 6.74875 28.70375 6.8725 30 7 C27.16142577 9.83857423 23.86673652 9.90046025 20 10 C19.01 9.67 18.02 9.34 17 9 C16.34 10.32 15.68 11.64 15 13 C14.34 13 13.68 13 13 13 C12.67 11.02 12.34 9.04 12 7 C10.576875 7.061875 10.576875 7.061875 9.125 7.125 C6 7 6 7 4 5 C1.20846046 4.57271454 1.20846046 4.57271454 -1.9375 4.4375 C-5.24470948 4.24059445 -7.84884164 4.05038612 -11 3 C-11 2.34 -11 1.68 -11 1 C-6.80117625 -1.79921583 -4.87872887 -0.86558093 0 0 Z " fill="#F2F2F2" transform="translate(54,107)"/>
<path d="M0 0 C3.41922426 0.83581037 5.49527412 1.40825242 7.8125 4.125 C8.89461638 6.7448607 9.20676174 8.42365695 9.4375 11.1875 C9.623125 12.445625 9.80875 13.70375 10 15 C11.88600393 16.52845195 11.88600393 16.52845195 14 17 C14.33 17.33 14.66 17.66 15 18 C15 16.02 15 14.04 15 12 C16.5625 13 16.5625 13 18 15 C17.96726452 17.76614782 17.49404328 20.26030547 17 23 C15.35 23.66 13.7 24.32 12 25 C6.09652923 19.25560479 2.14589639 14.46199072 2 6 C2.33 5.34 2.66 4.68 3 4 C2.34 4 1.68 4 1 4 C0.67 2.68 0.34 1.36 0 0 Z " fill="#3D3D3D" transform="translate(12,80)"/>
<path d="M0 0 C2.375 1 2.375 1 4 2 C3.76509667 5.99335668 3.29297281 8.54100926 1.125 11.9375 C-3.45951924 14.9632827 -7.65871962 14.42094154 -13 14 C-13 12.68 -13 11.36 -13 10 C-10.69 10.33 -8.38 10.66 -6 11 C-6 10.34 -6 9.68 -6 9 C-6.99 8.67 -7.98 8.34 -9 8 C-9.22223194 5.25913944 -9.34781139 3.56036279 -7.875 1.1875 C-5.14462353 -0.54173843 -3.17232851 -0.32370699 0 0 Z M-6 3 C-5.67 3.66 -5.34 4.32 -5 5 C-4.67 4.34 -4.34 3.68 -4 3 C-4.66 3 -5.32 3 -6 3 Z " fill="#BABABA" transform="translate(152,24)"/>
<path d="M0 0 C2.69082872 0.17635452 5.32851446 0.61835921 8 1 C8 1.99 8 2.98 8 4 C6.02 4.33 4.04 4.66 2 5 C2.15855469 5.55300781 2.31710938 6.10601562 2.48046875 6.67578125 C4.30135618 14.82185658 3.09975632 21.81794513 -1 29 C-1.66 29.99 -2.32 30.98 -3 32 C-4.32 32 -5.64 32 -7 32 C-6.43643587 27.99084756 -5.19267746 25.46244938 -2.9375 22.125 C-0.30616887 17.89089164 0.83015227 15.08468264 0 10 C-0.66 9.01 -1.32 8.02 -2 7 C-1.44444444 1.44444444 -1.44444444 1.44444444 0 0 Z " fill="#F7DADA" transform="translate(228,62)"/>
<path d="M0 0 C0.33 0.66 0.66 1.32 1 2 C2.2375 1.773125 3.475 1.54625 4.75 1.3125 C7.57842783 0.97649882 8.80394045 0.92157618 11.5 2 C13.71254546 4.95006062 13.26987553 7.42414928 13 11 C6.565 11.495 6.565 11.495 0 12 C0 9.03 0 6.06 0 3 C-0.66 2.67 -1.32 2.34 -2 2 C-1.34 2 -0.68 2 0 2 C0 1.34 0 0.68 0 0 Z " fill="#CB0E0E" transform="translate(77,77)"/>
<path d="M0 0 C0.33 0 0.66 0 1 0 C2.73460368 10.40762209 2.02805418 17.47717011 -3 27 C-3.66 27.33 -4.32 27.66 -5 28 C-5 23.71 -5 19.42 -5 15 C-3.68 14.67 -2.36 14.34 -1 14 C-1 13.01 -1 12.02 -1 11 C-2.65 11 -4.3 11 -6 11 C-6 9.35 -6 7.7 -6 6 C-4.35 5.67 -2.7 5.34 -1 5 C-0.67 3.35 -0.34 1.7 0 0 Z " fill="#CF2222" transform="translate(70,58)"/>
<path d="M0 0 C-0.75023876 5.25167135 -2.56602982 8.56602982 -6.3125 12.3125 C-9.47857157 14.30049843 -11.32937634 14.34145336 -15 14 C-15.33 12.68 -15.66 11.36 -16 10 C-15.34 10 -14.68 10 -14 10 C-14 10.66 -14 11.32 -14 12 C-13.01 11.34 -12.02 10.68 -11 10 C-11.99 9.67 -12.98 9.34 -14 9 C-14 8.34 -14 7.68 -14 7 C-13.01 7 -12.02 7 -11 7 C-10.773125 6.401875 -10.54625 5.80375 -10.3125 5.1875 C-7.76034471 0.93390784 -4.81539342 0 0 0 Z " fill="#6F6F6F" transform="translate(193,24)"/>
<path d="M0 0 C2.64 0 5.28 0 8 0 C8.33 0.99 8.66 1.98 9 3 C8.30003906 3.1340625 7.60007813 3.268125 6.87890625 3.40625 C3.8746035 4.02586197 0.91134009 4.74808089 -2.0625 5.5 C-3.08472656 5.7578125 -4.10695312 6.015625 -5.16015625 6.28125 C-6.09730469 6.5184375 -7.03445312 6.755625 -8 7 C-9.33320403 7.3338501 -10.66647877 7.66741917 -12 8 C-12 8.99 -12 9.98 -12 11 C-12.66 11 -13.32 11 -14 11 C-14 11.66 -14 12.32 -14 13 C-16.64 12.67 -19.28 12.34 -22 12 C-22 11.67 -22 11.34 -22 11 C-20.35 11 -18.7 11 -17 11 C-16.67 8.36 -16.34 5.72 -16 3 C-15.01 2.67 -14.02 2.34 -13 2 C-13 2.99 -13 3.98 -13 5 C-12.34 4.505 -11.68 4.01 -11 3.5 C-7.03366759 1.51683379 -4.39696738 1.77642539 0 2 C0 1.34 0 0.68 0 0 Z " fill="#545454" transform="translate(196,102)"/>
<path d="M0 0 C-0.57344937 2.86724686 -0.8614515 3.8614515 -3 6 C-3.67292501 7.96690374 -3.67292501 7.96690374 -4.125 10.125 C-4.41375 11.40375 -4.7025 12.6825 -5 14 C-7.31 14 -9.62 14 -12 14 C-12 13.34 -12 12.68 -12 12 C-12.66 12 -13.32 12 -14 12 C-13.625 10.0625 -13.625 10.0625 -13 8 C-12.34 7.67 -11.68 7.34 -11 7 C-9.95499149 5.38004108 -9.95499149 5.38004108 -9 3.5 C-6.58096043 -1.11129417 -5.0027884 -1.18487094 0 0 Z " fill="#E6E6E6" transform="translate(47,42)"/>
<path d="M0 0 C0.66 0 1.32 0 2 0 C2.268125 0.639375 2.53625 1.27875 2.8125 1.9375 C3.88667752 4.33131686 3.88667752 4.33131686 7 5 C7.0825 5.94875 7.165 6.8975 7.25 7.875 C7.65074923 11.10461791 7.65074923 11.10461791 10.0625 12.375 C10.701875 12.58125 11.34125 12.7875 12 13 C11.67 14.32 11.34 15.64 11 17 C11.66 17 12.32 17 13 17 C13 18.98 13 20.96 13 23 C13.66 23 14.32 23 15 23 C15.33 24.98 15.66 26.96 16 29 C15.34 29 14.68 29 14 29 C13.814375 28.071875 13.814375 28.071875 13.625 27.125 C13.12802644 24.80879168 13.12802644 24.80879168 11 23 C11 21.68 11 20.36 11 19 C10.34 19 9.68 19 9 19 C8.5978125 17.8553125 8.5978125 17.8553125 8.1875 16.6875 C7.05575888 14.12619116 6.08776599 12.80307062 4 11 C3.67 11.66 3.34 12.32 3 13 C2.34 13 1.68 13 1 13 C0.67 8.71 0.34 4.42 0 0 Z " fill="#A8A8A8" transform="translate(11,66)"/>
<path d="M0 0 C0.763125 0.20625 1.52625 0.4125 2.3125 0.625 C1.4375 5.375 1.4375 5.375 0.3125 7.625 C0.71188767 9.72321215 0.71188767 9.72321215 1.3125 11.625 C0.3225 11.625 -0.6675 11.625 -1.6875 11.625 C-1.996875 12.264375 -2.30625 12.90375 -2.625 13.5625 C-3.6875 15.625 -3.6875 15.625 -4.6875 16.625 C-6.35367115 16.66563832 -8.02138095 16.667721 -9.6875 16.625 C-9.6875 14.975 -9.6875 13.325 -9.6875 11.625 C-8.718125 11.2125 -7.74875 10.8 -6.75 10.375 C-3.56489901 8.97600832 -3.56489901 8.97600832 -2.8125 6.4375 C-2.77125 5.839375 -2.73 5.24125 -2.6875 4.625 C-4.0075 4.955 -5.3275 5.285 -6.6875 5.625 C-6.375 3.75 -6.375 3.75 -5.6875 1.625 C-2.6875 -0.375 -2.6875 -0.375 0 0 Z " fill="#B3B3B3" transform="translate(238.6875,26.375)"/>
<path d="M0 0 C7.73708326 -0.12152487 15.307359 0.15199233 23 1 C23 2.32 23 3.64 23 5 C19.7 5 16.4 5 13 5 C13 4.34 13 3.68 13 3 C12.01 3.66 11.02 4.32 10 5 C7.30078125 5.1953125 7.30078125 5.1953125 4.3125 5.125 C2.82169922 5.09792969 2.82169922 5.09792969 1.30078125 5.0703125 C0.54152344 5.04710937 -0.21773437 5.02390625 -1 5 C-0.67 3.35 -0.34 1.7 0 0 Z " fill="#929292" transform="translate(190,33)"/>
<path d="M0 0 C2.95839355 -0.02689449 5.91654427 -0.04678741 8.875 -0.0625 C9.71675781 -0.07087891 10.55851563 -0.07925781 11.42578125 -0.08789062 C12.23144531 -0.09111328 13.03710938 -0.09433594 13.8671875 -0.09765625 C14.98262939 -0.10551147 14.98262939 -0.10551147 16.12060547 -0.11352539 C18 0 18 0 20 1 C19 4 19 4 17 5 C15.62451844 5.08308638 14.24514204 5.10736016 12.8671875 5.09765625 C12.06152344 5.09443359 11.25585938 5.09121094 10.42578125 5.08789062 C9.58402344 5.07951172 8.74226562 5.07113281 7.875 5.0625 C7.02550781 5.05798828 6.17601562 5.05347656 5.30078125 5.04882812 C3.20049091 5.03702874 1.1002367 5.01909306 -1 5 C-0.67 3.35 -0.34 1.7 0 0 Z " fill="#878787" transform="translate(155,33)"/>
<path d="M0 0 C0.80824219 0.28746094 1.61648437 0.57492188 2.44921875 0.87109375 C3.06410156 1.09925781 3.67898437 1.32742187 4.3125 1.5625 C4.3125 0.9025 4.3125 0.2425 4.3125 -0.4375 C6.2925 -0.4375 8.2725 -0.4375 10.3125 -0.4375 C10.6425 1.5425 10.9725 3.5225 11.3125 5.5625 C8.0125 4.9025 4.7125 4.2425 1.3125 3.5625 C1.3125 4.2225 1.3125 4.8825 1.3125 5.5625 C-7.25892857 4.70535714 -7.25892857 4.70535714 -10.6875 2.5625 C-10.3575 1.9025 -10.0275 1.2425 -9.6875 0.5625 C-9.0275 0.8925 -8.3675 1.2225 -7.6875 1.5625 C-7.6875 0.9025 -7.6875 0.2425 -7.6875 -0.4375 C-4.20878379 -1.59707207 -3.34530355 -1.21206651 0 0 Z " fill="#5D5D5D" transform="translate(55.6875,114.4375)"/>
<path d="M0 0 C0.99 0.33 1.98 0.66 3 1 C3 1.99 3 2.98 3 4 C4.98 4 6.96 4 9 4 C9.33 4.99 9.66 5.98 10 7 C7.69 7 5.38 7 3 7 C3 7.99 3 8.98 3 10 C-2.94 9.01 -2.94 9.01 -9 8 C-9 6.68 -9 5.36 -9 4 C-6.36 4 -3.72 4 -1 4 C-0.67 2.68 -0.34 1.36 0 0 Z " fill="#F3C9C9" transform="translate(231,50)"/>
<path d="M0 0 C-0.33 1.65 -0.66 3.3 -1 5 C-3.31 4.67 -5.62 4.34 -8 4 C-8 4.66 -8 5.32 -8 6 C-10.64 6.66 -13.28 7.32 -16 8 C-16 7.34 -16 6.68 -16 6 C-16.99 5.67 -17.98 5.34 -19 5 C-19 4.34 -19 3.68 -19 3 C-19.66 2.67 -20.32 2.34 -21 2 C-19.4840625 2.061875 -19.4840625 2.061875 -17.9375 2.125 C-14.02494763 2.16112671 -14.02494763 2.16112671 -10.5 1 C-6.8344005 -0.04731414 -3.79093296 -0.15473196 0 0 Z " fill="#5A5A5A" transform="translate(113,109)"/>
<path d="M0 0 C-4.455 0.495 -4.455 0.495 -9 1 C-9 2.65 -9 4.3 -9 6 C-10.258125 6.020625 -11.51625 6.04125 -12.8125 6.0625 C-13.52019531 6.07410156 -14.22789062 6.08570312 -14.95703125 6.09765625 C-17 6 -17 6 -20 5 C-20 4.34 -20 3.68 -20 3 C-16.53846154 0 -16.53846154 0 -14 0 C-14 -0.66 -14 -1.32 -14 -2 C-8.03201996 -3.03291962 -5.04414952 -3.36276635 0 0 Z " fill="#1E1414" transform="translate(153,97)"/>
<path d="M0 0 C0.99 0 1.98 0 3 0 C3 1.98 3 3.96 3 6 C5.64 6 8.28 6 11 6 C11.33 6.99 11.66 7.98 12 9 C8.7 9 5.4 9 2 9 C2 10.65 2 12.3 2 14 C2.66 14.33 3.32 14.66 4 15 C2.35 15.33 0.7 15.66 -1 16 C-1 16.66 -1 17.32 -1 18 C-1.99 18 -2.98 18 -4 18 C-3.67 16.68 -3.34 15.36 -3 14 C-2.01 14 -1.02 14 0 14 C0 9.38 0 4.76 0 0 Z " fill="#FCF3F3" transform="translate(82,61)"/>
<path d="M0 0 C0.66 0 1.32 0 2 0 C2.33 0.66 2.66 1.32 3 2 C4.89533342 2.46523063 4.89533342 2.46523063 7.0625 2.625 C8.361875 2.74875 9.66125 2.8725 11 3 C11.33 4.32 11.66 5.64 12 7 C10.58366664 7.16947579 9.16691467 7.33545507 7.75 7.5 C6.56664062 7.63921875 6.56664062 7.63921875 5.359375 7.78125 C0.68544885 8.21459415 -2.63317705 7.58793562 -7 6 C-7 5.34 -7 4.68 -7 4 C-5.02 4 -3.04 4 -1 4 C-0.67 2.68 -0.34 1.36 0 0 Z " fill="#F9E4E4" transform="translate(252,50)"/>
<path d="M0 0 C1.16015625 1.9921875 1.16015625 1.9921875 2 4 C2.66 4.33 3.32 4.66 4 5 C2.26363281 4.89171875 2.26363281 4.89171875 0.4921875 4.78125 C-1.04686922 4.68740508 -2.58593204 4.59366039 -4.125 4.5 C-4.88554687 4.45230469 -5.64609375 4.40460938 -6.4296875 4.35546875 C-10.6275033 4.10215228 -14.79201098 3.94622378 -19 4 C-19 3.01 -19 2.02 -19 1 C-12.82133464 -0.80584181 -6.27628393 -2.06441097 0 0 Z " fill="#444343" transform="translate(163,97)"/>
<path d="M0 0 C1.39456452 0.00667256 2.78911118 0.01863093 4.18359375 0.03515625 C4.89451172 0.03966797 5.60542969 0.04417969 6.33789062 0.04882812 C8.09899388 0.06064761 9.86005411 0.07858362 11.62109375 0.09765625 C11.62109375 1.08765625 11.62109375 2.07765625 11.62109375 3.09765625 C6.17609375 3.59265625 6.17609375 3.59265625 0.62109375 4.09765625 C-0.03890625 6.40765625 -0.69890625 8.71765625 -1.37890625 11.09765625 C-2.03890625 11.09765625 -2.69890625 11.09765625 -3.37890625 11.09765625 C-4.54352051 7.60381346 -4.51458944 4.76110236 -4.37890625 1.09765625 C-3.37890625 0.09765625 -3.37890625 0.09765625 0 0 Z " fill="#F9E7E7" transform="translate(171.37890625,54.90234375)"/>
<path d="M0 0 C1.134375 0.020625 2.26875 0.04125 3.4375 0.0625 C3.7675 1.0525 4.0975 2.0425 4.4375 3.0625 C3.1175 2.7325 1.7975 2.4025 0.4375 2.0625 C0.4375 3.0525 0.4375 4.0425 0.4375 5.0625 C1.51 5.02125 2.5825 4.98 3.6875 4.9375 C7.21473487 5.0550745 8.498573 5.41097907 11.4375 7.0625 C8.41611433 7.14399592 5.39696095 7.20323421 2.375 7.25 C1.52744141 7.27513672 0.67988281 7.30027344 -0.19335938 7.32617188 C-5.7875736 7.39096972 -9.58210959 6.63716587 -14.5625 4.0625 C-14.5625 3.7325 -14.5625 3.4025 -14.5625 3.0625 C-13.85222656 2.92972656 -13.14195313 2.79695312 -12.41015625 2.66015625 C-11.49105469 2.48355469 -10.57195313 2.30695312 -9.625 2.125 C-8.25021484 1.86396484 -8.25021484 1.86396484 -6.84765625 1.59765625 C-0.02761628 0.0004845 -0.02761628 0.0004845 0 0 Z M-2.5625 3.0625 C-4.5425 4.0525 -4.5425 4.0525 -6.5625 5.0625 C-4.9125 5.0625 -3.2625 5.0625 -1.5625 5.0625 C-1.8925 4.4025 -2.2225 3.7425 -2.5625 3.0625 Z " fill="#8E8E8E" transform="translate(71.5625,10.9375)"/>
<path d="M0 0 C3.125 0.25 3.125 0.25 5 1.75 C5.37125 2.245 5.7425 2.74 6.125 3.25 C4.475 3.58 2.825 3.91 1.125 4.25 C1.125 5.24 1.125 6.23 1.125 7.25 C-1.515 7.25 -4.155 7.25 -6.875 7.25 C-6.875 7.91 -6.875 8.57 -6.875 9.25 C-7.535 9.25 -8.195 9.25 -8.875 9.25 C-9.535 7.6 -10.195 5.95 -10.875 4.25 C-9.740625 3.775625 -8.60625 3.30125 -7.4375 2.8125 C-1.27847072 0.11117137 -1.27847072 0.11117137 0 0 Z " fill="#6B6B6B" transform="translate(127.875,101.75)"/>
<path d="M0 0 C0.66 0 1.32 0 2 0 C2.27267185 7.63481186 1.09423515 13.9274625 -2 21 C-2.99 21 -3.98 21 -5 21 C-5.34484718 16.40203765 -4.49786373 13.20949657 -2.80078125 9.03515625 C-1.63726207 6.07811482 -0.83024443 3.06551791 0 0 Z " fill="#FAE9E9" transform="translate(169,68)"/>
<path d="M0 0 C0.66 0 1.32 0 2 0 C2.44359263 3.81489658 2.26035293 5.58702639 0.1875 8.875 C-4.43869096 11.95912731 -8.59530363 11.42593929 -14 11 C-14 9.68 -14 8.36 -14 7 C-11.69 7.33 -9.38 7.66 -7 8 C-7 7.34 -7 6.68 -7 6 C-5.04072937 4.2856382 -3.04119788 2.61594832 -1 1 C-1.66 2.98 -2.32 4.96 -3 7 C-0.64046906 4.64046906 -0.50858587 3.22104383 0 0 Z " fill="#767676" transform="translate(153,27)"/>
<path d="M0 0 C0.33 1.32 0.66 2.64 1 4 C1.66 4 2.32 4 3 4 C3.33 4.99 3.66 5.98 4 7 C5.32 6.67 6.64 6.34 8 6 C8 6.99 8 7.98 8 9 C7.34 9 6.68 9 6 9 C5.979375 9.86625 5.95875 10.7325 5.9375 11.625 C4.63479719 16.31473013 1.81832333 18.18859744 -2 21 C-1.67 19.02 -1.34 17.04 -1 15 C-0.34 15 0.32 15 1 15 C1.33 12.36 1.66 9.72 2 7 C1.01 7 0.02 7 -1 7 C-0.67 4.69 -0.34 2.38 0 0 Z " fill="#EDEDED" transform="translate(17,35)"/>
<path d="M0 0 C2.97 0 5.94 0 9 0 C9.37010337 3.3309303 9.27461204 4.62731223 7.25 7.375 C5 9 5 9 2.875 8.6875 C2.25625 8.460625 1.6375 8.23375 1 8 C0.01 8.495 0.01 8.495 -1 9 C-0.67 6.03 -0.34 3.06 0 0 Z " fill="#CD1919" transform="translate(197,70)"/>
<path d="M0 0 C-0.125 1.875 -0.125 1.875 -1 4 C-3.4375 5.0625 -3.4375 5.0625 -7 6 C-8.73062614 6.51596307 -10.45971769 7.03709252 -12.1875 7.5625 C-13.44626953 7.93568359 -13.44626953 7.93568359 -14.73046875 8.31640625 C-16.49609722 8.84822205 -18.25064448 9.41688149 -20 10 C-20 9.34 -20 8.68 -20 8 C-13.9136964 2.92117976 -7.97603019 0 0 0 Z " fill="#818181" transform="translate(54,14)"/>
<path d="M0 0 C3.63 0 7.26 0 11 0 C11 4.29 11 8.58 11 13 C9.68 12.34 8.36 11.68 7 11 C7.226875 10.401875 7.45375 9.80375 7.6875 9.1875 C8.25664029 6.95581172 8.25664029 6.95581172 6.8125 5.25 C4.81814804 3.62151136 4.81814804 3.62151136 1 4 C0.67 2.68 0.34 1.36 0 0 Z " fill="#CA0D0D" transform="translate(182,70)"/>
<path d="M0 0 C0.33 0 0.66 0 1 0 C1 2.64 1 5.28 1 8 C1.66 8 2.32 8 3 8 C2.01 12.62 1.02 17.24 0 22 C-0.99 22 -1.98 22 -3 22 C-4.42944945 19.64561267 -5.08661261 18.51967567 -4.625 15.75 C-4.41875 15.1725 -4.2125 14.595 -4 14 C-3.01 14 -2.02 14 -1 14 C-0.67 9.38 -0.34 4.76 0 0 Z " fill="#1E1E1E" transform="translate(43,48)"/>
<path d="M0 0 C0.99 0 1.98 0 3 0 C3 2.97 3 5.94 3 9 C5.83269666 10.41634833 8.47466438 10.3463005 11.625 10.5625 C12.81351563 10.64628906 14.00203125 10.73007813 15.2265625 10.81640625 C16.14179687 10.87699219 17.05703125 10.93757813 18 11 C18 11.33 18 11.66 18 12 C15.20807795 12.05380578 12.4171859 12.09357669 9.625 12.125 C8.8309375 12.14175781 8.036875 12.15851563 7.21875 12.17578125 C5.14507985 12.19335473 3.07116759 12.10335168 1 12 C0.34 11.34 -0.32 10.68 -1 10 C-0.9765625 7.6171875 -0.9765625 7.6171875 -0.625 4.875 C-0.51414062 3.96492188 -0.40328125 3.05484375 -0.2890625 2.1171875 C-0.19367188 1.41851562 -0.09828125 0.71984375 0 0 Z " fill="#F3C8C8" transform="translate(74,80)"/>
<path d="M0 0 C1.953125 0.7109375 1.953125 0.7109375 4 2 C4.609375 4.1640625 4.609375 4.1640625 4.75 6.625 C4.80671875 7.44226563 4.8634375 8.25953125 4.921875 9.1015625 C4.94765625 9.72804688 4.9734375 10.35453125 5 11 C2.03 10.505 2.03 10.505 -1 10 C-2.25 3.375 -2.25 3.375 0 0 Z " fill="#D6D6D6" transform="translate(33,80)"/>
<path d="M0 0 C0.33 0 0.66 0 1 0 C1.33 3.63 1.66 7.26 2 11 C3.65 10.67 5.3 10.34 7 10 C7 11.65 7 13.3 7 15 C4.69 15.66 2.38 16.32 0 17 C-1.75559942 15.24440058 -1.13221919 12.96417558 -1.13671875 10.62890625 C-1.13285156 9.92636719 -1.12898437 9.22382812 -1.125 8.5 C-1.12886719 7.79746094 -1.13273438 7.09492187 -1.13671875 6.37109375 C-1.12661378 1.12661378 -1.12661378 1.12661378 0 0 Z " fill="#FDF6F6" transform="translate(174,70)"/>
<path d="M0 0 C0.66 0 1.32 0 2 0 C3.125 3.75 3.125 3.75 2 6 C2.99 6 3.98 6 5 6 C5.33 7.98 5.66 9.96 6 12 C4.35 12.33 2.7 12.66 1 13 C1 12.01 1 11.02 1 10 C0.01 10 -0.98 10 -2 10 C-2 8.68 -2 7.36 -2 6 C-1.34 5.67 -0.68 5.34 0 5 C-0.2784375 4.0409375 -0.2784375 4.0409375 -0.5625 3.0625 C-0.7790625 2.0415625 -0.7790625 2.0415625 -1 1 C-0.67 0.67 -0.34 0.34 0 0 Z " fill="#818181" transform="translate(33,61)"/>
<path d="M0 0 C-0.33 1.32 -0.66 2.64 -1 4 C-5.62 4 -10.24 4 -15 4 C-14 1 -14 1 -12 -0.25 C-7.84360004 -1.28909999 -4.1881063 -0.67520668 0 0 Z " fill="#D9D9D9" transform="translate(61,36)"/>
<path d="M0 0 C2.78416841 0.5715148 5.41559273 1.42879649 8.07421875 2.42578125 C8.07421875 3.08578125 8.07421875 3.74578125 8.07421875 4.42578125 C5.80345033 4.4527785 3.53259054 4.47217578 1.26171875 4.48828125 C-0.63513672 4.50568359 -0.63513672 4.50568359 -2.5703125 4.5234375 C-5.92578125 4.42578125 -5.92578125 4.42578125 -8.92578125 3.42578125 C-8.92578125 2.76578125 -8.92578125 2.10578125 -8.92578125 1.42578125 C-5.4647927 -0.88154445 -3.99452536 -0.61283846 0 0 Z " fill="#F4F4F4" transform="translate(51.92578125,106.57421875)"/>
<path d="M0 0 C0.33 0.66 0.66 1.32 1 2 C2.65 2 4.3 2 6 2 C6.66 3.65 7.32 5.3 8 7 C6.02 7 4.04 7 2 7 C2 6.01 2 5.02 2 4 C0.68 4 -0.64 4 -2 4 C-2.33 5.32 -2.66 6.64 -3 8 C-3 6.68 -3 5.36 -3 4 C-4.98 4 -6.96 4 -9 4 C-9 4.99 -9 5.98 -9 7 C-9.99 6.67 -10.98 6.34 -12 6 C-11.34 6 -10.68 6 -10 6 C-10 5.01 -10 4.02 -10 3 C-7.69 3 -5.38 3 -3 3 C-2.67 2.34 -2.34 1.68 -2 1 C-1.67 1.33 -1.34 1.66 -1 2 C-0.67 1.34 -0.34 0.68 0 0 Z " fill="#D84D4D" transform="translate(244,54)"/>
<path d="M0 0 C-0.33 0.99 -0.66 1.98 -1 3 C-1.66 3 -2.32 3 -3 3 C-3 4.65 -3 6.3 -3 8 C-2.34 7.67 -1.68 7.34 -1 7 C-1 7.99 -1 8.98 -1 10 C-2.98 10.33 -4.96 10.66 -7 11 C-8.4516129 3.90322581 -8.4516129 3.90322581 -7 1 C-2.66666667 -1.33333333 -2.66666667 -1.33333333 0 0 Z " fill="#8B8B8B" transform="translate(19,47)"/>
<path d="M0 0 C1.48011371 0.30798326 2.95907325 0.621518 4.4375 0.9375 C5.26121094 1.11152344 6.08492187 1.28554687 6.93359375 1.46484375 C9 2 9 2 10 3 C11.99958364 3.04080783 14.00045254 3.04254356 16 3 C16 3.66 16 4.32 16 5 C11.79722713 6.06673434 8.06349923 5.98980591 3.75 5.6875 C1.88601562 5.56955078 1.88601562 5.56955078 -0.015625 5.44921875 C-1.00046875 5.30097656 -1.9853125 5.15273437 -3 5 C-3.33 4.34 -3.66 3.68 -4 3 C-2.02 3 -0.04 3 2 3 C1.34 2.67 0.68 2.34 0 2 C0 1.34 0 0.68 0 0 Z " fill="#3C3C3C" transform="translate(58,104)"/>
<path d="M0 0 C0.66 0 1.32 0 2 0 C2.268125 0.639375 2.53625 1.27875 2.8125 1.9375 C3.88667752 4.33131686 3.88667752 4.33131686 7 5 C7 6.65 7 8.3 7 10 C6.01 10.33 5.02 10.66 4 11 C3.67 11.66 3.34 12.32 3 13 C2.34 13 1.68 13 1 13 C0.67 8.71 0.34 4.42 0 0 Z " fill="#B2B2B2" transform="translate(11,66)"/>
<path d="M0 0 C0.66 0 1.32 0 2 0 C3.00496852 3.01490557 3.10335303 5.04181692 3.0625 8.1875 C3.05347656 9.08855469 3.04445312 9.98960938 3.03515625 10.91796875 C3.02355469 11.60503906 3.01195312 12.29210937 3 13 C1.68 13 0.36 13 -1 13 C-1.02686553 11.02090602 -1.04633375 9.04171029 -1.0625 7.0625 C-1.07410156 5.96035156 -1.08570313 4.85820313 -1.09765625 3.72265625 C-1 1 -1 1 0 0 Z " fill="#CF2323" transform="translate(176,68)"/>
<path d="M0 0 C2.69082872 0.17635452 5.32851446 0.61835921 8 1 C8 1.99 8 2.98 8 4 C5.69 4.33 3.38 4.66 1 5 C1 5.99 1 6.98 1 8 C0.01 7.67 -0.98 7.34 -2 7 C-1.125 1.125 -1.125 1.125 0 0 Z " fill="#FCF3F3" transform="translate(228,62)"/>
<path d="M0 0 C3.87729472 0.57441403 6.21519058 2.29254639 9 5 C9 6.32 9 7.64 9 9 C5.45529741 8.70460812 4.21784705 8.22373481 1.6875 5.625 C0 3 0 3 0 0 Z " fill="#F7DCDC" transform="translate(199,81)"/>
<path d="M0 0 C1.32 0 2.64 0 4 0 C4.33 1.65 4.66 3.3 5 5 C6.98 5 8.96 5 11 5 C11 5.33 11 5.66 11 6 C6.38 6.33 1.76 6.66 -3 7 C-3 6.01 -3 5.02 -3 4 C-2.01 4 -1.02 4 0 4 C0 2.68 0 1.36 0 0 Z " fill="#FBF0F0" transform="translate(242,58)"/>
<path d="M0 0 C1.79133978 -0.05391993 3.58313899 -0.09275571 5.375 -0.125 C6.37273438 -0.14820312 7.37046875 -0.17140625 8.3984375 -0.1953125 C11 0 11 0 13 2 C13 2.99 13 3.98 13 5 C8.25581395 4.07751938 8.25581395 4.07751938 5.9375 3.375 C3.66384163 2.93493709 2.18417292 3.29794442 0 4 C0 2.68 0 1.36 0 0 Z " fill="#4C4C4C" transform="translate(47,111)"/>
<path d="M0 0 C2.25 0.125 2.25 0.125 5 1 C9 6.08108108 9 6.08108108 9 9 C4.74822077 8.52758009 2.70030797 6.15035929 0 3 C0 2.01 0 1.02 0 0 Z " fill="#F8E2E2" transform="translate(125,66)"/>
<path d="M0 0 C2.64 0 5.28 0 8 0 C8.6875 1.75 8.6875 1.75 9 4 C7.5625 6.25 7.5625 6.25 6 8 C3.69 7.67 1.38 7.34 -1 7 C-1 6.67 -1 6.34 -1 6 C2.465 5.505 2.465 5.505 6 5 C6 4.67 6 4.34 6 4 C3.69 3.67 1.38 3.34 -1 3 C-0.67 2.01 -0.34 1.02 0 0 Z " fill="#D02727" transform="translate(191,57)"/>
<path d="M0 0 C3.18609925 0.35401103 4.79066678 0.83027036 7.3125 2.875 C9 5 9 5 9 8 C2.25 6.25 2.25 6.25 0 4 C0 2.68 0 1.36 0 0 Z " fill="#F7DBDB" transform="translate(110,53)"/>
<path d="M0 0 C4.29 0.66 8.58 1.32 13 2 C9.52630934 3.73684533 7.92380063 4.30084112 4.25 4.625 C3.45078125 4.69976562 2.6515625 4.77453125 1.828125 4.8515625 C1.22484375 4.90054688 0.6215625 4.94953125 0 5 C-0.66 4.01 -1.32 3.02 -2 2 C-1.34 2 -0.68 2 0 2 C0 1.34 0 0.68 0 0 Z " fill="#D1D1D1" transform="translate(60,109)"/>
<path d="M0 0 C0.33 0.99 0.66 1.98 1 3 C2.98 3 4.96 3 7 3 C7.33 3.99 7.66 4.98 8 6 C5.69 6 3.38 6 1 6 C1 6.99 1 7.98 1 9 C0.01 8.67 -0.98 8.34 -2 8 C-2.875 6.1875 -2.875 6.1875 -3 4 C-1.5625 1.75 -1.5625 1.75 0 0 Z " fill="#FAEBEB" transform="translate(233,51)"/>
<path d="M0 0 C0.763125 0.20625 1.52625 0.4125 2.3125 0.625 C1.9825 2.275 1.6525 3.925 1.3125 5.625 C-0.0075 5.955 -1.3275 6.285 -2.6875 6.625 C-2.6875 5.965 -2.6875 5.305 -2.6875 4.625 C-4.0075 4.955 -5.3275 5.285 -6.6875 5.625 C-6.375 3.75 -6.375 3.75 -5.6875 1.625 C-2.6875 -0.375 -2.6875 -0.375 0 0 Z " fill="#EDEDED" transform="translate(238.6875,26.375)"/>
<path d="M0 0 C3.44137432 1.5294997 6.2222133 3.45369552 9 6 C9 6.99 9 7.98 9 9 C5.45529741 8.70460812 4.21784705 8.22373481 1.6875 5.625 C0 3 0 3 0 0 Z " fill="#F6D6D6" transform="translate(255,84)"/>
<path d="M0 0 C6.875 0.875 6.875 0.875 8 2 C8.04080783 3.99958364 8.04254356 6.00045254 8 8 C7.443125 7.525625 6.88625 7.05125 6.3125 6.5625 C3.81653926 4.87604004 1.9553763 4.41046893 -1 4 C-0.67 2.68 -0.34 1.36 0 0 Z " fill="#FBEEEE" transform="translate(109,68)"/>
<path d="M0 0 C1.51400391 0.01740234 1.51400391 0.01740234 3.05859375 0.03515625 C4.07050781 0.04417969 5.08242187 0.05320313 6.125 0.0625 C7.29869141 0.07990234 7.29869141 0.07990234 8.49609375 0.09765625 C8.49609375 1.41765625 8.49609375 2.73765625 8.49609375 4.09765625 C5.19609375 4.09765625 1.89609375 4.09765625 -1.50390625 4.09765625 C-1.50390625 3.43765625 -1.50390625 2.77765625 -1.50390625 2.09765625 C-2.16390625 1.76765625 -2.82390625 1.43765625 -3.50390625 1.09765625 C-2.50390625 0.09765625 -2.50390625 0.09765625 0 0 Z " fill="#7D7D7D" transform="translate(204.50390625,33.90234375)"/>
<path d="M0 0 C2.64 0 5.28 0 8 0 C8.33 0.99 8.66 1.98 9 3 C4.68803391 3.94324258 0.37934119 4.48041715 -4 5 C-4.33 4.01 -4.66 3.02 -5 2 C-3.35 2 -1.7 2 0 2 C0 1.34 0 0.68 0 0 Z " fill="#AFAFAF" transform="translate(196,102)"/>
<path d="M0 0 C0 0.66 0 1.32 0 2 C-1.28583984 1.96519531 -1.28583984 1.96519531 -2.59765625 1.9296875 C-9.92698451 1.68320968 -9.92698451 1.68320968 -17.0625 3.0625 C-19.99135033 3.99723947 -21.19502601 4.1219896 -24 3 C-17.14125398 -1.57249735 -7.92663318 -0.09894549 0 0 Z " fill="#8C5D5D" transform="translate(135,98)"/>
<path d="M0 0 C1.23492187 -0.03738281 2.46984375 -0.07476562 3.7421875 -0.11328125 C7.64036908 0.37736747 8.74344592 1.27871125 11.125 4.3125 C9.2378125 4.065 9.2378125 4.065 7.3125 3.8125 C1.9105491 3.20176988 -3.44560338 3.22116436 -8.875 3.3125 C-8.875 2.6525 -8.875 1.9925 -8.875 1.3125 C-5.93776222 -0.15611889 -3.26907643 0.06456596 0 0 Z " fill="#DA5656" transform="translate(197.875,43.6875)"/>
<path d="M0 0 C1.32 0 2.64 0 4 0 C3.44271087 3.34373475 2.64826111 6.03312999 1 9 C0.34 8.67 -0.32 8.34 -1 8 C-3.09821215 8.39938767 -3.09821215 8.39938767 -5 9 C-5 8.34 -5 7.68 -5 7 C-4.34 7 -3.68 7 -3 7 C-1.79371992 4.66785852 -0.8345262 2.50357861 0 0 Z " fill="#B5B5B5" transform="translate(189,24)"/>
<path d="M0 0 C1.5625 1 1.5625 1 3 3 C2.96726452 5.76614782 2.49404328 8.26030547 2 11 C-0.375 12.0625 -0.375 12.0625 -3 13 C-3.66 12.67 -4.32 12.34 -5 12 C-3.63016497 8.83884224 -3.0109362 8.0072908 0 6 C0.2502157 2.91634129 0.2502157 2.91634129 0 0 Z " fill="#343434" transform="translate(27,92)"/>
<path d="M0 0 C-0.54074373 3.78520613 -2.07572746 5.59177555 -5 8 C-5.99 8 -6.98 8 -8 8 C-7.63487253 5.2980567 -7.30130763 3.41609148 -5.6875 1.1875 C-4 0 -4 0 0 0 Z " fill="#F8E3E3" transform="translate(190,83)"/>
<path d="M0 0 C0.625 1.8125 0.625 1.8125 1 4 C0.01 5.485 0.01 5.485 -1 7 C-3.625 7.1875 -3.625 7.1875 -6 7 C-6 5.02 -6 3.04 -6 1 C-4.02 0.67 -2.04 0.34 0 0 Z " fill="#070707" transform="translate(180,106)"/>
<path d="M0 0 C0.99 0 1.98 0 3 0 C3 3.96 3 7.92 3 12 C2.01 12.33 1.02 12.66 0 13 C0 8.71 0 4.42 0 0 Z " fill="#F6D7D7" transform="translate(194,80)"/>
<path d="M0 0 C2.02558881 3.34939881 2.21738987 5.86962551 2.125 9.75 C2.10695312 10.73484375 2.08890625 11.7196875 2.0703125 12.734375 C2.03550781 13.85585937 2.03550781 13.85585937 2 15 C0.02 15.99 0.02 15.99 -2 17 C-1.835 16.360625 -1.67 15.72125 -1.5 15.0625 C-0.94702392 11.67552152 -0.96908052 8.5074258 -1.0625 5.0859375 C-1 3 -1 3 0 0 Z " fill="#FAE9E9" transform="translate(229,67)"/>
<path d="M0 0 C0.66 0 1.32 0 2 0 C2.08333357 4.8333472 1.95261487 9.23692563 1 14 C0.34 13.01 -0.32 12.02 -1 11 C-1.99 11.495 -1.99 11.495 -3 12 C-2.69230293 10.18667846 -2.37870936 8.37435655 -2.0625 6.5625 C-1.80146484 5.04849609 -1.80146484 5.04849609 -1.53515625 3.50390625 C-1 1 -1 1 0 0 Z " fill="#F4D0D0" transform="translate(169,68)"/>
<path d="M0 0 C2.64 0 5.28 0 8 0 C7.34 1.65 6.68 3.3 6 5 C3.69 5 1.38 5 -1 5 C-0.67 3.35 -0.34 1.7 0 0 Z " fill="#CA0909" transform="translate(243,65)"/>
<path d="M0 0 C1.65 0.33 3.3 0.66 5 1 C2.125 5.875 2.125 5.875 1 7 C0.76572222 9.01594582 0.58663876 11.038474 0.4375 13.0625 C0.35371094 14.16722656 0.26992187 15.27195312 0.18359375 16.41015625 C0.12300781 17.26480469 0.06242188 18.11945313 0 19 C-0.33 19 -0.66 19 -1 19 C-1.02714735 16.77090129 -1.04646254 14.54170633 -1.0625 12.3125 C-1.07990234 10.45044922 -1.07990234 10.45044922 -1.09765625 8.55078125 C-1.01478673 5.53764546 -0.70839449 2.91724661 0 0 Z " fill="#F2C7C7" transform="translate(173,64)"/>
<path d="M0 0 C1 2 1 2 0.0625 5.125 C-0.288125 6.07375 -0.63875 7.0225 -1 8 C-1.66 8 -2.32 8 -3 8 C-3.33 8.66 -3.66 9.32 -4 10 C-4 8.68 -4 7.36 -4 6 C-4.99 6.33 -5.98 6.66 -7 7 C-7.33 6.01 -7.66 5.02 -8 4 C-6.865625 3.525625 -5.73125 3.05125 -4.5625 2.5625 C-1.24259834 1.36377917 -1.24259834 1.36377917 0 0 Z " fill="#4C4C4C" transform="translate(21,54)"/>
<path d="M0 0 C1.4540625 0.0309375 1.4540625 0.0309375 2.9375 0.0625 C2.6075 1.3825 2.2775 2.7025 1.9375 4.0625 C0.9475 4.0625 -0.0425 4.0625 -1.0625 4.0625 C-1.18625 4.701875 -1.31 5.34125 -1.4375 6 C-1.64375 6.680625 -1.85 7.36125 -2.0625 8.0625 C-3.0525 8.5575 -3.0525 8.5575 -4.0625 9.0625 C-4.16015625 2.91015625 -4.16015625 2.91015625 -4.0625 1.0625 C-3.0625 0.0625 -3.0625 0.0625 0 0 Z " fill="#F8E1E1" transform="translate(75.0625,55.9375)"/>
<path d="M0 0 C-0.66 1.32 -1.32 2.64 -2 4 C-4.31 4 -6.62 4 -9 4 C-9 2.68 -9 1.36 -9 0 C-5.67465243 -1.10844919 -3.37817425 -0.84454356 0 0 Z " fill="#8E8E8E" transform="translate(251,34)"/>
<path d="M0 0 C1.67542976 0.28604898 3.34385343 0.61781233 5 1 C4.01 1.33 3.02 1.66 2 2 C2 2.99 2 3.98 2 5 C1.34 5 0.68 5 0 5 C0 5.66 0 6.32 0 7 C-2.64 6.67 -5.28 6.34 -8 6 C-8 5.67 -8 5.34 -8 5 C-6.35 5 -4.7 5 -3 5 C-2.690625 4.360625 -2.38125 3.72125 -2.0625 3.0625 C-1 1 -1 1 0 0 Z " fill="#8A8A8A" transform="translate(182,108)"/>
<path d="M0 0 C2 1 2 1 3.125 4.0625 C3.41375 5.031875 3.7025 6.00125 4 7 C7.3 7.66 10.6 8.32 14 9 C14 9.33 14 9.66 14 10 C11.69 10 9.38 10 7 10 C6.67 10.66 6.34 11.32 6 12 C2.59156258 9.11593757 1.13408616 7.6291735 0.1875 3.1875 C0.125625 2.135625 0.06375 1.08375 0 0 Z " fill="#D46A6A" transform="translate(160,88)"/>
<path d="M0 0 C2.31 0.33 4.62 0.66 7 1 C6 4 6 4 4 5 C1.6670134 5.04022391 -0.66706666 5.04320247 -3 5 C-2.01 3.35 -1.02 1.7 0 0 Z " fill="#828282" transform="translate(168,33)"/>
<path d="M0 0 C2.99332739 0.9977758 3.94766315 1.7522025 6 4 C5.67 4.99 5.34 5.98 5 7 C1.85375007 7.26218749 0.38162983 7.24754367 -2.3125 5.5 C-2.869375 5.005 -3.42625 4.51 -4 4 C-3.01 3.67 -2.02 3.34 -1 3 C-0.67 2.01 -0.34 1.02 0 0 Z " fill="#555555" transform="translate(91,111)"/>
<path d="M0 0 C0.99 0.33 1.98 0.66 3 1 C2.40312566 4.34249629 1.26396123 6.46436342 -1 9 C-1.66 9 -2.32 9 -3 9 C-2.25 2.25 -2.25 2.25 0 0 Z " fill="#F5D4D4" transform="translate(235,84)"/>
<path d="M0 0 C0.17835515 4.54805635 -0.00214565 7.8794254 -2 12 C-2.66 12 -3.32 12 -4 12 C-4.08131463 10.56344146 -4.13933559 9.1255517 -4.1875 7.6875 C-4.22230469 6.88699219 -4.25710937 6.08648437 -4.29296875 5.26171875 C-3.98428663 2.87869278 -2.85980321 0 0 0 Z " fill="#CA0B0B" transform="translate(70,72)"/>
<path d="M0 0 C2.64 0.33 5.28 0.66 8 1 C8 1.66 8 2.32 8 3 C9.65 3 11.3 3 13 3 C10.08235 4.9451 8.37462715 5.45276317 5 6 C5 5.34 5 4.68 5 4 C4.01 3.67 3.02 3.34 2 3 C2 2.34 2 1.68 2 1 C1.34 0.67 0.68 0.34 0 0 Z " fill="#ADADAD" transform="translate(92,111)"/>
<path d="M0 0 C1.32 0 2.64 0 4 0 C3.44225728 3.23490776 2.62788492 4.97855006 0 7 C-0.99 7 -1.98 7 -3 7 C-2.25 2.25 -2.25 2.25 0 0 Z " fill="#F6D9D9" transform="translate(202,72)"/>
<path d="M0 0 C0.66 0.33 1.32 0.66 2 1 C2.55353075 11.55808656 2.55353075 11.55808656 -1 16 C-2.22602512 12.32192463 -1.70295577 10.11756073 -1.0625 6.3125 C-0.86785156 5.13300781 -0.67320313 3.95351562 -0.47265625 2.73828125 C-0.31667969 1.83464844 -0.16070312 0.93101563 0 0 Z " fill="#FCF4F4" transform="translate(72,63)"/>
<path d="M0 0 C0.33 0.99 0.66 1.98 1 3 C0.484375 2.773125 -0.03125 2.54625 -0.5625 2.3125 C-4.20833891 1.84508475 -6.71165368 3.50529713 -10 5 C-10.99 5 -11.98 5 -13 5 C-13 4.34 -13 3.68 -13 3 C-8.44573816 0.33409063 -5.26053037 -0.31563182 0 0 Z " fill="#ADADAD" transform="translate(75,11)"/>
<path d="M0 0 C1.32 0.66 2.64 1.32 4 2 C4 3.98 4 5.96 4 8 C3.01 8 2.02 8 1 8 C-0.42944945 5.64561267 -1.08661261 4.51967567 -0.625 1.75 C-0.41875 1.1725 -0.2125 0.595 0 0 Z " fill="#EFB6B6" transform="translate(249,85)"/>
<path d="M0 0 C0.33 0.99 0.66 1.98 1 3 C0.01 3.66 -0.98 4.32 -2 5 C-2.33 5.99 -2.66 6.98 -3 8 C-1.02 7.01 0.96 6.02 3 5 C2.34 7.31 1.68 9.62 1 12 C0.34 12 -0.32 12 -1 12 C-1 11.01 -1 10.02 -1 9 C-1.99 9 -2.98 9 -4 9 C-3.6875 5.625 -3.6875 5.625 -3 2 C-2.01 1.34 -1.02 0.68 0 0 Z " fill="#7E7E7E" transform="translate(235,24)"/>
<path d="M0 0 C0 0.66 0 1.32 0 2 C-1.65 2.33 -3.3 2.66 -5 3 C-4.67 4.65 -4.34 6.3 -4 8 C-5.32 8 -6.64 8 -8 8 C-8.36075949 3.55063291 -8.36075949 3.55063291 -6.8125 1.1875 C-4.44017475 -0.36678206 -2.77958655 -0.22537188 0 0 Z " fill="#636363" transform="translate(151,24)"/>
<path d="M0 0 C-0.33 1.98 -0.66 3.96 -1 6 C-3.97 5.505 -3.97 5.505 -7 5 C-7 4.01 -7 3.02 -7 2 C-6.34 2.33 -5.68 2.66 -5 3 C-5 2.34 -5 1.68 -5 1 C-2 0 -2 0 0 0 Z " fill="#AEAEAE" transform="translate(53,113)"/>
<path d="M0 0 C1.65 0.33 3.3 0.66 5 1 C5 1.99 5 2.98 5 4 C4.34 4 3.68 4 3 4 C2.67 4.99 2.34 5.98 2 7 C0.4375 5.75 0.4375 5.75 -1 4 C-0.6875 1.8125 -0.6875 1.8125 0 0 Z " fill="#1F1F1F" transform="translate(21,96)"/>
<path d="M0 0 C3.24271506 0.5590888 4.93057424 1.4132178 7 4 C7 4.66 7 5.32 7 6 C4.625 6.125 4.625 6.125 2 6 C1.34 5.34 0.68 4.68 0 4 C0 2.68 0 1.36 0 0 Z " fill="#F7DEDE" transform="translate(184,73)"/>
<path d="M0 0 C1.98 0 3.96 0 6 0 C6 1.32 6 2.64 6 4 C4.02 4.33 2.04 4.66 0 5 C-0.33 4.34 -0.66 3.68 -1 3 C-0.67 2.01 -0.34 1.02 0 0 Z " fill="#C80101" transform="translate(235,58)"/>
<path d="M0 0 C0 3.99904969 -1.72586967 5.80200422 -4 9 C-5.65 8.67 -7.3 8.34 -9 8 C-8.34 7.67 -7.68 7.34 -7 7 C-7 6.34 -7 5.68 -7 5 C-5.35 4.34 -3.7 3.68 -2 3 C-2 2.34 -2 1.68 -2 1 C-1.34 0.67 -0.68 0.34 0 0 Z " fill="#606060" transform="translate(32,23)"/>
<path d="M0 0 C6.625 -0.125 6.625 -0.125 10 1 C10 1.99 10 2.98 10 4 C7.36 4 4.72 4 2 4 C2.33 3.01 2.66 2.02 3 1 C2.01 0.67 1.02 0.34 0 0 Z " fill="#A6A6A6" transform="translate(77,11)"/>
<path d="M0 0 C3.3 0 6.6 0 10 0 C10.33 0.99 10.66 1.98 11 3 C9 5 9 5 5.875 5.125 C4.92625 5.08375 3.9775 5.0425 3 5 C3.99 4.01 4.98 3.02 6 2 C3.03 1.505 3.03 1.505 0 1 C0 0.67 0 0.34 0 0 Z " fill="#363636" transform="translate(76,113)"/>
<path d="M0 0 C1.65 0 3.3 0 5 0 C5 1.32 5 2.64 5 4 C4 5 4 5 0.4375 5.0625 C-0.696875 5.041875 -1.83125 5.02125 -3 5 C-3 4.34 -3 3.68 -3 3 C-1.68 2.67 -0.36 2.34 1 2 C0.67 1.34 0.34 0.68 0 0 Z " fill="#8A8A8A" transform="translate(219,33)"/>
<path d="M0 0 C0.99 0.33 1.98 0.66 3 1 C3 1.66 3 2.32 3 3 C3.66 3 4.32 3 5 3 C5 3.66 5 4.32 5 5 C5.66 5 6.32 5 7 5 C7 6.65 7 8.3 7 10 C6.34 9.67 5.68 9.34 5 9 C5 8.34 5 7.68 5 7 C4.01 7 3.02 7 2 7 C1.34 4.69 0.68 2.38 0 0 Z " fill="#606060" transform="translate(167,102)"/>
<path d="M0 0 C0.33 0 0.66 0 1 0 C1.24954005 1.43410368 1.47392642 2.87260072 1.6875 4.3125 C1.81511719 5.11300781 1.94273438 5.91351563 2.07421875 6.73828125 C2 9 2 9 0.51953125 10.79296875 C0.01808594 11.19128906 -0.48335937 11.58960937 -1 12 C-1.66 10.68 -2.32 9.36 -3 8 C-2.34 8 -1.68 8 -1 8 C-1.020625 6.865625 -1.04125 5.73125 -1.0625 4.5625 C-1 1 -1 1 0 0 Z " fill="#5E5E5E" transform="translate(20,87)"/>
<path d="M0 0 C0.66 0 1.32 0 2 0 C2.04254356 1.99954746 2.04080783 4.00041636 2 6 C1 7 1 7 -2.0625 7.0625 C-3.5165625 7.0315625 -3.5165625 7.0315625 -5 7 C-5 6.34 -5 5.68 -5 5 C-4.360625 4.731875 -3.72125 4.46375 -3.0625 4.1875 C-0.66868314 3.11332248 -0.66868314 3.11332248 0 0 Z " fill="#FCF5F5" transform="translate(251,76)"/>
<path d="M0 0 C0.99 0.33 1.98 0.66 3 1 C3 1.99 3 2.98 3 4 C5.31 4 7.62 4 10 4 C10 4.33 10 4.66 10 5 C5.38 5 0.76 5 -4 5 C-4 4.34 -4 3.68 -4 3 C-2.68 2.67 -1.36 2.34 0 2 C0 1.34 0 0.68 0 0 Z " fill="#E99B9B" transform="translate(251,58)"/>
<path d="M0 0 C0.33 0.99 0.66 1.98 1 3 C3.97 3 6.94 3 10 3 C9.67 3.66 9.34 4.32 9 5 C5.7 5 2.4 5 -1 5 C-0.67 3.35 -0.34 1.7 0 0 Z " fill="#FCF2F2" transform="translate(188,58)"/>
<path d="M0 0 C0.66 0 1.32 0 2 0 C0.75023244 3.65316671 0.32901247 4.78065836 -3 7 C-6.1875 7.125 -6.1875 7.125 -9 7 C-9 6.34 -9 5.68 -9 5 C-7.88625 4.731875 -6.7725 4.46375 -5.625 4.1875 C-1.78159049 3.34190981 -1.78159049 3.34190981 0 0 Z " fill="#777777" transform="translate(121,36)"/>
<path d="M0 0 C0.763125 0.20625 1.52625 0.4125 2.3125 0.625 C1.9825 1.945 1.6525 3.265 1.3125 4.625 C-0.9975 4.295 -3.3075 3.965 -5.6875 3.625 C-5.6875 2.965 -5.6875 2.305 -5.6875 1.625 C-2.6875 -0.375 -2.6875 -0.375 0 0 Z " fill="#D2D2D2" transform="translate(48.6875,106.375)"/>
<path d="M0 0 C2.475 0.495 2.475 0.495 5 1 C4.67 1.99 4.34 2.98 4 4 C4.66 4.66 5.32 5.32 6 6 C4.33388095 6.042721 2.66617115 6.04063832 1 6 C0 5 0 5 -0.0625 2.4375 C-0.041875 1.633125 -0.02125 0.82875 0 0 Z " fill="#797979" transform="translate(174,101)"/>
<path d="M0 0 C1.32 0.33 2.64 0.66 4 1 C3.67 3.97 3.34 6.94 3 10 C2.01 9.01 1.02 8.02 0 7 C0.33 6.34 0.66 5.68 1 5 C0.72057545 3.32345271 0.39171753 1.65391846 0 0 Z " fill="#6C6767" transform="translate(46,90)"/>
<path d="M0 0 C0.33 1.32 0.66 2.64 1 4 C1.66 4 2.32 4 3 4 C5 7 5 7 5 10 C4.01 10.33 3.02 10.66 2 11 C2 9.68 2 8.36 2 7 C1.01 7 0.02 7 -1 7 C-0.67 4.69 -0.34 2.38 0 0 Z " fill="#A2A2A2" transform="translate(17,35)"/>
<path d="M0 0 C-2.39509338 2.89932357 -4.31245243 3.50168276 -8 4 C-8 2.68 -8 1.36 -8 0 C-5.13822943 -1.43088528 -3.06624227 -0.59991697 0 0 Z " fill="#A6A6A6" transform="translate(221,34)"/>
<path d="M0 0 C0.33 0.66 0.66 1.32 1 2 C3.57437581 2.91280138 3.57437581 2.91280138 6.5625 3.625 C7.57441406 3.88539062 8.58632812 4.14578125 9.62890625 4.4140625 C10.80259766 4.70410156 10.80259766 4.70410156 12 5 C12 5.33 12 5.66 12 6 C6.73946963 6.31563182 3.55426184 5.66590937 -1 3 C-0.67 2.01 -0.34 1.02 0 0 Z " fill="#ACACAC" transform="translate(89,14)"/>
<path d="M0 0 C2.97 0.495 2.97 0.495 6 1 C4.625 3.5 4.625 3.5 3 6 C2.34 6 1.68 6 1 6 C0.67 4.02 0.34 2.04 0 0 Z " fill="#B4B4B4" transform="translate(66,114)"/>
<path d="M0 0 C0.99 0.33 1.98 0.66 3 1 C3.1953125 7.0546875 3.1953125 7.0546875 3 9 C2.34 9.66 1.68 10.32 1 11 C0.67 7.37 0.34 3.74 0 0 Z " fill="#FDF7F7" transform="translate(179,68)"/>
<path d="M0 0 C2.97 0.495 2.97 0.495 6 1 C5.67 1.99 5.34 2.98 5 4 C3.02 4 1.04 4 -1 4 C-0.67 2.68 -0.34 1.36 0 0 Z " fill="#F8DFDF" transform="translate(122,58)"/>
<path d="M0 0 C0.99 0 1.98 0 3 0 C2.67 1.98 2.34 3.96 2 6 C1.01 6.33 0.02 6.66 -1 7 C-1.04254356 5.00045254 -1.04080783 2.99958364 -1 1 C-0.67 0.67 -0.34 0.34 0 0 Z " fill="#F5D2D2" transform="translate(241,86)"/>
<path d="M0 0 C0.66 0 1.32 0 2 0 C2.66 2.97 3.32 5.94 4 9 C3.01 9 2.02 9 1 9 C-0.4783226 6.04335481 -0.06032783 3.25770263 0 0 Z " fill="#9C9C9C" transform="translate(11,66)"/>
<path d="M0 0 C-0.33 1.32 -0.66 2.64 -1 4 C-2.65 4.33 -4.3 4.66 -6 5 C-6 3.68 -6 2.36 -6 1 C-4 0 -4 0 0 0 Z " fill="#575757" transform="translate(54,14)"/>
<path d="M0 0 C1.2065625 0.0309375 1.2065625 0.0309375 2.4375 0.0625 C2.7675 1.0525 3.0975 2.0425 3.4375 3.0625 C1.1275 3.3925 -1.1825 3.7225 -3.5625 4.0625 C-3.5625 0.08689024 -3.5625 0.08689024 0 0 Z " fill="#7B7B7B" transform="translate(38.5625,108.9375)"/>
<path d="M0 0 C0.99 0.33 1.98 0.66 3 1 C4.41687119 5.25061356 3.19320039 7.71851625 2 12 C1.67 12 1.34 12 1 12 C1.01740234 11.07767578 1.01740234 11.07767578 1.03515625 10.13671875 C1.04417969 9.32847656 1.05320313 8.52023438 1.0625 7.6875 C1.07410156 6.88699219 1.08570313 6.08648437 1.09765625 5.26171875 C1.09657855 2.83138666 1.09657855 2.83138666 0 0 Z " fill="#DA5757" transform="translate(159,71)"/>
<path d="M0 0 C0.66 0 1.32 0 2 0 C1.39009109 3.55780196 0.4216319 6.6828589 -1 10 C-1.33 9.01 -1.66 8.02 -2 7 C-2.99 6.67 -3.98 6.34 -5 6 C-4.01 5.67 -3.02 5.34 -2 5 C-0.78130071 2.49552484 -0.78130071 2.49552484 0 0 Z " fill="#737373" transform="translate(27,34)"/>
<path d="M0 0 C1.98 0 3.96 0 6 0 C6.33 1.32 6.66 2.64 7 4 C2.25 3.125 2.25 3.125 0 2 C0 1.34 0 0.68 0 0 Z " fill="#0F0F0F" transform="translate(53,112)"/>
<path d="M0 0 C0.763125 0.061875 1.52625 0.12375 2.3125 0.1875 C2.6425 1.1775 2.9725 2.1675 3.3125 3.1875 C0.3425 3.1875 -2.6275 3.1875 -5.6875 3.1875 C-2.6875 0.1875 -2.6875 0.1875 0 0 Z " fill="#F9E7E7" transform="translate(90.6875,66.8125)"/>
<path d="M0 0 C1.65 0 3.3 0 5 0 C5.33 1.32 5.66 2.64 6 4 C4.02 4 2.04 4 0 4 C0 2.68 0 1.36 0 0 Z " fill="#CB0E0E" transform="translate(246,57)"/>
<path d="M0 0 C1.32 0 2.64 0 4 0 C3.34 1.65 2.68 3.3 2 5 C0.68 5 -0.64 5 -2 5 C-1.34 3.35 -0.68 1.7 0 0 Z " fill="#898989" transform="translate(198,33)"/>
<path d="M0 0 C0.66 0 1.32 0 2 0 C2 0.66 2 1.32 2 2 C3.65 2 5.3 2 7 2 C5.68 2.33 4.36 2.66 3 3 C3 3.66 3 4.32 3 5 C1.35 4.67 -0.3 4.34 -2 4 C-1.34 2.68 -0.68 1.36 0 0 Z " fill="#404040" transform="translate(71,116)"/>
<path d="M0 0 C1.9375 0.3125 1.9375 0.3125 4 1 C4.33 1.99 4.66 2.98 5 4 C5.66 4.33 6.32 4.66 7 5 C3.7 4.67 0.4 4.34 -3 4 C-3 3.67 -3 3.34 -3 3 C-1.35 3 0.3 3 2 3 C2 2.34 2 1.68 2 1 C1.34 0.67 0.68 0.34 0 0 Z " fill="#646464" transform="translate(160,97)"/>
<path d="M0 0 C0 0.99 0 1.98 0 3 C-1.98 3 -3.96 3 -6 3 C-6 2.01 -6 1.02 -6 0 C-3 -1 -3 -1 0 0 Z " fill="#BE1414" transform="translate(156,93)"/>
<path d="M0 0 C1.98 0.99 3.96 1.98 6 3 C5.67 3.99 5.34 4.98 5 6 C4.34 6 3.68 6 3 6 C3 5.34 3 4.68 3 4 C1.68 3.67 0.36 3.34 -1 3 C-0.67 2.01 -0.34 1.02 0 0 Z " fill="#8A8A8A" transform="translate(17,76)"/>
<path d="M0 0 C2.69082872 0.17635452 5.32851446 0.61835921 8 1 C8 1.33 8 1.66 8 2 C6.906875 2.0825 5.81375 2.165 4.6875 2.25 C0.96723336 2.63689209 0.96723336 2.63689209 -0.9375 5.0625 C-1.288125 5.701875 -1.63875 6.34125 -2 7 C-1.125 1.125 -1.125 1.125 0 0 Z " fill="#EEB5B5" transform="translate(228,62)"/>
<path d="M0 0 C1.32 0 2.64 0 4 0 C4 0.99 4 1.98 4 3 C3.34 3 2.68 3 2 3 C2 3.66 2 4.32 2 5 C1.01 5 0.02 5 -1 5 C-0.67 3.35 -0.34 1.7 0 0 Z " fill="#8F8F8F" transform="translate(155,33)"/>
<path d="M0 0 C1.32 0.66 2.64 1.32 4 2 C1.69 3.32 -0.62 4.64 -3 6 C-2.42655063 3.13275314 -2.1385485 2.1385485 0 0 Z " fill="#C3C3C3" transform="translate(220,26)"/>
<path d="M0 0 C5.94 0.99 5.94 0.99 12 2 C8 4 8 4 5 4 C5 3.34 5 2.68 5 2 C3.35 2 1.7 2 0 2 C0 1.34 0 0.68 0 0 Z " fill="#A8A8A8" transform="translate(61,109)"/>
<path d="M0 0 C1.32 0 2.64 0 4 0 C3.67 1.65 3.34 3.3 3 5 C1.68 4.34 0.36 3.68 -1 3 C-0.67 2.01 -0.34 1.02 0 0 Z " fill="#8C8C8C" transform="translate(109,109)"/>
<path d="M0 0 C0 0.66 0 1.32 0 2 C-3.01031744 2.93423645 -3.86650268 3.04449911 -7 2 C-7 1.34 -7 0.68 -7 0 C-3.86650268 -1.04449911 -3.01031744 -0.93423645 0 0 Z " fill="#707070" transform="translate(205,103)"/>
<path d="M0 0 C2.475 0.99 2.475 0.99 5 2 C5 2.66 5 3.32 5 4 C5.66 4.33 6.32 4.66 7 5 C4.03 4.505 4.03 4.505 1 4 C0.67 2.68 0.34 1.36 0 0 Z " fill="#585858" transform="translate(51,99)"/>
<path d="M0 0 C2.31 0.33 4.62 0.66 7 1 C7 1.66 7 2.32 7 3 C4.69 3 2.38 3 0 3 C0 2.01 0 1.02 0 0 Z " fill="#FCF3F3" transform="translate(222,54)"/>
<path d="M0 0 C0.33 0.66 0.66 1.32 1 2 C0.06553465 4.03144641 -0.93224776 6.03533587 -2 8 C-2.99 8 -3.98 8 -5 8 C-5 5 -5 5 -2.5 2.3125 C-1.675 1.549375 -0.85 0.78625 0 0 Z " fill="#8A8A8A" transform="translate(151,28)"/>
<path d="M0 0 C0.99 0.33 1.98 0.66 3 1 C2.6875 2.9375 2.6875 2.9375 2 5 C1.01 5.33 0.02 5.66 -1 6 C-0.67 4.02 -0.34 2.04 0 0 Z " fill="#474747" transform="translate(53,114)"/>
<path d="M0 0 C3.33537489 1.11179163 4.63707344 2.47411298 7 5 C6.67 5.66 6.34 6.32 6 7 C3.00675737 5.9024777 2.15389099 5.32317108 0.75 2.375 C0.5025 1.59125 0.255 0.8075 0 0 Z " fill="#DA5555" transform="translate(150,45)"/>
<path d="M0 0 C0.33 0.66 0.66 1.32 1 2 C2.98 1.34 4.96 0.68 7 0 C6.34 1.32 5.68 2.64 5 4 C3.35 4 1.7 4 0 4 C0 2.68 0 1.36 0 0 Z " fill="#767676" transform="translate(229,39)"/>
<path d="M0 0 C1.2065625 0.0309375 1.2065625 0.0309375 2.4375 0.0625 C2.7675 1.3825 3.0975 2.7025 3.4375 4.0625 C1.7875 4.0625 0.1375 4.0625 -1.5625 4.0625 C-1.5625 3.4025 -1.5625 2.7425 -1.5625 2.0625 C-2.2225 1.7325 -2.8825 1.4025 -3.5625 1.0625 C-2.5625 0.0625 -2.5625 0.0625 0 0 Z " fill="#666666" transform="translate(204.5625,33.9375)"/>
<path d="M0 0 C0.99 0 1.98 0 3 0 C3 1.32 3 2.64 3 4 C0.36 3.67 -2.28 3.34 -5 3 C-5 2.67 -5 2.34 -5 2 C-3.35 2 -1.7 2 0 2 C0 1.34 0 0.68 0 0 Z " fill="#585858" transform="translate(179,111)"/>
<path d="M0 0 C0.66 0.33 1.32 0.66 2 1 C2 1.66 2 2.32 2 3 C1.34 3 0.68 3 0 3 C-0.33 3.99 -0.66 4.98 -1 6 C-1.99 5.67 -2.98 5.34 -4 5 C-2.25 1.125 -2.25 1.125 0 0 Z " fill="#7D7D7D" transform="translate(26,99)"/>
<path d="M0 0 C2.375 -0.125 2.375 -0.125 5 0 C5.66 0.66 6.32 1.32 7 2 C6.625 4.125 6.625 4.125 6 6 C6 5.01 6 4.02 6 3 C3.03 2.505 3.03 2.505 0 2 C0 1.34 0 0.68 0 0 Z " fill="#6A6A6A" transform="translate(236,24)"/>
<path d="M0 0 C0.99 0.33 1.98 0.66 3 1 C3 1.66 3 2.32 3 3 C1.68 3 0.36 3 -1 3 C-0.67 2.01 -0.34 1.02 0 0 Z " fill="#BEBEBE" transform="translate(158,102)"/>
<path d="M0 0 C0.99 0 1.98 0 3 0 C3 0.99 3 1.98 3 3 C2.01 3 1.02 3 0 3 C0 2.01 0 1.02 0 0 Z " fill="#949494" transform="translate(162,104)"/>
<path d="M0 0 C0.66 0 1.32 0 2 0 C2 0.66 2 1.32 2 2 C1.34 2 0.68 2 0 2 C0 1.34 0 0.68 0 0 Z " fill="#6A6A6A" transform="translate(159,30)"/>
</svg>
